<svg width="59" height="48" viewBox="0 0 59 48" fill="none" xmlns="http://www.w3.org/2000/svg">
<path d="M20.0622 40.6874C20.2864 41.1792 20.6308 40.9454 20.9912 40.9374C21.5678 40.9212 21.9201 40.5342 22.4407 40.3085C21.9842 40.1714 21.5998 40.0505 21.1914 39.9215C21.0632 40.1875 20.9271 40.4778 20.7829 40.7761C20.7429 40.7761 20.6949 40.7761 20.6548 40.7761C20.6068 40.5584 20.5427 40.3407 20.5267 40.123C20.5107 39.865 20.4226 39.736 20.1503 39.728C19.9981 39.7199 19.846 39.6231 19.6378 39.5425C19.4856 39.9457 19.3094 40.3972 19.1012 40.9535C18.7488 40.3407 18.8129 39.7683 18.8449 39.2119C18.3804 38.9459 18.3804 38.9459 18.0921 39.8247C18.0361 39.6876 17.94 39.5506 17.932 39.4135C17.8999 39.0749 17.7638 38.8652 17.4034 38.7685C17.1151 38.6798 17.019 38.7121 17.011 39.0265C17.003 39.3974 16.963 39.7763 16.8989 40.1472C16.8749 40.3165 16.7708 40.4778 16.7067 40.6471C16.6666 40.6471 16.6266 40.6471 16.5946 40.6471C16.5465 40.4939 16.4905 40.3407 16.4424 40.1875C16.3063 39.728 16.1861 39.2603 16.042 38.8007C15.9859 38.6153 15.8978 38.5105 15.6576 38.5911C15.4974 38.6476 15.3052 38.5992 15.0409 38.5992C14.9769 38.7927 14.8808 39.0588 14.7847 39.3248C14.7446 39.3329 14.6966 39.3409 14.6565 39.349C14.5765 39.1152 14.5044 38.8814 14.4083 38.6476C14.3522 38.5105 14.2721 38.3895 14.2001 38.2605C14.112 38.3895 14.0319 38.5266 13.9438 38.6556C13.9118 38.7121 13.8797 38.7685 13.7996 38.9217C13.6395 38.6072 13.5193 38.3573 13.3832 38.0912C12.2941 38.0509 12.6544 39.0265 12.4062 39.5748C12.3661 39.5828 12.3261 39.5909 12.2781 39.599C12.19 39.349 12.0618 39.1152 12.0298 38.8572C11.9897 38.5508 12.0538 38.2444 12.0458 37.93C12.0458 37.8252 11.9737 37.7284 11.9337 37.6236C11.8216 37.68 11.6534 37.7042 11.6134 37.7848C11.5173 38.0267 11.4692 38.2928 11.317 38.575C11.261 38.3492 11.1809 38.1235 11.1649 37.8977C11.1168 37.2043 11.0768 36.519 11.0528 35.8256C11.0207 35.0838 11.277 34.7291 11.9817 34.463C12.246 34.3582 12.4863 34.1728 12.7586 34.0679C12.9828 33.9793 13.2631 33.8664 13.4793 33.9228C14.0559 34.0599 14.6245 34.2453 15.1691 34.4791C15.6175 34.6726 16.05 34.7855 16.5465 34.7936C17.011 34.8016 17.4755 34.971 17.924 35.1322C18.2523 35.2532 18.5246 35.3419 18.8689 35.1564C19.0451 35.0677 19.3494 35.1 19.5497 35.1887C20.0302 35.3902 20.5027 35.3499 20.9992 35.2773C21.776 35.1725 22.5528 35.1322 23.3376 35.0435C23.5699 35.0193 23.8101 34.9629 24.0183 34.8662C24.3627 34.7049 24.699 34.5114 25.0194 34.3018C25.2196 34.1647 25.3798 33.9551 25.572 33.8019C26.0204 33.431 26.525 33.3907 27.0775 33.5439C27.2697 33.6003 27.502 33.5116 27.7182 33.4955C27.8463 33.4874 27.9825 33.4713 28.1106 33.4632C28.511 33.431 28.9115 33.3987 29.3199 33.3746C29.6642 33.3504 30.0166 33.2617 30.3369 33.3342C31.0337 33.4955 31.5142 33.1004 32.0027 32.7537C32.0988 32.6892 32.1228 32.3022 32.0267 32.2055C31.5462 31.7136 31.5863 31.1815 31.7704 30.601C31.9787 29.9398 32.339 29.4158 33.0037 29.1658C33.5723 28.9481 33.7485 28.6176 33.6124 28.029C33.5964 27.9725 33.5563 27.9161 33.5083 27.8758C33.26 27.65 33.0198 27.4082 32.7475 27.2147C32.6514 27.1502 32.4672 27.1663 32.339 27.2147C32.259 27.2388 32.1548 27.392 32.1709 27.4727C32.267 28.0612 31.8025 28.4321 31.6263 28.9239C31.4501 28.545 31.1858 28.1902 31.2819 27.7549C31.346 27.4565 31.2099 27.2953 30.9696 27.2711C30.8174 27.255 30.6333 27.392 30.4891 27.4888C30.3369 27.5936 30.1848 27.7145 30.0647 27.8597C29.9445 28.0048 29.8564 28.1822 29.7203 28.3999C29.5361 28.037 29.6722 27.6904 29.7043 27.3678C29.7283 27.1502 29.8725 26.9405 29.9125 26.7228C29.9365 26.5858 29.9045 26.4084 29.8244 26.2955C29.7844 26.2391 29.5842 26.2794 29.464 26.3116C29.2078 26.3842 28.9595 26.4729 28.6792 26.5696C28.5271 26.0939 28.8634 25.8037 29.1357 25.5215C29.416 25.2312 29.7603 24.9974 30.1608 24.6749C30.0086 24.5943 29.8885 24.5378 29.6883 24.433C30.0967 24.3201 30.361 24.2073 30.6413 24.1831C31.0177 24.1589 31.1057 23.9089 31.1538 23.6348C31.346 22.4496 31.8425 21.4095 32.5393 20.4581C32.7875 20.1195 33.1399 19.8615 33.4282 19.5551C33.5643 19.418 33.7245 19.2568 33.7725 19.0875C34.1249 17.7571 35.0459 16.9589 36.2071 16.3623C36.2391 16.3461 36.2792 16.33 36.2952 16.3219C36.1831 15.2819 36.079 14.2498 35.9668 13.2017C35.3021 12.8469 34.9898 12.1213 34.5413 11.5085C34.5013 11.4521 34.4613 11.3795 34.4052 11.3473C33.8446 10.9925 33.1959 10.7184 32.7314 10.2669C32.283 9.83148 31.7464 9.69441 31.2259 9.46866C30.7854 9.27515 30.345 9.08165 29.9205 8.85589C29.7363 8.75914 29.5922 8.58176 29.392 8.40438C29.1197 8.32375 28.7673 8.24313 28.439 8.11413C27.8223 7.87224 27.2377 7.56586 26.6131 7.36429C26.1406 7.2111 25.62 7.19498 25.1315 7.0821C24.9313 7.03372 24.7471 6.91278 24.5629 6.81603C24.4988 6.78378 24.4348 6.72734 24.3707 6.72734C23.698 6.70315 22.9692 6.83215 22.3526 6.63059C21.5518 6.36452 20.7029 6.61446 19.9581 6.25971C19.0531 5.82432 18.1162 6.0662 17.1952 6.0017C17.0911 5.99364 16.971 6.03395 16.8749 6.0017C15.7857 5.62275 14.7606 6.09845 13.7035 6.20327C13.4313 6.22745 13.151 6.21133 12.8707 6.21939C12.7666 6.21939 12.6625 6.23552 12.5583 6.25164C11.6854 6.40483 10.8045 6.55802 9.9396 6.72734C9.65931 6.78378 9.37902 6.8886 9.10673 6.98535C8.45004 7.2111 7.76132 7.34011 7.12065 7.65455C6.03151 8.19475 4.84627 8.54145 3.78917 9.16228C3.10045 9.56541 2.36368 9.87986 1.6269 10.1943C1.4267 10.283 1.16242 10.2185 0.930176 10.2185C1.01827 10.0089 1.06632 9.75085 1.21848 9.60572C1.40267 9.42028 1.68296 9.32353 1.9072 9.17034C2.01131 9.09777 2.13143 8.99296 2.17147 8.88008C2.28359 8.5737 2.45978 8.38019 2.80414 8.34794C2.91625 8.33988 3.04439 8.227 3.10845 8.13025C3.31667 7.78355 3.55692 7.52555 3.90929 7.58199C4.13353 7.38042 4.31772 7.22723 4.4939 7.06597C4.582 6.98535 4.65407 6.89666 4.73416 6.80797C4.78221 6.75153 4.81424 6.64671 4.87831 6.62253C5.40686 6.38065 5.93541 6.15489 6.46397 5.91301C6.57608 5.85657 6.69621 5.79207 6.79231 5.7195C7.23277 5.38893 7.77734 5.21962 8.13772 4.73585C8.23382 4.59879 8.61021 4.64717 8.85847 4.65523C9.10673 4.65523 9.25088 4.5746 9.41906 4.37303C9.58723 4.17147 9.87554 4.01021 10.1318 3.95377C10.4922 3.88121 10.8606 4.01827 11.1489 3.58289C11.269 3.39745 11.7095 3.43776 12.0058 3.34907C12.1579 3.30876 12.3902 3.26038 12.4382 3.1475C12.6544 2.67987 13.0388 2.74437 13.4232 2.72824C13.6555 2.72018 13.8957 2.63955 14.128 2.59118C14.4083 2.53474 14.6966 2.40574 14.9689 2.42186C15.2411 2.44605 15.4334 2.42186 15.6015 2.20417C15.6416 2.15579 15.7056 2.09129 15.7617 2.09129C16.4344 2.0671 16.995 1.4624 17.7318 1.70428C17.8118 1.72847 17.924 1.6559 18.012 1.62365C18.6287 1.3979 19.2373 1.15602 19.854 0.954449C20.0222 0.89801 20.2384 0.914137 20.4066 0.970576C20.831 1.10764 21.1754 0.970575 21.5598 0.801259C21.776 0.704506 22.0563 0.74482 22.3045 0.728695C22.5448 0.712569 22.785 0.712569 23.0253 0.696443C23.0733 0.696443 23.1294 0.640005 23.1775 0.648068C24.0343 0.881886 24.9633 0.212681 25.7962 0.873822C25.8923 0.954449 26.1325 0.914137 26.2767 0.849635C26.613 0.704507 26.9014 0.591628 27.2377 0.881886C27.3338 0.962512 27.558 0.889948 27.7262 0.898011C27.9745 0.914136 28.2147 0.930262 28.463 0.962512C28.7833 1.00283 29.1037 1.10764 29.424 1.09958C29.7844 1.09152 30.0887 1.12377 30.377 1.38177C30.5452 1.5269 30.8335 1.58334 31.0737 1.5914C31.4821 1.59947 31.8665 1.57528 32.1629 1.9381C32.1949 1.97841 32.283 1.98648 32.347 1.97841C32.4111 1.97841 32.5072 1.91391 32.5393 1.9381C32.9317 2.26867 33.4442 2.18804 33.8847 2.35736C34.173 2.47024 34.4212 2.6718 34.6935 2.81693C34.7656 2.85725 34.8777 2.84918 34.9578 2.81693C35.3102 2.69599 35.5264 2.85725 35.6625 3.16363C35.7907 3.45389 35.9748 3.59095 36.3032 3.59901C36.4634 3.60708 36.7196 3.71189 36.7677 3.84089C36.9038 4.18759 37.1361 4.25209 37.4564 4.25209C37.5525 4.25209 37.6566 4.31659 37.7527 4.36497C39.0981 5.09868 40.4435 5.84044 41.7969 6.55802C43.2705 7.34011 44.3917 8.51726 45.4808 9.74279C46.0974 10.4442 46.6901 11.1618 47.3708 11.831C47.2346 11.5891 47.0664 11.3634 46.9623 11.1054C46.8823 10.9199 46.7942 10.6458 46.8742 10.5087C47.1786 9.98467 47.5149 9.46866 47.8993 9.00102C48.1155 8.74302 48.4439 8.69464 48.7722 8.92846C48.8924 9.01715 49.0685 9.04133 49.2287 9.06552C49.5651 9.12196 49.8774 9.15421 50.0135 9.56541C50.0536 9.68635 50.3499 9.74279 50.5341 9.7831C51.0706 9.88792 51.2388 9.97661 51.399 10.3072C50.7663 10.5894 50.7984 10.5974 51.2708 11.1779C52.1598 12.2664 52.7364 13.4839 52.4961 14.9513C52.4801 15.0642 52.5442 15.2093 52.6002 15.3222C52.9927 16.0559 52.9846 16.7896 52.5682 17.5072C52.2399 18.0716 51.9676 18.6924 51.2388 18.8939C52.5442 22.4818 52.5362 26.0456 51.2708 29.6415C52.2078 29.8028 52.9206 30.2946 53.5292 30.9638C53.5452 30.9799 53.5693 31.0041 53.5853 31.0202C54.0738 31.754 54.5943 32.4473 55.195 33.1004C55.4913 33.4229 55.5874 34.0034 55.6434 34.4791C55.7155 35.1403 55.6674 35.8176 55.6594 36.4948C55.6514 37.0834 55.8677 37.4059 56.3962 37.6155C56.7005 37.7365 56.9968 37.8897 57.2771 38.059C57.4293 38.1557 57.5414 38.3331 57.6695 38.4702C57.6455 38.4944 57.6295 38.5266 57.6055 38.5508C57.4453 38.5186 57.2932 38.4944 57.0849 38.4541C57.117 38.5427 57.117 38.6072 57.149 38.6234C57.4934 38.8814 57.8377 39.1394 58.1981 39.3813C58.6866 39.7199 58.5665 40.2682 58.6946 40.76C58.2782 40.3891 57.6055 40.7277 57.2851 40.1633C57.2451 40.0908 56.9808 40.1553 56.9168 40.1553C56.8687 40.8729 56.8287 41.5421 56.7886 42.2032C56.7566 42.2193 56.7165 42.2274 56.6845 42.2435C56.4282 41.9371 56.172 41.6308 55.9077 41.3324C55.8276 41.2437 55.6514 41.1228 55.6274 41.147C55.5153 41.2357 55.3711 41.3889 55.3872 41.4937C55.4272 41.7678 55.3071 41.8726 55.0908 41.9855C54.9627 42.05 54.8746 42.2032 54.7705 42.3241C54.6744 42.437 54.5863 42.566 54.4982 42.687C54.4582 42.6789 54.4181 42.6708 54.3781 42.6628C54.3621 42.4612 54.3301 42.2596 54.322 42.0581C54.306 41.7678 54.322 41.4776 54.306 41.1873C54.282 40.8648 54.0898 40.7842 53.8255 40.9696C53.7615 41.018 53.6974 41.0825 53.6253 41.0906C53.1768 41.1712 53.1688 41.1712 53.0167 41.6308C52.9366 41.4856 52.8725 41.405 52.8405 41.3002C52.7124 40.8245 52.9526 40.1633 53.369 39.9053C53.8095 39.6393 53.8736 38.8652 53.6493 38.5024C53.3931 38.0912 53.1208 37.6962 52.8725 37.285C52.6643 36.9383 52.5682 36.5916 52.7043 36.1723C52.8485 35.7208 52.6002 35.3741 52.1438 35.2532C51.423 35.0677 50.7103 34.8742 49.9575 34.6646C49.6612 35.0919 49.3408 35.5676 49.0045 36.0352C48.1476 37.2205 47.0825 38.1154 45.6249 38.4621C45.4407 38.5024 45.2726 38.6476 45.1124 38.7524C44.8561 38.9217 44.6159 39.1313 44.2715 38.9943C44.2155 38.9701 44.0953 39.0346 44.0473 39.0991C42.0372 41.792 39.5065 43.8238 36.3432 44.9606C35.0138 45.4363 33.6444 45.783 32.267 46.0975C31.7865 46.2023 31.2419 46.0572 30.7374 45.9685C30.5291 45.9282 30.377 45.8879 30.1928 46.033C28.5831 47.2666 26.8133 47.5085 24.8912 46.9602C23.69 46.6216 22.4887 46.5571 21.2635 46.9118C20.8951 47.0166 20.4706 46.9199 20.0782 46.9199C19.3174 46.9118 18.5646 46.9038 17.8038 46.9038C17.7398 46.9038 17.6677 46.9199 17.6116 46.9521C16.6746 47.5165 15.6576 47.1618 14.6726 47.2021C13.5674 47.2505 12.7025 46.6458 11.9177 45.9282C11.6214 45.654 11.6614 45.267 12.0058 44.9042C12.0858 44.8155 12.1419 44.6785 12.1579 44.5575C12.214 44.1705 12.246 43.7754 12.2861 43.3804C12.3421 43.3723 12.3982 43.3642 12.4462 43.3562C12.5023 43.5255 12.5423 43.7109 12.6224 43.8722C12.7105 44.0415 12.8386 44.3237 12.9588 44.3318C13.191 44.3398 13.4953 44.2673 13.4953 43.8883C13.4953 43.7432 13.5914 43.5981 13.7436 43.4287C13.8237 43.6061 13.8957 43.7835 13.9758 43.977C14.3122 43.719 14.6726 43.4932 14.9609 43.1949C15.097 43.0498 15.089 42.7676 15.145 42.5499C15.2331 42.2274 15.2412 41.8646 15.6416 41.5904C15.6816 42.1629 15.7136 42.6708 15.7537 43.1707C15.8097 43.1869 15.8578 43.203 15.9139 43.211C16.034 42.9853 16.1461 42.7515 16.3063 42.4451C16.4104 42.695 16.4824 42.8724 16.5625 43.0578C16.7067 43.0578 16.8428 43.0578 16.979 43.0578C17.0671 42.7998 17.1471 42.558 17.2673 42.1871C17.3794 42.4128 17.4114 42.5499 17.4915 42.6386C17.5796 42.7353 17.7157 42.8482 17.8359 42.8482C18.0361 42.8563 18.1882 42.7515 18.1802 42.5015C18.1722 42.3403 18.2123 42.171 18.2283 41.9452C18.4525 42.0823 18.6047 42.179 18.7648 42.2838C18.8529 42.1226 18.941 41.9694 19.0451 41.7839C19.7659 42.1629 19.3334 41.405 19.4616 41.2518C19.7178 41.2679 19.918 41.2841 20.1102 41.2921C20.0302 41.1228 20.0462 40.9051 20.0622 40.6874ZM34.3572 24.2234C34.3251 24.2153 34.2931 24.2073 34.2691 24.1911C33.8046 24.5217 33.3401 24.8603 32.8276 25.2232C32.9397 25.5457 33.0278 25.9004 33.1959 26.2149C33.3801 26.5696 33.6364 26.8841 33.5003 27.3275C33.4762 27.4162 33.5323 27.5372 33.5563 27.642C33.8206 26.489 34.0849 25.3602 34.3572 24.2234Z" fill="#20113D"/>
</svg>
