<svg width="44" height="55" viewBox="0 0 44 55" fill="none" xmlns="http://www.w3.org/2000/svg">
<path fill-rule="evenodd" clip-rule="evenodd" d="M31.0579 23.3932C32.3131 21.8611 33.0329 20.1684 33.0637 18.2038C33.0679 17.99 33.2193 17.7792 33.37 17.5692L33.3701 17.5691C33.4415 17.4696 33.5128 17.3702 33.5682 17.2709C33.8614 16.7387 34.1736 16.2134 34.4859 15.6878C35.196 14.4929 35.907 13.2964 36.3984 12.0135C37.469 9.21492 36.823 7.49746 34.4973 5.71205C34.6449 3.84014 35.3833 2.55514 37.4382 2.18446C38.4108 2.01038 39.3543 1.67287 40.3847 1.30431C40.8534 1.13662 41.3402 0.962508 41.8558 0.794434C40.3115 5.47111 38.8472 9.90067 37.3152 14.5341L37.6729 14.4575L37.675 14.457C39.6684 14.0302 41.4922 13.6396 43.3324 13.2491C43.8 14.0831 43.437 14.5217 42.7295 14.9233L42.3071 15.1613L42.3071 15.1613C40.4963 16.1814 38.6805 17.2043 36.9337 18.3335C36.3492 18.7104 35.8447 19.3899 35.5801 20.0386C35.1455 21.1144 34.7922 22.2234 34.4296 23.3615L34.4294 23.3621C34.2736 23.8511 34.1161 24.3456 33.9497 24.845L31.0579 23.3932ZM36.4045 23.1469C38.2072 24.4937 38.964 27.3911 38.1396 29.6028C37.4197 31.5241 35.7523 32.4385 33.2667 32.1543C32.5518 32.0712 31.8484 31.9118 31.1453 31.7525L31.1453 31.7525L31.1452 31.7525L31.1452 31.7525C30.6986 31.6513 30.2521 31.5501 29.8027 31.4685C27.2433 30.9928 25.0529 31.3512 23.564 32.5003C23.9085 32.5435 24.2039 32.5806 24.653 32.6362C24.2684 33.3631 24.0728 34.1509 23.8832 34.9144C23.6087 36.0196 23.3468 37.074 22.5426 37.8194C23.001 38.1412 23.4904 38.4579 23.9911 38.7819C25.1435 39.5277 26.3553 40.3119 27.3848 41.2852C29.7781 43.5463 29.6305 46.9257 27.2802 49.4277C26.5751 49.178 25.8689 48.9283 25.162 48.6783L25.1602 48.6776C22.4749 47.728 19.7781 46.7743 17.0853 45.8013C16.6387 45.639 16.2127 45.4177 15.787 45.1965C15.5968 45.0977 15.4067 44.999 15.2149 44.9055C12.4277 43.5649 10.9819 41.3161 10.7358 38.2457C10.422 34.3598 11.1787 30.616 12.0709 26.9092C12.1317 26.8975 12.1818 26.8822 12.2236 26.8694C12.2919 26.8486 12.338 26.8345 12.3723 26.8536C18.4142 29.9797 23.9762 28.5649 29.2367 24.9447C30.1288 24.3331 30.8056 24.3022 31.6608 24.7532C32.1654 25.0188 32.676 25.2721 33.1929 25.5069C34.6756 26.1802 35.3463 25.9146 35.9431 24.4072C36.0422 24.1545 36.1342 23.8971 36.228 23.635L36.2282 23.6343C36.2857 23.4736 36.3438 23.3112 36.4045 23.1469ZM30.1993 36.3123C30.5946 35.1093 31.0061 33.8574 31.4457 32.5172C30.9879 32.5024 30.5442 32.4866 30.1111 32.4711L30.1101 32.4711L30.1093 32.471C28.733 32.4219 27.464 32.3766 26.1914 32.3813C25.9207 32.3813 25.5085 32.7149 25.41 32.9867C25.0102 34.1136 24.6506 35.2539 24.304 36.353C24.1813 36.7422 24.0602 37.1263 23.9395 37.5028L25.1533 38.3928L25.1537 38.3931C26.331 39.2566 27.477 40.0971 28.6709 40.9686C29.1702 39.4432 29.6696 37.924 30.1976 36.3174L30.1982 36.3154L30.1993 36.3123ZM17.9038 54.7085C18.6791 52.3979 19.3989 50.2542 20.1619 47.9869C22.063 48.5862 23.8596 49.1545 25.7792 49.7662C25.6753 50.0883 25.5737 50.4053 25.4735 50.7181C25.0934 51.9051 24.7326 53.0315 24.3333 54.1463C24.2472 54.381 23.8965 54.6776 23.6627 54.6838C22.2451 54.7169 20.8203 54.7138 19.3138 54.7105C18.8522 54.7095 18.3829 54.7085 17.9038 54.7085ZM9.44763 15.4518L9.44766 15.4519C10.011 16.3225 10.5581 17.1681 10.9512 18.0807C11.6772 19.7796 11.991 21.6947 10.5636 23.1527C9.09928 24.6416 7.27809 23.9806 5.6538 23.2639C4.70014 22.8438 3.76494 22.2693 2.97741 21.5835C-0.0189243 18.9579 0.276399 14.9485 3.60497 12.7491C5.79531 11.3035 8.20099 11.0811 10.6251 11.9522C11.6772 12.329 12.2679 12.051 13.0923 11.4271C14.4767 10.383 15.9656 9.38835 17.553 8.71496C20.457 7.47938 23.2934 7.85623 25.8775 9.74667C26.4497 10.1668 27.028 10.5745 27.7663 10.7969C27.2618 10.1853 26.7573 9.57987 26.1851 8.89412C28.117 7.12724 30.2397 6.08935 32.8546 6.52798C34.7065 6.83688 35.7032 8.08481 35.6602 9.9629C35.611 12.2302 34.4789 14.0465 33.2422 15.8628C30.8488 13.4905 30.1536 10.7042 31.3595 8.60994C30.1905 8.85705 29.5875 9.57987 29.8398 10.8711C30.0859 12.1375 30.492 13.4102 31.0457 14.5716C32.6085 17.8644 32.1224 21.1078 29.323 23.4246C25.5268 26.5753 21.1277 27.4587 16.3655 26.2479C15.4488 26.0131 14.5751 25.4756 13.7814 24.9258C12.8401 24.2771 12.4032 23.4307 12.5509 22.1148C12.6986 20.7372 12.5017 19.2545 12.151 17.8953C11.6834 16.1161 10.4282 14.9114 8.68089 14.238C8.93117 14.6536 9.19108 15.0553 9.44763 15.4518ZM26.7312 23.9807C26.7441 23.9248 26.7555 23.868 26.7657 23.8107C26.8164 23.5237 26.8359 23.221 26.8549 22.9263L26.8549 22.926C26.8628 22.8039 26.8706 22.6831 26.8805 22.5654C26.8128 20.7552 26.296 19.1428 24.9547 17.9196C23.7734 16.8446 22.6105 17.1968 22.2291 18.7474L22.2153 18.8048C22.194 18.8957 22.1747 18.9864 22.1576 19.0767C21.8476 20.7142 22.2355 22.2515 23.1642 23.6531L23.1952 23.6999C23.3027 23.8619 23.4131 24.0283 23.5292 24.1897C24.0274 24.8834 24.6306 25.4862 25.5613 25.2469C25.5905 25.2395 25.62 25.2314 25.6498 25.2223C26.3238 25.0173 26.6023 24.5399 26.7312 23.9807ZM20.0895 18.8507L20.0895 18.8507C19.8078 18.5898 19.5919 18.39 19.4295 18.4266C19.1803 18.4827 18.9761 18.7317 18.7708 18.982C18.6821 19.09 18.5933 19.1984 18.5005 19.2915C18.5909 19.3748 18.6796 19.476 18.7684 19.5772C18.9694 19.8066 19.1707 20.0362 19.3926 20.0576C19.5884 20.0781 19.8058 19.8977 20.0896 19.6621L20.0896 19.6621C20.234 19.5423 20.3955 19.4083 20.5801 19.2792C20.3979 19.1362 20.2349 18.9853 20.0895 18.8507ZM28.64 16.8698L28.6397 16.8696L28.6401 16.8693C28.419 16.7319 28.2354 16.5995 28.0766 16.4851L28.0766 16.485C27.7716 16.2651 27.5585 16.1115 27.3481 16.1156C27.3427 16.1157 27.3372 16.116 27.3316 16.1165C27.0588 16.1345 26.5732 16.6188 26.6097 16.8018C26.6773 17.1293 27.0465 17.5741 27.348 17.6297C27.3759 17.6344 27.4044 17.635 27.4337 17.6318C27.5677 17.6187 27.7206 17.5227 27.9119 17.3842C27.9619 17.3482 28.0145 17.3092 28.07 17.268C28.2321 17.1479 28.4192 17.0092 28.64 16.8698Z" fill="#20113D"/>
</svg>
