<svg width="100" height="80" viewBox="0 0 100 80" fill="none" xmlns="http://www.w3.org/2000/svg">
<path fill-rule="evenodd" clip-rule="evenodd" d="M100 6.40751V53.5977C99.989 53.6109 99.9768 53.6241 99.9644 53.6376C99.9182 53.6877 99.8695 53.7406 99.8695 53.8064C99.2171 56.4571 97.3382 58.2938 94.2589 59.4C93.9979 59.4834 93.7892 59.8591 93.7631 60.1096C93.7239 61.6906 93.7288 63.2717 93.7337 64.8527C93.7353 65.3797 93.737 65.9066 93.737 66.4336C93.737 68.312 93.4238 70.2113 92.0407 71.7141C90.6315 73.2377 90.475 74.8239 90.6054 76.5562C90.6229 76.7239 90.617 76.9009 90.6112 77.0748V77.075C90.6083 77.1607 90.6054 77.2457 90.6054 77.3285C90.5793 79.0399 89.4311 80 87.2912 80H62.8914C60.8038 80 59.6294 79.0608 59.6033 77.3911C59.586 76.4318 59.5917 75.4817 59.5975 74.5286L59.5975 74.5272C59.6004 74.0499 59.6033 73.5719 59.6033 73.0916C59.6033 71.0253 58.5334 70.107 55.9499 69.9609C51.6441 69.7104 48.3559 67.5607 47.3382 64.3673C46.8685 62.8855 47.0511 61.4453 47.6775 59.9217H46.3988H9.68163C3.91441 59.9217 0 56.791 0 52.1785V37.3389V7.59718C0 4.63345 1.59186 2.37934 4.82777 0.939212C5.50848 0.63021 6.27999 0.445693 7.05086 0.26133L7.05086 0.261329C7.37341 0.184185 7.69586 0.107069 8.01148 0.0208714C35.9864 0 63.9875 0 91.9885 0C92.0799 0.0208714 92.1712 0.0469606 92.2625 0.0730499L92.2625 0.0730539C92.3539 0.0991418 92.4452 0.125229 92.5365 0.1461C96.0595 0.75137 98.382 2.44195 99.5564 5.15523C99.7225 5.51582 99.8454 5.91092 99.9645 6.29345L100 6.40751ZM92.9802 54.5369C93.9457 53.8482 94.1284 53.0342 94.1284 52.1158V7.91025C94.1284 5.71876 92.8758 4.69606 90.1618 4.69606H9.78601C7.09812 4.69606 5.84551 5.69789 5.84551 7.84764V52.0532C5.84551 54.203 7.09812 55.2257 9.75992 55.2257H58.4812C58.7977 55.2257 59.1143 55.2075 59.452 55.1881L59.5251 55.1839V44.8526H58.4029C57.4538 44.8526 56.5076 44.8549 55.5623 44.8572H55.5618H55.5612H55.5606C53.6736 44.8619 51.7904 44.8665 49.8956 44.8526C43.1889 44.8109 37.7349 40.5114 37.6305 35.2309C37.5261 29.7417 42.7453 25.2335 49.6086 25.1709C58.2724 25.0665 66.9363 25.0665 75.5741 25.1709C83.5334 25.2752 89.1962 31.5993 86.9259 37.7146C85.6994 41.054 82.9332 43.2455 78.8622 44.3934C78.5491 44.4769 78.0793 44.7274 78.0793 44.8943C78.0403 46.1889 78.0451 47.4835 78.0499 48.8216C78.0516 49.2741 78.0532 49.7315 78.0532 50.1957H84.2902C87.3434 50.1957 89.8747 51.114 91.7537 53.0342C92.0766 53.3532 92.3442 53.7055 92.6371 54.0909C92.7465 54.2349 92.8595 54.3836 92.9802 54.5369ZM84.7338 75.2622C84.7338 74.9688 84.7369 74.6876 84.7399 74.4145V74.4144V74.4142V74.4141C84.7456 73.8909 84.751 73.3973 84.7338 72.9037C84.7077 72.1106 85.0209 71.4427 85.6994 70.8583C87.213 69.5852 87.8653 68.0616 87.8653 66.3084V57.9598C87.8653 55.9353 86.5606 54.8917 84.0031 54.8917H75.4175C73.3559 54.8917 72.2077 53.9943 72.1816 52.3454C72.1642 51.0101 72.17 49.6748 72.1758 48.3394V48.3381C72.1787 47.6702 72.1816 47.0023 72.1816 46.3345C72.1816 46.0214 72.1833 45.7084 72.1849 45.3953C72.1898 44.4561 72.1947 43.5169 72.1555 42.5776C72.1033 41.0749 70.8507 39.9896 69.1545 39.8643C67.0668 39.7182 65.4749 40.9496 65.4749 42.7446C65.4575 45.9586 65.4634 49.1727 65.4692 52.3806V52.3823V52.3839V52.3856C65.4721 53.9881 65.4749 55.589 65.4749 57.1876C65.4749 59.0451 64.3789 59.9009 62.0564 59.9217C61.1169 59.9322 60.1709 59.927 59.2249 59.9217C58.279 59.9165 57.333 59.9113 56.3935 59.9217C54.3841 59.9635 52.9749 61.0488 52.9489 62.5098C52.8967 63.9917 54.3058 65.1605 56.3152 65.2648C56.4196 65.269 56.524 65.2723 56.6284 65.2757C57.0459 65.289 57.4635 65.3024 57.881 65.3692C62.3434 66.0371 65.3706 68.8964 65.4749 72.5489C65.4923 73.1456 65.4866 73.7422 65.4808 74.345V74.3454V74.3455V74.3456V74.3457C65.4779 74.6494 65.4749 74.9546 65.4749 75.2622H84.7338ZM77.6096 39.8852C77.8637 39.7213 78.1281 39.5677 78.3915 39.4147C78.9666 39.0806 79.5369 38.7493 79.9843 38.3199C81.7328 36.6919 82.0981 34.8135 80.976 32.8516C79.8278 30.8479 77.7923 29.8043 75.0261 29.7835C69.4795 29.7696 63.9329 29.7742 58.3785 29.7788H58.3779H58.3773H58.3749H58.3738H58.3728H58.3717C55.5921 29.7811 52.8106 29.7835 50.0261 29.7835C49.5303 29.7835 49.0344 29.8043 48.5647 29.8878C45.2766 30.4722 43.1628 32.8516 43.5282 35.5648C43.8413 38.0903 46.6336 40.0939 49.9217 40.1148C51.2297 40.1237 52.5378 40.1212 53.8478 40.1186H53.8479H53.8479H53.848H53.8481H53.8482H53.8483C55.5961 40.1152 57.3475 40.1118 59.1075 40.1357C59.8382 40.1357 60.1514 39.9478 60.4645 39.426C63.2568 34.5213 71.3988 33.5821 75.7568 37.6728C76.2055 38.1179 76.5802 38.5925 76.9997 39.124L76.9998 39.1242L76.9999 39.1242C77.1902 39.3654 77.3897 39.6182 77.6096 39.8852ZM18.7369 47.42C16.6232 47.0652 15.501 46.1051 15.6837 44.8111C15.8664 43.4127 17.1712 42.6613 19.3371 42.6613H21.6858C23.6169 42.6404 25.0522 41.5134 25.0783 40.0315C25.1044 38.5496 23.6952 37.4226 21.7641 37.3391C17.406 37.1513 13.9875 35.1059 12.8914 31.996C11.6388 28.3853 13.6743 24.858 18.0062 23.2718C18.5282 23.0839 18.7891 22.8752 18.8413 22.3743C18.9457 21.0803 20.0678 20.2037 21.5553 20.1202C23.095 20.0367 24.2432 20.809 24.6607 22.1239C24.7129 22.3326 25.0261 22.583 25.287 22.6248C26.9833 22.9587 27.9488 23.9188 27.7923 25.1919C27.6357 26.4025 26.4614 27.2373 24.7912 27.3C24.1823 27.3139 23.5734 27.3092 22.9645 27.3046C22.66 27.3023 22.3556 27.3 22.0511 27.3C19.8852 27.3208 18.3977 28.427 18.3977 29.9715C18.4238 31.4951 19.8852 32.5804 21.9728 32.643C26.1482 32.7683 29.6451 34.9806 30.6367 38.1531C31.7588 41.6595 29.5668 45.2494 25.4436 46.7521C25.1044 46.8773 24.739 47.2113 24.6868 47.4826C24.452 48.9018 23.4342 49.7993 21.8946 49.8619C20.3288 49.9245 19.2067 49.1523 18.8152 47.733C18.8152 47.6635 18.792 47.5939 18.7688 47.5243C18.7572 47.4895 18.7456 47.4548 18.7369 47.42ZM37.8916 12.3978C37.8916 13.6919 39.1964 14.7145 40.8144 14.7145C42.4062 14.6937 43.7371 13.6501 43.7371 12.377C43.7371 11.1038 42.354 10.0185 40.7883 10.0394C39.1964 10.0394 37.8916 11.1247 37.8916 12.3978ZM28.2362 14.7145C26.6444 14.7145 25.3396 13.6918 25.3135 12.3978C25.3135 11.1038 26.5922 10.0602 28.184 10.0393C29.7759 10.0185 31.1851 11.1455 31.159 12.4187C31.159 13.671 29.8281 14.7145 28.2362 14.7145ZM12.7347 12.4396C12.7608 13.6919 14.1178 14.7354 15.7097 14.7146C17.3276 14.6937 18.5803 13.671 18.5803 12.377C18.5803 11.0829 17.2754 10.0185 15.6836 10.0394C14.0917 10.0394 12.7086 11.1664 12.7347 12.4396Z" fill="#00A092"/>
</svg>
