<svg width="49" height="48" viewBox="0 0 49 48" fill="none" xmlns="http://www.w3.org/2000/svg">
<path d="M15.0228 42.5528C18.2844 41.7814 20.3465 39.6161 22.4355 37.3154C22.1525 37.2343 21.9368 37.1666 21.7212 37.1125C18.8505 36.3817 16.2088 35.1366 13.7828 33.445C12.2868 32.4029 11.0603 31.0902 10.1304 29.4933C10.0091 29.2903 9.91472 29.0738 9.82037 28.8573C9.79342 28.8031 9.79342 28.7355 9.76646 28.546C10.683 28.8302 11.5455 29.1009 12.3946 29.3715C12.4216 29.3445 12.4351 29.3309 12.462 29.3039C12.3677 29.2227 12.2868 29.1415 12.1925 29.0738C11.0873 28.3565 10.0091 27.6122 8.89041 26.9356C7.61003 26.1507 6.26226 25.474 5.02231 24.662C3.36455 23.5658 2.19199 22.0231 1.34289 20.2367C1.30246 20.1555 1.28898 20.0743 1.2755 19.9931C1.26202 19.9525 1.2755 19.8984 1.2755 19.7766C2.65023 20.372 3.93061 21.2111 5.52098 21.0622C2.39415 19.2623 0.45336 16.7452 0.588138 12.9559C1.92243 14.431 3.22977 15.8926 4.53711 17.3541C4.56407 17.3271 4.6045 17.2865 4.63145 17.2594C4.09235 16.2038 3.45889 15.1753 3.05456 14.0656C2.65023 12.9559 2.38067 11.7514 2.2459 10.5741C2.11112 9.39668 2.21894 8.19224 2.21894 7.00133C2.28633 6.98779 2.35372 6.98779 2.40763 6.97426C3.04108 8.40877 3.67453 9.84328 4.30799 11.2913C4.37538 11.2913 4.44276 11.2778 4.51015 11.2778C4.4832 8.6659 4.76623 6.10814 5.96575 3.76692C6.01966 3.76692 6.07357 3.76692 6.12748 3.78045C6.12748 4.36237 6.15444 4.93076 6.12748 5.51269C5.97923 8.36817 7.07092 10.8041 8.70173 13.0236C9.79342 14.4987 11.1412 15.7302 12.5968 16.8399C14.5106 18.3015 16.6536 19.3706 18.7965 20.4262C20.7912 21.4005 22.5433 22.7268 24.1876 24.2154C25.185 25.1221 26.2228 25.9747 27.2471 26.8544C27.5301 27.098 27.8131 27.3686 28.1366 27.6664C28.6622 26.4484 29.1474 25.3116 29.6326 24.1613C30.8052 21.4276 32.5708 19.127 34.7542 17.1376C36.4928 15.5542 38.2584 14.025 39.997 12.4552C42.3556 10.3169 43.8247 7.66445 44.2964 4.4977C44.4716 3.37446 44.3907 2.19708 44.4312 1.0603C44.4312 0.870836 44.4312 0.66784 44.4986 0.464844C45.3476 2.41361 45.5903 4.47064 45.7924 6.60887C46.628 4.9037 47.4502 3.19853 48.2858 1.47983C48.3532 1.49336 48.4206 1.50689 48.4745 1.52042C48.3801 3.26619 48.3667 5.01196 48.1645 6.7442C47.9623 8.4629 47.5715 10.1545 47.2615 11.792C47.6793 11.1425 48.1645 10.3981 48.7306 9.54555C48.771 11.2101 48.7171 12.7123 48.0162 14.1333C47.3289 15.5407 46.2237 16.5963 45.0242 17.6383C45.6846 17.7737 46.2102 17.5436 46.7224 17.2865C47.2211 17.0429 47.6793 16.7452 48.2588 16.4068C48.2049 16.664 48.178 16.8399 48.1241 17.0023C47.3963 18.9781 46.2641 20.6833 44.5659 21.9419C43.5282 22.7268 42.423 23.417 41.3987 24.2019C40.7518 24.7026 40.2935 25.0139 40.2666 25.7041C40.6978 25.5552 41.1157 25.4199 41.6143 25.2575C40.7787 28.1265 38.5684 29.8858 36.641 31.9428C36.8297 32.024 36.978 32.0781 37.1262 32.1458C38.0832 32.5383 38.8918 33.1337 39.4444 34.0269C39.8622 34.69 39.9566 35.3938 39.7814 36.1651C39.7274 36.3952 39.8622 36.7065 40.0105 36.9095C40.4687 37.6132 40.5361 38.3304 40.1318 39.0612C39.7409 39.7785 39.094 40.1303 38.2449 40.1845C38.9188 38.9665 38.8918 38.6958 37.9753 38.0462C37.881 38.547 37.7867 39.0206 37.6923 39.5213C37.0858 39.0206 36.5602 38.4252 35.8998 38.0733C35.2259 37.7214 34.4307 37.6267 33.622 37.3966C33.6625 37.5726 33.6625 37.6808 33.7029 37.7756C34.2959 39.2777 34.8485 40.807 35.5224 42.2821C35.765 42.8234 36.2502 43.2835 36.695 43.6895C37.1128 44.0685 37.4093 43.9331 37.571 43.3783C37.6788 42.9858 37.7193 42.5798 37.7866 42.1874C37.854 41.8355 38.0427 41.6866 38.2853 41.7949C38.3392 42.1197 38.4066 42.3768 38.4201 42.634C38.4336 42.9046 38.4336 43.1888 38.3797 43.4459C38.3258 43.676 38.1775 43.8925 38.0697 44.1091C38.0966 44.1497 38.1371 44.1767 38.164 44.2173C38.5279 43.9737 38.9053 43.7301 39.2557 43.473C39.4309 43.3377 39.5657 43.1617 39.7274 43.0129C40.3609 42.431 40.6709 42.4716 41.1156 43.2429C40.873 43.2159 40.6574 43.1753 40.4283 43.1482C40.3878 44.1497 39.3366 44.1361 38.9053 44.8128C39.4175 44.7857 39.8757 44.7451 40.3339 44.7451C41.0348 44.7451 41.3178 45.0699 41.183 45.7872C40.9809 45.3 40.6439 45.3676 40.3205 45.503C39.6331 45.7872 38.9323 45.6924 38.2314 45.5977C37.4632 45.4894 36.7758 45.5977 36.1154 46.0578C35.6841 46.3691 35.2394 46.6668 34.6194 46.5315C34.4846 46.5044 34.242 46.951 34.0668 47.1675C33.7838 46.7886 33.7972 46.4232 34.269 46.1255C34.5655 45.936 34.9159 45.8413 35.2394 45.706C35.4415 45.6248 35.6572 45.5571 35.8324 45.4218C36.2232 45.124 36.2232 44.9346 35.8459 44.6369C34.9159 43.879 33.9859 43.1347 33.056 42.3768C32.9751 42.3092 32.8808 42.255 32.7999 42.2415C31.5734 42.1332 30.8995 41.3212 30.3874 40.3333C30.2796 40.1168 30.1987 39.8191 29.9022 40.0085C29.7404 40.1168 29.5652 40.4416 29.6192 40.604C29.9022 41.6731 30.5222 42.5122 31.4791 43.0535C31.8969 42.9858 31.9778 41.9573 32.5708 42.5798C32.5169 42.8099 32.4764 42.9452 32.4495 43.0805C32.6112 43.1076 32.7864 43.1753 32.9481 43.1617C33.2177 43.1617 33.4873 43.1076 33.7568 43.0805C33.7703 43.1347 33.7838 43.2023 33.7972 43.2565C33.6086 43.3512 33.4199 43.4459 33.1638 43.5813C34.4577 43.6489 34.4577 43.6489 34.5116 44.3391C34.0938 43.9331 33.6894 44.2579 33.2851 44.3121C32.3686 44.4203 31.7352 44.8534 31.3982 45.7601C31.2904 46.0443 30.9939 46.2473 30.7243 46.5586C30.7378 46.5992 30.7782 46.7345 30.8052 46.8833C30.2256 46.6803 30.0909 46.3962 30.3739 45.8819C30.5895 45.4894 30.8726 45.124 31.1287 44.7451C31.3578 44.4068 31.3578 44.1226 30.9265 43.9331C30.2256 43.6219 29.6326 43.1212 28.8105 43.04C28.5005 43.0129 28.2309 42.5934 27.921 42.3227C27.7727 42.5663 27.5705 42.8505 27.4088 43.1753C26.9371 44.1361 26.1419 44.718 25.1445 44.9887C22.0042 45.8548 19.0391 45.3676 16.2762 43.6489C15.818 43.3783 15.481 42.9587 15.0228 42.5528Z" fill="#20113D"/>
</svg>
