<svg width="54" height="51" viewBox="0 0 54 51" fill="none" xmlns="http://www.w3.org/2000/svg">
<path d="M16.3259 45.5594C19.9379 44.7336 22.2215 42.4154 24.535 39.9523C24.2216 39.8654 23.9828 39.793 23.744 39.735C20.5648 38.9526 17.6393 37.6197 14.9527 35.8086C13.2959 34.693 11.9377 33.2876 10.9078 31.5779C10.7735 31.3606 10.669 31.1288 10.5645 30.897C10.5346 30.839 10.5346 30.7666 10.5048 30.5637C11.5197 30.868 12.475 31.1578 13.4153 31.4476C13.4452 31.4186 13.4601 31.4041 13.4899 31.3751C13.3855 31.2882 13.2959 31.2012 13.1914 31.1288C11.9675 30.3609 10.7735 29.564 9.53461 28.8396C8.11666 27.9993 6.62408 27.2748 5.2509 26.4055C3.41503 25.232 2.11648 23.5803 1.17615 21.6678C1.13138 21.5808 1.11645 21.4939 1.10153 21.407C1.0866 21.3635 1.10153 21.3056 1.10153 21.1752C2.62396 21.8127 4.04191 22.711 5.80316 22.5516C2.34037 20.6246 0.191053 17.9297 0.340311 13.8729C1.81797 15.4522 3.26577 17.017 4.71357 18.5817C4.74343 18.5527 4.7882 18.5093 4.81805 18.4803C4.22102 17.3502 3.51951 16.2491 3.07173 15.061C2.62396 13.8729 2.32544 12.5835 2.17619 11.3229C2.02693 10.0624 2.14633 8.77296 2.14633 7.49797C2.22096 7.48348 2.29559 7.48348 2.3553 7.46899C3.05681 9.00478 3.75832 10.5406 4.45983 12.0908C4.53446 12.0908 4.60909 12.0764 4.68372 12.0764C4.65387 9.28006 4.96731 6.54173 6.29571 4.03521C6.35541 4.03521 6.41511 4.03521 6.47482 4.0497C6.47482 4.6727 6.50467 5.28122 6.47482 5.90423C6.31063 8.96131 7.51963 11.5693 9.32565 13.9454C10.5346 15.5246 12.0272 16.8431 13.6392 18.0312C15.7587 19.5959 18.1319 20.7405 20.5051 21.8706C22.7141 22.9138 24.6545 24.3337 26.4754 25.9274C27.5799 26.8981 28.7292 27.8109 29.8636 28.7527C30.177 29.0135 30.4904 29.3032 30.8487 29.622C31.4308 28.318 31.9681 27.101 32.5054 25.8695C33.804 22.9428 35.7593 20.4797 38.1772 18.3499C40.1027 16.6547 42.058 15.0175 43.9834 13.3369C46.5954 11.0477 48.2223 8.20791 48.7447 4.81759C48.9387 3.61504 48.8492 2.35453 48.894 1.1375C48.894 0.934656 48.894 0.717328 48.9686 0.5C49.9089 2.58635 50.1776 4.78861 50.4015 7.0778C51.3269 5.25224 52.2374 3.42669 53.1628 1.58664C53.2374 1.60113 53.312 1.61562 53.3717 1.63011C53.2672 3.49913 53.2523 5.36815 53.0284 7.22269C52.8045 9.06273 52.3717 10.8738 52.0284 12.6269C52.4911 11.9315 53.0284 11.1346 53.6553 10.2218C53.7001 12.0039 53.6404 13.6121 52.8642 15.1334C52.103 16.6402 50.8791 17.7704 49.5507 18.886C50.2821 19.0309 50.8642 18.7846 51.4314 18.5093C51.9836 18.2485 52.4911 17.9297 53.1329 17.5675C53.0732 17.8428 53.0434 18.0311 52.9836 18.205C52.1777 20.3203 50.9239 22.1459 49.0432 23.4933C47.8939 24.3337 46.67 25.0726 45.5357 25.9129C44.8192 26.449 44.3118 26.7822 44.2819 27.5212C44.7595 27.3618 45.2222 27.2169 45.7745 27.043C44.8491 30.1146 42.4012 31.9981 40.2669 34.2004C40.4758 34.2873 40.64 34.3453 40.8042 34.4177C41.8639 34.8379 42.7595 35.4754 43.3714 36.4316C43.8341 37.1416 43.9386 37.895 43.7446 38.7208C43.6849 38.9671 43.8341 39.3003 43.9983 39.5177C44.5058 40.2711 44.5804 41.039 44.1326 41.8214C43.6998 42.5892 42.9834 42.966 42.043 43.0239C42.7893 41.7199 42.7595 41.4302 41.7445 40.7347C41.64 41.2708 41.5355 41.7779 41.4311 42.314C40.7594 41.7779 40.1773 41.1404 39.4459 40.7637C38.6996 40.387 37.819 40.2856 36.9235 40.0393C36.9683 40.2276 36.9683 40.3435 37.013 40.4449C37.6698 42.0532 38.2817 43.6904 39.028 45.2696C39.2967 45.8492 39.834 46.3418 40.3266 46.7764C40.7893 47.1821 41.1176 47.0372 41.2967 46.4432C41.4161 46.023 41.4609 45.5884 41.5355 45.1682C41.6102 44.7915 41.8191 44.6321 42.0878 44.748C42.1475 45.0958 42.2221 45.3711 42.2371 45.6463C42.252 45.9361 42.252 46.2404 42.1923 46.5156C42.1326 46.762 41.9684 46.9938 41.849 47.2256C41.8788 47.269 41.9236 47.298 41.9535 47.3415C42.3565 47.0807 42.7744 46.8199 43.1625 46.5446C43.3565 46.3997 43.5058 46.2114 43.6849 46.052C44.3864 45.429 44.7297 45.4725 45.2222 46.2983C44.9536 46.2693 44.7147 46.2259 44.461 46.1969C44.4162 47.2691 43.252 47.2546 42.7744 47.979C43.3416 47.95 43.8491 47.9065 44.3565 47.9065C45.1327 47.9065 45.4461 48.2543 45.2969 49.0222C45.073 48.5006 44.6998 48.573 44.3416 48.7179C43.5804 49.0222 42.8042 48.9207 42.0281 48.8193C41.1773 48.7034 40.4161 48.8193 39.6847 49.3119C39.2071 49.6452 38.7146 49.9639 38.028 49.819C37.8787 49.7901 37.6101 50.2682 37.416 50.5C37.1026 50.0943 37.1175 49.7031 37.6399 49.3844C37.9683 49.1815 38.3563 49.0801 38.7146 48.9352C38.9385 48.8483 39.1773 48.7759 39.3713 48.631C39.8042 48.3122 39.8042 48.1094 39.3862 47.7906C38.3563 46.9793 37.3265 46.1824 36.2966 45.371C36.207 45.2986 36.1026 45.2407 36.013 45.2262C34.6547 45.1103 33.9085 44.2409 33.3413 43.1833C33.2219 42.9515 33.1323 42.6327 32.8039 42.8356C32.6248 42.9515 32.4308 43.2992 32.4905 43.4731C32.804 44.6176 33.4905 45.5159 34.5503 46.0955C35.013 46.023 35.1025 44.9219 35.7593 45.5884C35.6996 45.8347 35.6548 45.9796 35.6249 46.1245C35.804 46.1534 35.9981 46.2259 36.1772 46.2114C36.4757 46.2114 36.7742 46.1534 37.0727 46.1245C37.0877 46.1824 37.1026 46.2549 37.1175 46.3128C36.9086 46.4142 36.6996 46.5156 36.416 46.6605C37.8489 46.733 37.8489 46.733 37.9086 47.4719C37.4459 47.0372 36.9981 47.385 36.5503 47.4429C35.5354 47.5588 34.8339 48.0225 34.4607 48.9932C34.3413 49.2974 34.0129 49.5148 33.7144 49.848C33.7293 49.8915 33.7741 50.0364 33.804 50.1957C33.1622 49.9784 33.0129 49.6742 33.3264 49.1236C33.5652 48.7034 33.8786 48.3122 34.1622 47.9065C34.4159 47.5443 34.4159 47.2401 33.9383 47.0372C33.1622 46.704 32.5054 46.1679 31.595 46.081C31.2517 46.052 30.9531 45.6029 30.6099 45.3131C30.4457 45.5739 30.2218 45.8782 30.0427 46.2259C29.5203 47.2546 28.6396 47.8776 27.5351 48.1673C24.0574 49.0946 20.7737 48.573 17.714 46.733C17.2065 46.4432 16.8333 45.9941 16.3259 45.5594Z" fill="#F58021"/>
</svg>
