<svg width="48" height="48" viewBox="0 0 48 48" fill="none" xmlns="http://www.w3.org/2000/svg">
<rect width="48" height="48" rx="5" fill="#F58021"/>
<path fill-rule="evenodd" clip-rule="evenodd" d="M37.7397 21.2624C39.5346 20.0607 40.716 18.0164 40.716 15.6966C40.716 11.9982 37.7132 9 34.009 9C31.6396 9 29.5571 10.2267 28.364 12.0788C32.7081 13.5697 36.1661 16.9631 37.7397 21.2624ZM10.9764 21.2627C9.18147 20.061 8 18.0167 8 15.6968C8 11.9984 11.0028 9.00024 14.707 9.00024C17.0765 9.00024 19.1589 10.227 20.352 12.0791C16.008 13.57 12.55 16.9634 10.9764 21.2627ZM21.9903 24.158C22.4937 22.7292 21.5045 21.2886 20.0237 21.2886C19.3272 21.2886 18.7419 21.585 18.3029 22.1067C17.9401 22.5395 17.6416 23.0316 17.3606 23.5237C17.0153 24.1284 16.5471 24.5374 15.8681 24.7034C15.8123 24.7173 15.7559 24.7306 15.6994 24.7439C15.4415 24.8047 15.1796 24.8665 14.9492 24.988C14.6565 25.1422 14.3405 25.3378 14.1532 25.6046C13.5386 26.4583 13.3806 27.4247 13.6557 28.4444C14.042 29.8613 14.8438 30.9285 16.2778 31.3731C17.4426 31.7348 18.4024 31.1834 18.7653 30.0095C18.8356 29.7961 18.8882 29.5767 18.9292 29.3515C19.0638 28.6282 19.2687 27.9227 19.6784 27.312C19.9652 26.8852 20.2988 26.4879 20.6441 26.1026C20.6855 26.056 20.727 26.0096 20.7685 25.9631L20.7686 25.9631C21.2556 25.4181 21.7422 24.8736 21.9903 24.158ZM33.0518 31.0826C34.3746 30.2645 35.0067 29.0373 35.0828 27.4958L35.0829 27.4812L35.0835 27.4462V27.4461C35.0846 27.3961 35.0857 27.3461 35.0769 27.3061C34.995 26.3753 34.7316 25.5513 33.8361 25.1066C33.5259 24.9525 33.1923 24.828 32.8586 24.745C32.1036 24.5612 31.5476 24.158 31.2081 23.4288C30.8979 22.747 30.4765 22.1423 29.8561 21.7095C28.4806 20.7491 26.6955 21.5495 26.5023 23.2154C26.4379 23.7786 26.6018 24.3063 26.912 24.7568C27.2515 25.2548 27.6319 25.735 28.0534 26.1678C28.8845 27.0156 29.4112 28.0057 29.6512 29.1677C29.7332 29.5708 29.8385 29.974 29.9848 30.3593C30.2248 30.9759 30.6989 31.3257 31.3427 31.4443C31.9631 31.5569 32.5309 31.4028 33.0518 31.0826ZM24.3316 31.5035C24.5075 31.5335 24.6838 31.5618 24.8601 31.5901L24.8602 31.5901C25.3467 31.6681 25.833 31.7461 26.3099 31.8593C26.6025 31.9304 26.8952 32.0905 27.141 32.2743C27.9487 32.8671 28.0131 34.0173 27.2698 34.6931C27.0411 34.9015 26.7661 35.0557 26.492 35.2093L26.492 35.2093C26.4152 35.2523 26.3386 35.2953 26.2631 35.3393C26.1328 35.4165 25.9973 35.4854 25.8619 35.5542C25.6749 35.6492 25.488 35.7441 25.3149 35.8611C24.8232 36.1931 24.6945 36.6318 24.8583 37.2661C24.9988 37.8056 25.3851 38.1436 25.9411 38.2029C26.6201 38.2681 27.2288 38.0487 27.8141 37.7286C27.858 37.7048 27.9004 37.6811 27.9429 37.6574L27.943 37.6573C27.9854 37.6336 28.0278 37.61 28.0716 37.5863C28.3233 37.444 28.534 37.4796 28.6628 37.6811C28.7857 37.8768 28.7271 38.0961 28.493 38.2621C27.5449 38.9439 26.4972 39.3767 25.35 39.5368C23.4829 39.7976 21.768 39.3826 20.2111 38.2977C20.1058 38.2206 19.9711 38.108 19.9536 38.0013C19.936 37.8708 19.9887 37.6574 20.0823 37.5922C20.1936 37.5151 20.3984 37.5151 20.533 37.5685C20.7584 37.6531 20.9786 37.7484 21.1985 37.8435L21.1985 37.8435L21.1985 37.8436C21.441 37.9486 21.6832 38.0534 21.9319 38.1436C22.1075 38.2088 22.3182 38.2088 22.5113 38.2088C23.4771 38.2028 23.8751 37.5033 23.8341 36.6614C23.8165 36.2998 23.6058 36.033 23.3132 35.8492C23.134 35.7381 22.9433 35.6385 22.7527 35.5389L22.7526 35.5389C22.6382 35.4791 22.5238 35.4194 22.4118 35.3571C22.3374 35.3163 22.2617 35.2767 22.1858 35.237C21.9755 35.127 21.7641 35.0163 21.5748 34.8769C20.5389 34.118 20.615 32.7663 21.7212 32.1142C22.3065 31.7703 22.962 31.6577 23.6292 31.6043C23.7463 31.5954 23.8633 31.5895 23.9804 31.5836C24.0975 31.5776 24.2145 31.5717 24.3316 31.5628C24.3276 31.5508 24.329 31.536 24.3304 31.5222C24.3307 31.5184 24.3311 31.5148 24.3313 31.5113C24.3315 31.5086 24.3316 31.506 24.3316 31.5035Z" fill="black"/>
</svg>
