<svg width="80" height="80" viewBox="0 0 80 80" fill="none" xmlns="http://www.w3.org/2000/svg">
<path d="M6.66732 68H9.33398C10.0673 68 10.6673 67.4 10.6673 66.6667C10.6673 65.9333 10.0673 65.3333 9.33398 65.3333H6.66732C5.93398 65.3333 5.33398 65.9333 5.33398 66.6667C5.33398 67.4 5.93398 68 6.66732 68Z" fill="#00A092"/>
<path d="M70.6673 68H73.334C74.0673 68 74.6673 67.4 74.6673 66.6667C74.6673 65.9333 74.0673 65.3333 73.334 65.3333H70.6673C69.934 65.3333 69.334 65.9333 69.334 66.6667C69.334 67.4 69.934 68 70.6673 68Z" fill="#00A092"/>
<path d="M6.66732 76.0001H9.33398C10.0673 76.0001 10.6673 75.4001 10.6673 74.6667C10.6673 73.9334 10.0673 73.3334 9.33398 73.3334H6.66732C5.93398 73.3334 5.33398 73.9334 5.33398 74.6667C5.33398 75.4001 5.93398 76.0001 6.66732 76.0001Z" fill="#00A092"/>
<path d="M38.6673 68H41.334C42.0673 68 42.6673 67.4 42.6673 66.6667C42.6673 65.9333 42.0673 65.3333 41.334 65.3333H38.6673C37.934 65.3333 37.334 65.9333 37.334 66.6667C37.334 67.4 37.934 68 38.6673 68Z" fill="#00A092"/>
<path d="M38.6673 76.0001H41.334C42.0673 76.0001 42.6673 75.4001 42.6673 74.6667C42.6673 73.9334 42.0673 73.3334 41.334 73.3334H38.6673C37.934 73.3334 37.334 73.9334 37.334 74.6667C37.334 75.4001 37.934 76.0001 38.6673 76.0001Z" fill="#00A092"/>
<path d="M70.6673 76.0001H73.334C74.0673 76.0001 74.6673 75.4001 74.6673 74.6667C74.6673 73.9334 74.0673 73.3334 73.334 73.3334H70.6673C69.934 73.3334 69.334 73.9334 69.334 74.6667C69.334 75.4001 69.934 76.0001 70.6673 76.0001Z" fill="#00A092"/>
<path d="M21.9336 41.4167C21.6669 40.7334 20.9002 40.3834 20.2002 40.6667L17.7169 41.6334C17.0336 41.9 16.6836 42.6667 16.9669 43.3667C17.2336 44.05 18.0002 44.4 18.7002 44.1167L21.1836 43.15C21.8669 42.8667 22.2002 42.1 21.9336 41.4167Z" fill="#00A092"/>
<path d="M78.3 32.0167C78.65 28.7167 76.4 25.7 73.1333 25.1C69.7 19.8667 62.6667 18.4167 57.45 21.8667C56.1667 22.7167 55.0667 23.8167 54.2167 25.1C53.4667 25.2333 52.75 25.5 52.1 25.9L57.2667 12.4833C57.5333 11.8 57.1833 11.0167 56.5 10.7667C56.4833 10.7667 56.4667 10.75 56.45 10.75L52.45 9.41667C51.7667 9.18333 51.0333 9.53333 50.7833 10.2L49.3333 13.8833V1.33333C49.3333 0.6 48.7333 0 48 0H42.6667C41.9333 0 41.3333 0.6 41.3333 1.33333V13.8833L39.9167 10.1833C39.6667 9.51667 38.9333 9.16667 38.25 9.4L34.25 10.7333C33.55 10.9667 33.1667 11.7167 33.4 12.4167C33.4 12.4333 33.4167 12.45 33.4167 12.4667L39.1333 27.3167C39.7 28.8 40 30.3833 40 31.9833V33.4833C39.55 33.65 39.1333 33.85 38.7167 34.1L38.2667 33.2C37.0833 30.8167 34.6667 29.3167 32 29.3333H28.8333C28.1 29.3333 27.5 29.9333 27.5 30.6667C27.5 30.8667 27.55 31.0833 27.6333 31.2667L28.7333 33.4667C29.9167 35.85 32.3333 37.35 35 37.3333H35.3667C34.8667 38.1333 34.5 39 34.2667 39.9C32.2167 37.8333 28.8833 37.8 26.8167 39.8333C26.6667 39.9833 26.5333 40.1333 26.4 40.3L26.0833 40.6833C25.7667 41.0667 25.5 41.4833 25.25 41.9L24.0667 37.8C23.5 35.8667 22.2833 34.2 20.6333 33.0667C23.0333 31.2667 23.9333 28.1 22.8333 25.3167C21.7167 22.5167 18.8833 20.8 15.8833 21.1167C12.5 18.25 7.45 18.65 4.58333 22C3.55 23.2 2.91667 24.6833 2.71667 26.25C0.3 28.05 -0.616667 31.2333 0.45 34.05C1.53333 36.85 4.35 38.5667 7.33333 38.2667C6.88333 40.2333 7.11667 42.2833 8.01667 44.0833L12.6333 53.3333H1.33333C0.6 53.3333 0 53.9333 0 54.6667V78.6667C0 79.4 0.6 80 1.33333 80H78.6667C79.4 80 80 79.4 80 78.6667V54.6667C80 53.9333 79.4 53.3333 78.6667 53.3333H70.3167C70.4667 52.4 70.7833 51.4833 71.2333 50.65C71.3667 50.65 71.5167 50.6667 71.6667 50.6667C76.0833 50.6667 79.6667 47.0833 79.6667 42.6667C79.6667 41.6333 79.4667 40.6 79.0667 39.6333C80.55 37.2 80.2333 34.0833 78.3 32.0167ZM63.7667 51.1C63.5667 50.1667 63.25 49.25 62.8167 48.3833C63.1 48.25 63.3833 48.1 63.65 47.9333C63.9833 48.1333 64.3167 48.3 64.6667 48.4667C64.2667 49.3 63.9667 50.1833 63.7667 51.1ZM60.25 49.2167C60.9667 50.4667 61.3333 51.8833 61.3333 53.3333H59.9167C59.7667 52.1667 59.45 51.0333 58.9333 49.9667C59.4 49.7667 59.8333 49.5167 60.25 49.2167ZM56.3 50.65C56.7667 51.4833 57.0833 52.4 57.2333 53.3333H53.2667C53.0667 52.4167 52.6833 51.5667 52.1333 50.8333L50.7167 48.9333C52.1333 50.0667 53.8833 50.6667 55.6833 50.6667C55.8833 50.6667 56.0833 50.6667 56.3 50.65ZM45.15 52.25C46.8333 49.55 47.1333 46.2 45.95 43.25L47.8 38.7C47.9333 39.0167 48.0833 39.3333 48.2667 39.6333C47.5667 41.3167 47.4833 43.2 48 44.95V49.3333C48 49.6167 48.1 49.9 48.2667 50.1333L49.9833 52.4333C50.1833 52.7167 50.3667 53.0167 50.4833 53.3333H44.4667L45.15 52.25ZM52.7833 12.3333L54.25 12.8167L49.0333 26.3667C48.4667 27.85 48.1167 29.4333 48.0167 31.0167L44.2167 40.3833L44.15 40.3C43.7333 39.7833 43.2333 39.35 42.65 39.0167V37L52.7833 12.3333ZM44 20.6667V2.66667H46.6667V20.3C46.6667 20.4333 46.6833 20.55 46.7167 20.6667L45.3333 24.2833L44 20.8C44 20.75 44 20.7167 44 20.6667ZM36.4167 12.8167L37.8833 12.3333L43.3167 26.45C43.5333 27 43.6833 27.5667 43.8 28.15L42.6167 30.7333C42.5 29.2333 42.1667 27.7667 41.6333 26.3667L36.4167 12.8167ZM40 36.7333V38.3333C39.1167 38.3333 38.25 38.5667 37.4667 39C38.0667 37.9333 38.9333 37.05 40 36.45V36.7333ZM31.1333 32.2667L31 32H32C33.65 32 35.15 32.9167 35.8833 34.4L36.0167 34.6667H35.0167C33.3667 34.6667 31.85 33.75 31.1333 32.2667ZM28.15 42.3667L28.4667 41.9833C29.3667 40.8667 31 40.6833 32.1333 41.5833C32.35 41.75 32.5167 41.95 32.6667 42.1667C33.6333 43.6 35.5667 44 37.0167 43.0333C37.3667 42.8 37.65 42.5167 37.8833 42.1667C38.5333 41.1833 39.7833 40.7667 40.9 41.15C40.9 41.15 40.9167 41.15 40.9167 41.1667C41.3667 41.3333 41.7667 41.6167 42.0667 42L42.3833 42.3833C44.3333 44.8167 44.5167 48.2167 42.8833 50.85L41.3167 53.35H29.2167L27.65 50.85C26.0167 48.2 26.2167 44.8 28.15 42.3667ZM23.9 46.4333C23.9 46.4167 23.9 46.4167 23.8833 46.4L23.9 46.4333ZM2.95 33.0833C2.23333 31.25 2.96667 29.1667 4.66667 28.1667C5.06667 27.9333 5.31667 27.5167 5.33333 27.05C5.41667 24.1 7.88333 21.7833 10.8167 21.8667C12.2 21.9 13.5167 22.4833 14.4833 23.4667C14.8 23.8 15.2833 23.9333 15.7333 23.8333C17.6667 23.4167 19.6 24.45 20.3333 26.2833C21.1333 28.3333 20.1333 30.65 18.0833 31.45C17.8 31.5667 17.4833 31.65 17.1833 31.6833C17.1333 31.6833 17.0833 31.6667 17.05 31.6667C17.3333 30.35 17.95 29.1333 18.85 28.15C19.35 27.6 19.3167 26.7667 18.7667 26.2667C18.2167 25.7667 17.3833 25.8 16.8833 26.35L16.8667 26.3667C15.6167 27.7667 14.75 29.4833 14.4 31.3167C14.1833 31.3333 13.9833 31.4 13.8 31.5333L11.9167 26.7167C11.65 26.0333 10.8833 25.6833 10.1833 25.9667C9.5 26.2333 9.15 27 9.43333 27.7L11.3 32.5C11.0833 32.5333 10.8833 32.6167 10.7167 32.75C9.2 31.6333 7.41667 30.95 5.55 30.7833C4.81667 30.7167 4.16667 31.25 4.1 31.9833C4.03333 32.7167 4.56667 33.3667 5.3 33.4333C6.63333 33.5667 7.91667 34.0333 9 34.8C8.96667 34.8333 8.95 34.8833 8.91667 34.9167C7.1 36.1667 4.61667 35.7167 3.36667 33.9C3.2 33.65 3.05 33.3667 2.95 33.0833ZM14.65 51.4167L16.9 50.5333C17.5833 50.2667 17.9333 49.5 17.6667 48.8167C17.4 48.1333 16.6333 47.7833 15.95 48.05C15.95 48.05 15.95 48.05 15.9333 48.05L13.45 49.0167L12.25 46.6167L13.7167 46.05C14.4 45.7833 14.75 45.0167 14.4667 44.3167C14.1833 43.6167 13.4333 43.2833 12.7333 43.5667L11.05 44.2333L10.3833 42.9C9.63333 41.4 9.55 39.65 10.15 38.0833C10.3167 37.65 10.5333 37.25 10.7833 36.8667C11.2833 36.4667 11.7167 36.0167 12.0833 35.5C12.5333 35.1667 13.0167 34.8833 13.55 34.6833C14.0667 34.4833 14.6167 34.35 15.1833 34.3C15.8 34.4333 16.4333 34.4833 17.0667 34.4333C17.5167 34.5333 17.95 34.7 18.3667 34.9C19.8833 35.6333 21 36.9833 21.4667 38.6L23.5833 45.9333C23.6 45.9667 23.6 45.9833 23.6167 46.0167C23.25 45.6 22.65 45.45 22.1333 45.65L20.8833 46.1333C20.2 46.4 19.85 47.1667 20.1333 47.8667C20.4 48.55 21.1667 48.9 21.8667 48.6167L23.1167 48.1333C23.4833 48 23.75 47.7 23.8833 47.3333C23.95 49.0833 24.4667 50.7833 25.4 52.2667L26.0833 53.35H15.6167L14.65 51.4167ZM77.3333 69.3333H2.66667V64H77.3333V69.3333ZM77.3333 77.3333H2.66667V72H77.3333V77.3333ZM77.3333 61.3333H2.66667V56H77.3333V61.3333ZM67.6167 53.3333H66.2C66.2 51.9333 66.55 50.55 67.2333 49.3333C67.65 49.6167 68.1 49.85 68.5667 50.05C68.0833 51.0833 67.7667 52.2 67.6167 53.3333ZM76.5 38.65C76.15 39.0667 76.1 39.65 76.35 40.1333C77.75 42.7333 76.7833 45.9667 74.1833 47.3667C73.4 47.7833 72.5333 48 71.65 48C70.4667 48 69.3167 47.6 68.3833 46.8833C68.2 46.7333 67.9667 46.65 67.7333 46.6167C66.55 46.4667 65.4167 46 64.45 45.2833C63.9833 44.9333 63.3167 44.9333 62.85 45.2833C61.8833 46 60.7667 46.4667 59.5667 46.6167C59.3333 46.65 59.1 46.7333 58.9167 46.8833C57.9833 47.6167 56.8333 48.0167 55.65 48C52.7 48 50.3167 45.6167 50.3167 42.6667C50.3167 41.7833 50.5333 40.9167 50.95 40.1333C51.2 39.65 51.15 39.0667 50.8 38.65C49.8333 37.4667 49.7 35.8 50.4667 34.4833C50.6833 34.1167 50.95 33.8 51.2833 33.5167C51.6667 33.2 51.85 32.6833 51.7333 32.1833C51.2667 30.2167 52.4833 28.2333 54.45 27.7667C54.65 27.7167 54.85 27.6833 55.05 27.6667C55.5 27.6333 55.9 27.3833 56.1167 27C58.5 22.85 63.8 21.4167 67.95 23.8C69.2833 24.5667 70.3833 25.6667 71.15 27C71.3667 27.3833 71.7667 27.6333 72.2167 27.6667C74.2333 27.8 75.7667 29.55 75.6333 31.5667C75.6167 31.7667 75.5833 31.9667 75.5333 32.1667C75.4167 32.6667 75.5833 33.1667 75.9833 33.5C76.8167 34.2 77.3 35.2333 77.3 36.3167C77.3333 37.1833 77.05 38 76.5 38.65Z" fill="#00A092"/>
<path d="M63.6666 25.3333C61.3999 25.3333 59.3999 26.7667 58.6332 28.8833C58.3832 29.5833 58.7499 30.3333 59.4499 30.5833C60.1499 30.8333 60.8999 30.4667 61.1499 29.7667C61.6499 28.3833 63.1666 27.65 64.5499 28.15C65.3166 28.4167 65.8999 29.0167 66.1666 29.7667C66.4166 30.4667 67.1666 30.8167 67.8666 30.5833C68.5666 30.3333 68.9166 29.5833 68.6832 28.8833C67.9332 26.7667 65.9332 25.3333 63.6666 25.3333Z" fill="#00A092"/>
<path d="M57 34.6666C57.7333 34.6666 58.3333 34.0666 58.3333 33.3333C58.3333 32.5999 57.7333 31.9999 57 31.9999C54.7833 31.9999 53 33.7833 53 35.9999C53 38.2166 54.7833 39.9999 57 39.9999C57.7333 39.9999 58.3333 39.3999 58.3333 38.6666C58.3333 37.9333 57.7333 37.3333 57 37.3333C56.2667 37.3333 55.6667 36.7333 55.6667 35.9999C55.6667 35.2666 56.2667 34.6666 57 34.6666Z" fill="#00A092"/>
<path d="M9.33398 57.3333H6.66732C5.93398 57.3333 5.33398 57.9333 5.33398 58.6666C5.33398 59.4 5.93398 60 6.66732 60H9.33398C10.0673 60 10.6673 59.4 10.6673 58.6666C10.6673 57.9333 10.0673 57.3333 9.33398 57.3333Z" fill="#00A092"/>
<path d="M70.6673 60H73.334C74.0673 60 74.6673 59.4 74.6673 58.6666C74.6673 57.9333 74.0673 57.3333 73.334 57.3333H70.6673C69.934 57.3333 69.334 57.9333 69.334 58.6666C69.334 59.4 69.934 60 70.6673 60Z" fill="#00A092"/>
<path d="M41.334 57.3333H38.6673C37.934 57.3333 37.334 57.9333 37.334 58.6666C37.334 59.4 37.934 60 38.6673 60H41.334C42.0673 60 42.6673 59.4 42.6673 58.6666C42.6673 57.9333 42.0673 57.3333 41.334 57.3333Z" fill="#00A092"/>
<path d="M31.4337 50.6666C32.1671 50.6666 32.7671 50.0666 32.7671 49.3333C32.7671 48.9833 32.6337 48.6333 32.3837 48.3833C32.0004 48 31.9004 47.4 32.1504 46.9L32.6337 45.9166C32.9504 45.25 32.6837 44.45 32.0171 44.1333C31.3671 43.8166 30.5671 44.0833 30.2504 44.7166L29.7671 45.7C29.0004 47.2166 29.3004 49.05 30.5004 50.2666C30.7337 50.5333 31.0837 50.6666 31.4337 50.6666Z" fill="#00A092"/>
</svg>
