<svg width="56" height="48" viewBox="0 0 56 48" fill="none" xmlns="http://www.w3.org/2000/svg">
<path fill-rule="evenodd" clip-rule="evenodd" d="M38.8261 21.1612L38.8276 21.1642C39.3305 22.2017 39.8334 23.2392 40.3546 24.3226C40.2226 24.427 40.0889 24.5348 39.9532 24.6442L39.9531 24.6442C39.6466 24.8914 39.3299 25.1466 39 25.3887C38.6334 25.6562 38.2698 25.9275 37.9064 26.1987L37.9062 26.1988C37.0087 26.8685 36.1123 27.5374 35.1742 28.1458C31.7969 30.3422 28.0717 31.2337 24.0629 30.8845C23.0835 30.8018 22.0493 30.4617 21.6374 30.1768C21.8751 28.525 22.1035 26.9189 22.332 25.313L22.333 25.306C22.3056 25.2968 22.2759 25.2899 22.2462 25.283L22.2461 25.283C22.2163 25.2761 22.1866 25.2692 22.1591 25.26C22.0699 25.4418 21.9815 25.6236 21.8931 25.8051C21.6733 26.2569 21.4541 26.7074 21.2256 27.1532C20.632 28.3308 20.234 29.5814 19.8351 30.8347L19.8351 30.8347C19.7235 31.1855 19.6118 31.5365 19.4957 31.8862C18.7635 34.0643 17.4547 35.7369 15.2306 36.5548C15.1207 36.6008 15.0292 36.7846 14.9834 36.9225C14.8938 37.2083 14.8141 37.4974 14.7344 37.7863C14.6271 38.1756 14.5199 38.5645 14.3885 38.9443C13.8851 40.4148 12.9424 41.5544 11.6702 42.4274C11.1027 42.8134 10.5352 43.2086 9.99524 43.6313C9.52846 43.9898 9.54676 44.146 10.0044 44.5044C10.0939 44.5746 10.184 44.6437 10.2738 44.7127C10.5605 44.9327 10.8449 45.151 11.1027 45.3959C11.5237 45.8003 11.7159 46.3149 11.5603 46.9031C11.5237 47.0409 11.3132 47.2247 11.1851 47.2247C8.18301 47.2431 5.17179 47.2431 2.16972 47.2339C2.05988 47.2339 1.90429 47.1972 1.84022 47.1236C1.74826 47.0112 1.65412 46.8993 1.5597 46.787L1.55966 46.7869C1.22181 46.3851 0.880435 45.9791 0.622918 45.5337C0.45817 45.2488 0.439864 44.7709 0.549696 44.4493C1.6114 41.2051 2.97515 38.1264 5.54705 35.7645C5.65688 35.6634 5.72095 35.4428 5.7301 35.2866C5.79417 32.9523 6.06875 30.6363 6.66367 28.3847C7.17622 26.4364 7.72538 24.488 8.69556 22.6959C10.4803 19.4242 12.7868 16.6947 16.3289 15.2243C19.3767 13.9652 22.3513 14.1582 25.2527 15.647C25.651 15.8532 26.0113 16.136 26.3622 16.4114C26.5273 16.541 26.6904 16.669 26.8544 16.7866C26.5249 16.0698 25.9483 15.4816 25.3259 14.9394C25.9121 14.7155 26.5004 14.4988 27.0876 14.2825C29.6825 13.3268 32.2571 12.3785 34.5335 10.8497C34.6337 11.1998 34.7322 11.5534 34.8311 11.909L34.8313 11.9095C34.9583 12.3659 35.0863 12.8255 35.22 13.2851C35.2566 13.3954 35.3298 13.4965 35.4213 13.5884C35.2383 12.4488 35.2383 11.3092 35.6685 10.2615C36.0712 9.26897 36.5563 8.26723 37.1786 7.40335C38.7071 5.30797 40.5468 3.4883 42.597 1.89838L42.5971 1.89828C42.6795 1.83398 42.7618 1.76968 42.8533 1.70538C43.0003 1.61119 43.1459 1.51083 43.2918 1.41025L43.2919 1.41021C44.0003 0.92203 44.7159 0.428861 45.6265 0.611744C47.1276 0.905832 48.3815 1.69619 49.2418 2.99202C49.489 3.35963 49.7727 3.61696 50.1663 3.75481C51.1914 4.11323 51.9602 4.72898 52.4544 5.73072C52.6336 6.09673 52.892 6.42086 53.1508 6.74551C53.2754 6.90182 53.4001 7.05825 53.5161 7.21954C53.7541 7.55039 53.7999 7.8261 53.5345 8.21209C53.3148 8.53375 53.205 8.96569 53.1409 9.36087C53.0585 9.82958 53.2416 10.1329 53.7358 10.3902C55.0263 11.0519 55.7769 12.5315 55.0629 14.0295C54.944 14.2777 54.8341 14.5258 54.7334 14.7831C54.2575 16.0146 53.3514 16.4466 52.1066 16.0146C52.0938 16.0103 52.0808 16.0061 52.0677 16.0018C52.0597 15.9992 52.0517 15.9966 52.0437 15.9939C51.9802 15.9733 51.9167 15.9526 51.8687 15.9319C51.6398 16.2536 51.411 16.566 51.1639 16.8969C51.1288 16.8538 51.0987 16.8224 51.0757 16.7984C51.0447 16.7661 51.0266 16.7473 51.0266 16.7315C51.0998 15.9411 50.6239 15.4724 50.093 14.9945C47.6127 12.7521 44.574 13.1564 42.4963 14.4523C42.7299 14.4047 42.9613 14.3528 43.1921 14.3011C43.6304 14.2027 44.0662 14.1049 44.5099 14.0387C47.1459 13.6711 49.4341 14.8566 50.6514 17.2277C51.4934 18.8636 52.0883 20.573 51.9419 22.4662L51.9403 22.4883V22.4884C51.9133 22.8592 51.8839 23.263 51.7314 23.5874C51.2005 24.727 51.3653 25.8758 51.6582 27.0062L51.7121 27.2168L51.7122 27.2169C51.987 28.2909 52.2691 29.3935 52.7931 30.3422C54.8158 33.9908 54.9806 37.9334 54.8341 41.9311C54.7701 43.6497 54.2209 45.1753 52.8114 46.2873C52.0243 46.9123 51.1822 47.3442 50.1297 47.2615C49.6446 47.2247 49.1503 47.2155 48.6652 47.2615C47.75 47.3626 47.1184 46.9031 46.5784 46.2598C45.9927 45.5705 45.7272 44.7709 45.892 43.8703C45.9377 43.6314 46.1116 43.3373 46.313 43.227C46.5659 43.0921 46.7506 43.2793 46.9378 43.469C46.9673 43.499 46.9969 43.529 47.0269 43.5578C47.309 43.8319 47.6815 44.0334 48.0366 44.2253L48.0367 44.2254L48.0429 44.2287C48.354 44.3941 48.5188 44.2563 48.5554 43.9071C48.592 43.4935 48.4639 43.1443 48.1527 42.8778C46.4045 41.3797 45.3062 39.4222 44.3177 37.3912C43.558 35.8196 43.073 34.1746 42.8991 32.4284C42.7709 31.1142 42.9997 29.8368 43.2469 28.5593C43.3658 27.9803 43.4848 27.3922 43.5214 26.7948C43.6038 25.6093 43.1919 24.6075 42.176 23.9734C40.9221 23.1922 39.8055 22.2548 38.9085 21.0785C38.9177 21.106 38.8719 21.1336 38.8261 21.1612ZM41.5078 25.3334C42.0387 25.7654 42.2309 26.2616 42.121 26.8774C42.0533 27.2756 41.9788 27.6726 41.9043 28.0697L41.9042 28.0699C41.7672 28.8001 41.6301 29.5305 41.5353 30.2686C41.2241 32.7591 41.8007 35.1118 42.7617 37.3818C42.9356 37.7954 42.9539 38.1263 42.7709 38.5398C41.938 40.433 41.0319 42.2803 39.8603 43.9988C38.341 46.2229 36.2176 47.2522 33.5633 47.2522C33.4064 47.2522 33.2504 47.2547 33.0947 47.2572H33.0947C32.7325 47.2629 32.3722 47.2687 32.0073 47.243C31.8243 47.2338 31.5955 47.1143 31.4948 46.9673C30.6436 45.8093 30.79 43.4107 31.7694 42.3538C31.8792 42.2343 32.1263 42.124 32.2636 42.17C32.368 42.2074 32.442 42.3667 32.5104 42.514C32.5259 42.5475 32.5412 42.5804 32.5565 42.6111C32.5943 42.6869 32.6217 42.7705 32.649 42.8536C32.6945 42.9921 32.7396 43.1292 32.8311 43.2268C32.9958 43.4198 33.2796 43.6956 33.4626 43.6588C33.6548 43.622 33.847 43.282 33.9294 43.043C34.0118 42.8133 33.9843 42.5284 33.9386 42.2894C33.8722 41.953 33.789 41.6189 33.706 41.2855C33.56 40.6992 33.4145 40.1149 33.3619 39.5232C33.1148 36.8672 33.3528 34.2572 34.4969 31.8034C34.7623 31.2428 35.0643 30.673 35.4579 30.1951C35.8698 29.6804 36.3823 29.2301 36.904 28.8257C37.4394 28.4033 37.991 28.0039 38.5434 27.6039C38.9165 27.3338 39.29 27.0633 39.659 26.7855C40.0704 26.471 40.4778 26.1482 40.8921 25.8199L40.8922 25.8199L40.8926 25.8195C41.0956 25.6587 41.3002 25.4966 41.5078 25.3334ZM21.8366 31.8675C21.6016 31.7977 21.3654 31.7275 21.1249 31.6565C21.0433 31.8339 20.9643 32.0138 20.885 32.1944C20.7507 32.5003 20.6155 32.808 20.4659 33.1086C19.5598 34.9466 18.3699 36.5457 16.5302 37.575C16.3838 37.6577 16.2831 37.8691 16.2282 38.0437C15.7889 39.5234 15.2397 40.9387 14.2238 42.1334C14.1505 42.2253 14.0865 42.3907 14.1139 42.4918C14.4343 43.5119 14.7638 44.5321 15.1207 45.5338C15.1848 45.7084 15.377 45.8738 15.5509 45.9749C16.2007 46.3425 16.8506 46.701 17.5187 47.041C17.7384 47.1513 17.9947 47.2524 18.2326 47.2524C20.168 47.2662 22.0982 47.2644 24.031 47.2627C24.6758 47.2621 25.3209 47.2616 25.9666 47.2616H26.5341C26.4725 47.1349 26.4224 47.0113 26.3749 46.8943C26.2812 46.6634 26.1979 46.4583 26.0582 46.3058C25.7104 45.929 25.3168 45.5705 24.8958 45.2857C24.5004 45.0186 24.0712 44.7969 23.6435 44.576C23.5267 44.5156 23.4099 44.4553 23.294 44.3942C22.8364 44.1461 22.6351 43.7785 22.6717 43.2638C22.6778 43.1413 22.692 43.0187 22.7062 42.8962C22.7134 42.8349 22.7205 42.7737 22.7266 42.7124C22.7546 42.4341 22.7894 42.155 22.8243 41.8756C22.9035 41.2413 22.9829 40.6053 22.9829 39.9737C22.9829 38.6595 22.3971 37.5291 21.5642 36.5365C23.0103 35.4521 23.294 33.9173 23.4313 32.3366C22.8813 32.1779 22.3618 32.0235 21.8366 31.8675Z" fill="#20113D"/>
</svg>
