<svg width="58" height="50" viewBox="0 0 58 50" fill="none" xmlns="http://www.w3.org/2000/svg">
<path fill-rule="evenodd" clip-rule="evenodd" d="M40.2759 22.042L40.2777 22.0458L40.2783 22.0472C40.7975 23.1573 41.3167 24.2674 41.8548 25.4266C41.7185 25.5383 41.5805 25.6536 41.4404 25.7707L41.4401 25.7709L41.4401 25.7709C41.1234 26.0355 40.7963 26.3088 40.4555 26.568C40.0768 26.8544 39.7011 27.1449 39.3257 27.4352C38.3986 28.1523 37.4727 28.8684 36.5036 29.5197C33.015 31.8713 29.1671 32.8257 25.0261 32.4518C24.0145 32.3632 22.9462 31.9992 22.5207 31.6942C22.7662 29.9256 23.0022 28.2061 23.2382 26.4867L23.2392 26.4794C23.2109 26.4696 23.1802 26.4622 23.1494 26.4548C23.1187 26.4475 23.088 26.4401 23.0596 26.4302C22.9675 26.6248 22.8761 26.8194 22.7849 27.0138C22.5578 27.4975 22.3313 27.9798 22.0953 28.4571C21.4822 29.7178 21.0711 31.0567 20.659 32.3985L20.6589 32.399C20.5436 32.7744 20.4283 33.15 20.3084 33.5242C19.5521 35.8561 18.2001 37.6468 15.9027 38.5225C15.7893 38.5717 15.6947 38.7685 15.6474 38.9161C15.5548 39.222 15.4725 39.5316 15.3902 39.8409C15.2793 40.2577 15.1686 40.674 15.0329 41.0807C14.5129 42.6549 13.5391 43.875 12.225 44.8097C11.6388 45.2229 11.0527 45.646 10.4948 46.0986C10.0127 46.4823 10.0316 46.6496 10.5043 47.0333C10.5968 47.1084 10.6898 47.1824 10.7826 47.2562L10.7827 47.2563C11.0788 47.4919 11.3725 47.7255 11.6388 47.9877C12.0737 48.4206 12.2723 48.9716 12.1115 49.6013C12.0737 49.7489 11.8563 49.9457 11.7239 49.9457C8.6229 49.9654 5.51243 49.9654 2.41142 49.9555C2.29797 49.9555 2.13725 49.9162 2.07107 49.8375C1.97607 49.7171 1.87881 49.5972 1.78127 49.477C1.43228 49.0468 1.07965 48.6121 0.813648 48.1353C0.64347 47.8303 0.624561 47.3187 0.738013 46.9743C1.83471 43.5011 3.2434 40.205 5.90006 37.6763C6.01351 37.5681 6.07969 37.332 6.08915 37.1647C6.15533 34.6656 6.43896 32.1861 7.05348 29.7755C7.58293 27.6896 8.15018 25.6037 9.15234 23.6851C10.9959 20.1824 13.3784 17.2602 17.0372 15.6859C20.1855 14.338 23.2582 14.5446 26.2552 16.1385C26.6666 16.3593 27.0387 16.662 27.4012 16.9568L27.4013 16.9569C27.5718 17.0956 27.7403 17.2326 27.9097 17.3586C27.5693 16.5911 26.9737 15.9614 26.3308 15.3809C26.9362 15.1412 27.5439 14.9092 28.1506 14.6777L28.1506 14.6777C30.831 13.6545 33.4904 12.6393 35.8418 11.0025C35.9454 11.3775 36.0471 11.7563 36.1494 12.1372L36.1496 12.138C36.2808 12.6263 36.4128 13.1181 36.5509 13.6099C36.5887 13.7279 36.6643 13.8362 36.7589 13.9346C36.5698 12.7145 36.5698 11.4945 37.0142 10.3728C37.4301 9.31018 37.9312 8.23772 38.5741 7.31284C40.153 5.06953 42.0533 3.12138 44.1711 1.41922C44.2562 1.35034 44.3412 1.28147 44.4358 1.2126C44.5876 1.11174 44.7381 1.00427 44.8888 0.896577C45.6206 0.373933 46.3598 -0.154052 47.3004 0.0417429C48.8509 0.356594 50.1462 1.20276 51.0349 2.59007C51.2901 2.98364 51.5832 3.25913 51.9898 3.40672C53.0487 3.79044 53.8428 4.44966 54.3533 5.52213C54.5384 5.91397 54.8053 6.26098 55.0727 6.60855C55.2014 6.7759 55.3302 6.94338 55.45 7.11606C55.6959 7.47027 55.7431 7.76544 55.469 8.17869C55.2421 8.52306 55.1286 8.98549 55.0624 9.40858C54.9773 9.91037 55.1664 10.2351 55.6769 10.5106C57.01 11.219 57.7853 12.8031 57.0478 14.4068C56.9249 14.6725 56.8115 14.9382 56.7075 15.2136C56.2158 16.5321 55.2799 16.9945 53.9941 16.5321C53.9728 16.5247 53.951 16.5173 53.9291 16.51C53.8635 16.4878 53.7979 16.4657 53.7483 16.4435C53.5119 16.7879 53.2756 17.1224 53.0203 17.4766C52.984 17.4305 52.9529 17.3969 52.9292 17.3712L52.9291 17.3712C52.8971 17.3366 52.8785 17.3165 52.8785 17.2995C52.9541 16.4534 52.4625 15.9516 51.9141 15.4399C49.352 13.0392 46.2132 13.4721 44.0671 14.8594C44.3083 14.8086 44.5472 14.753 44.7855 14.6976L44.7857 14.6975C45.2385 14.5923 45.6887 14.4876 46.147 14.4167C48.8699 14.0231 51.2334 15.2924 52.4908 17.8308C53.3606 19.5822 53.9752 21.4123 53.8239 23.4391L53.8222 23.4628C53.7944 23.8598 53.764 24.2922 53.6065 24.6395C53.0581 25.8596 53.2283 27.0895 53.5308 28.2997L53.5866 28.5252C53.8705 29.6751 54.1619 30.8555 54.7032 31.8713C56.7926 35.7774 56.9627 39.9984 56.8115 44.2784C56.7453 46.1183 56.178 47.7516 54.7221 48.9421C53.909 49.6112 53.0392 50.0736 51.952 49.9851C51.4509 49.9457 50.9403 49.9359 50.4393 49.9851C49.4938 50.0933 48.8415 49.6013 48.2837 48.9126C47.6786 48.1747 47.4044 47.3187 47.5746 46.3544C47.6219 46.0986 47.8015 45.7838 48.0095 45.6657C48.2708 45.5212 48.4615 45.7217 48.6548 45.9248L48.6551 45.925C48.6856 45.957 48.7161 45.9891 48.7469 46.0199C49.0383 46.3134 49.4232 46.529 49.79 46.7346L49.7964 46.7381C50.1178 46.9152 50.288 46.7677 50.3258 46.3938C50.3636 45.951 50.2313 45.5771 49.9098 45.2918C48.1041 43.688 46.9695 41.5923 45.9485 39.4179C45.1638 37.7354 44.6627 35.9742 44.4831 34.1047C44.3507 32.6977 44.5871 31.3301 44.8423 29.9625C44.9652 29.3426 45.0881 28.7129 45.1259 28.0734C45.211 26.8041 44.7856 25.7317 43.7362 25.0528C42.4409 24.2164 41.2875 23.2128 40.361 21.9534C40.3704 21.983 40.3232 22.0125 40.2759 22.042ZM43.0453 26.5104C43.5936 26.9729 43.7921 27.5042 43.6787 28.1634C43.6088 28.5897 43.5318 29.0148 43.4548 29.44L43.4548 29.4401C43.3132 30.2218 43.1716 31.0038 43.0736 31.794C42.7522 34.4604 43.3478 36.9792 44.3405 39.4095C44.5201 39.8522 44.539 40.2065 44.3499 40.6492C43.4896 42.6761 42.5536 44.6537 41.3435 46.4936C39.7741 48.8747 37.5807 49.9767 34.8389 49.9767C34.6769 49.9767 34.5158 49.9794 34.3549 49.982H34.3548C33.9807 49.9882 33.6085 49.9944 33.2317 49.9669C33.0426 49.957 32.8063 49.8291 32.7023 49.6717C31.823 48.4319 31.9743 45.8639 32.9859 44.7324C33.0993 44.6045 33.3546 44.4865 33.4964 44.5357C33.6042 44.5757 33.6807 44.7463 33.7513 44.9039C33.7674 44.9398 33.7832 44.9751 33.799 45.0079C33.838 45.0891 33.8663 45.1786 33.8945 45.2676C33.9415 45.4158 33.988 45.5626 34.0826 45.6672C34.2528 45.8738 34.5458 46.169 34.7349 46.1296C34.9335 46.0902 35.132 45.7262 35.2171 45.4704C35.3022 45.2244 35.2738 44.9194 35.2265 44.6636C35.158 44.3033 35.0721 43.9457 34.9863 43.5888L34.9863 43.5887C34.8355 42.961 34.6852 42.3355 34.6309 41.702C34.3757 38.8585 34.6215 36.0642 35.8033 33.4371C36.0774 32.837 36.3894 32.2269 36.796 31.7153C37.2214 31.1643 37.7508 30.6822 38.2897 30.2493C38.8427 29.7971 39.4125 29.3695 39.983 28.9413L39.9832 28.9412C40.3686 28.652 40.7543 28.3625 41.1355 28.065C41.5604 27.7284 41.9811 27.3829 42.4089 27.0316L42.4093 27.0313L42.4098 27.0309C42.6194 26.8587 42.8308 26.6851 43.0453 26.5104ZM22.7258 33.5039C22.4831 33.4291 22.2391 33.354 21.9907 33.278C21.9065 33.4679 21.8249 33.6605 21.743 33.8539C21.6042 34.1814 21.4646 34.5109 21.31 34.8326C20.374 36.8004 19.145 38.5124 17.2447 39.6144C17.0934 39.7029 16.9894 39.9292 16.9327 40.1162C16.4789 41.7003 15.9116 43.2155 14.8622 44.4946C14.7865 44.593 14.7204 44.7701 14.7487 44.8783C15.0796 45.9704 15.42 47.0626 15.7887 48.135C15.8549 48.322 16.0534 48.4991 16.2331 48.6073C16.9043 49.0009 17.5756 49.3846 18.2657 49.7487C18.4926 49.8667 18.7573 49.975 19.0032 49.975C21.0024 49.9897 22.9963 49.9879 24.9929 49.986C25.6589 49.9854 26.3252 49.9848 26.992 49.9848H27.5782C27.5146 49.8492 27.4628 49.7168 27.4138 49.5916C27.3169 49.3444 27.2309 49.1248 27.0866 48.9615C26.7273 48.5581 26.3208 48.1744 25.8859 47.8694C25.4775 47.5835 25.0341 47.3461 24.5923 47.1096C24.4717 47.045 24.3511 46.9805 24.2314 46.915C23.7587 46.6493 23.5507 46.2558 23.5885 45.7048C23.5948 45.5736 23.6095 45.4424 23.6242 45.3112C23.6316 45.2456 23.6389 45.18 23.6452 45.1144C23.6741 44.8166 23.7101 44.5177 23.7462 44.2186C23.8279 43.5395 23.9099 42.8586 23.9099 42.1824C23.9099 40.7754 23.3049 39.5652 22.4445 38.5026C23.9383 37.3416 24.2314 35.6984 24.3732 34.0061C23.8049 33.8362 23.2683 33.6709 22.7258 33.5039Z" fill="#F58021"/>
</svg>
