<svg width="106" height="80" viewBox="0 0 106 80" fill="none" xmlns="http://www.w3.org/2000/svg">
<path d="M97.3634 5.66044C90.9637 1.104 82.3479 -0.855944 73.9599 0.350174C65.2612 1.60655 57.6396 5.81121 53.021 11.9088C48.4024 5.81121 40.7807 1.60655 32.0821 0.350174C23.6941 -0.855944 15.0783 1.08725 8.67857 5.66044C0.974046 11.356 -1.78053 20.9882 1.13973 32.0945C1.16045 32.128 1.18116 32.1615 1.20187 32.2118C1.28471 32.396 1.38827 32.5636 1.53324 32.7143C1.57467 32.7478 1.57467 32.7813 1.61609 32.8148C1.65751 32.8483 1.71964 32.8651 1.76107 32.8986C1.84391 32.9656 1.94747 33.0159 2.05102 33.0494C2.25813 33.1331 2.46524 33.1834 2.69307 33.2001C2.7552 33.2001 2.81733 33.2336 2.85875 33.2336C2.92089 33.2336 2.98302 33.2169 3.04515 33.2001C3.10729 33.2001 3.16942 33.2001 3.23155 33.2001C3.29369 33.1834 3.3144 33.1666 3.37653 33.1499C3.48009 33.1164 3.60435 33.0829 3.70791 33.0326C3.81146 32.9824 3.91502 32.9321 3.99786 32.8651C4.03929 32.8316 4.08071 32.8316 4.12213 32.7981L10.3355 27.7726L10.3562 27.7558C11.7231 26.6502 13.9185 26.6335 15.3061 27.7223C16.6938 28.8112 16.7352 30.5869 15.4097 31.726L5.21982 39.9678C4.76417 40.3363 4.59848 40.8556 4.76417 41.3414C4.92986 41.8272 5.40622 42.2293 6.00684 42.3465C6.60746 42.4638 7.27021 42.3465 7.72586 41.978L17.8122 33.8199C17.8329 33.8032 17.8536 33.8032 17.8536 33.8032C17.8743 33.7864 17.895 33.7529 17.9157 33.7362L24.0462 28.7777C24.0669 28.7609 24.0876 28.7609 24.0876 28.7442C25.4753 27.6553 27.6913 27.6553 29.079 28.7442C30.4459 29.8498 30.4459 31.659 29.0997 32.7646L29.079 32.7813L10.2526 48.0086C9.79696 48.3771 9.63128 48.8964 9.79696 49.3822C9.96265 49.868 10.439 50.2533 11.0396 50.3873C11.6403 50.5213 12.303 50.3706 12.7379 50.0188L29.079 36.8185L29.1204 36.785C30.508 35.6961 32.7448 35.7296 34.0911 36.852C35.4373 37.9743 35.4373 39.7668 34.0703 40.8724L30.3216 43.9044L16.673 54.9437C16.2174 55.3123 16.0517 55.8316 16.2174 56.3174C16.3831 56.8032 16.8594 57.1885 17.4601 57.3225C18.0607 57.4565 18.7234 57.3057 19.1584 56.9539L32.807 45.9146C34.1946 44.7923 36.4314 44.7923 37.7983 45.9146C39.186 47.037 39.186 48.8462 37.7983 49.9518C37.7983 49.9518 37.7983 49.9685 37.7776 49.9685L24.0876 61.0413L24.0669 61.0581L24.0462 61.0748C23.9841 61.1419 23.9219 61.2256 23.8805 61.2926C23.8184 61.3596 23.7562 61.4434 23.6941 61.5271C23.6527 61.6109 23.632 61.7114 23.632 61.7952C23.5698 61.9627 23.5698 62.1637 23.6527 62.3312C23.6734 62.415 23.6941 62.5155 23.7355 62.5992C23.7977 62.683 23.8598 62.7668 23.9219 62.8338C23.9633 62.9008 24.0255 62.9845 24.0876 63.0515L24.1083 63.0683L24.129 63.085C32.7656 69.3502 42.1062 74.9452 52.0476 79.7864C52.6068 80.0712 53.3317 80.0712 53.8909 79.7864C63.8322 74.9452 73.1729 69.3502 81.8094 63.085L81.8301 63.0683L81.8508 63.0515C81.9129 62.9845 81.9751 62.9175 82.0165 62.8338C82.0993 62.7668 82.1615 62.683 82.2029 62.5992C82.265 62.415 82.3064 62.2475 82.3479 62.0632C82.3479 61.9794 82.3272 61.8789 82.3064 61.7952C82.2857 61.7114 82.265 61.6109 82.2443 61.5271C82.2029 61.4434 82.1408 61.3596 82.0579 61.2926C82.0165 61.2089 81.9544 61.1419 81.8922 61.0748L81.8715 61.0581L81.8508 61.0413L68.1608 49.9685C68.1608 49.9685 68.1608 49.9518 68.1401 49.9518C66.7524 48.8294 66.7524 47.0202 68.1401 45.9146C69.5277 44.7923 71.7645 44.7923 73.1314 45.9146L86.78 56.9539C87.4635 57.5067 88.5819 57.5067 89.2861 56.9539C89.9696 56.4011 89.9696 55.4966 89.2861 54.927L75.6375 43.8877L71.8888 40.8556C70.9982 40.1353 70.6461 39.0799 70.9775 38.0916C71.3089 37.1033 72.2616 36.3327 73.4835 36.0647C74.7055 35.7966 76.0103 36.0814 76.9009 36.8017L76.9216 36.8185L93.2212 50.002C93.9047 50.5548 95.023 50.5548 95.7065 50.002C96.39 49.4492 96.39 48.5446 95.7065 47.9918L79.3862 34.8083L79.3655 34.7915C79.3448 34.7748 79.3448 34.7748 79.3241 34.7748L76.8594 32.7813C75.4718 31.659 75.4718 29.8498 76.8594 28.7442C78.2471 27.6386 80.4839 27.6218 81.8508 28.7442C81.8715 28.7609 81.8922 28.7609 81.8922 28.7777L87.857 33.6022C87.9192 33.6692 88.002 33.7362 88.1056 33.8032L98.2333 41.978C98.6889 42.3465 99.331 42.4805 99.9523 42.3465C100.553 42.2125 101.029 41.8272 101.195 41.3414C101.361 40.8556 101.174 40.3196 100.739 39.9678L90.5909 31.7762C90.5702 31.7427 90.5287 31.7092 90.4873 31.6925V31.6757C89.2239 30.5534 89.2654 28.8112 90.6116 27.7391C91.9992 26.667 94.2153 26.667 95.603 27.7391L101.837 32.7813C101.878 32.8148 101.92 32.8148 101.961 32.8483C102.148 32.9656 102.355 33.0661 102.583 33.1164C102.624 33.1331 102.665 33.1499 102.728 33.1666C102.852 33.1834 102.976 33.2001 103.1 33.2001C103.307 33.2001 103.535 33.1666 103.722 33.0996C103.784 33.0829 103.825 33.0494 103.887 33.0326C104.032 32.9824 104.157 32.8986 104.281 32.8148C104.302 32.7981 104.322 32.7981 104.343 32.7813C104.384 32.7478 104.384 32.7143 104.426 32.6808C104.509 32.5971 104.592 32.4966 104.654 32.396C104.695 32.329 104.737 32.262 104.757 32.195C104.778 32.1448 104.799 32.1113 104.819 32.061C107.802 20.9882 105.068 11.356 97.3634 5.66044ZM102.023 28.8447L98.1918 25.7456C95.3959 23.5847 91.0051 23.5847 88.2091 25.7456C87.3392 26.466 86.7179 27.3371 86.3865 28.3087L84.4604 26.7507C84.4397 26.734 84.3983 26.7172 84.3776 26.7005C81.9336 24.7573 78.1021 24.5228 75.3268 26.1477C72.5515 27.7726 71.6195 30.7711 73.1314 33.2671C70.6875 33.6357 68.6786 35.0261 67.8294 36.9022C66.9802 38.7784 67.4152 40.8891 68.9892 42.447C67.7466 42.6816 66.6075 43.2009 65.7169 43.9212C62.983 46.1491 62.9623 49.734 65.6962 51.9787C65.7169 51.9955 65.7169 52.0122 65.7169 52.0122L78.1021 62.0297C70.294 67.5745 61.906 72.5665 53.0417 76.9554C44.1774 72.5665 35.7894 67.5745 27.9813 62.0297L40.3665 52.0122C40.3872 51.9955 40.3872 51.9787 40.3872 51.9787C43.1004 49.734 43.1004 46.1491 40.3665 43.9212C39.4552 43.2009 38.3368 42.6816 37.0942 42.447C38.6682 40.8891 39.1031 38.7952 38.254 36.9022C37.4048 35.0093 35.3959 33.6357 32.9727 33.2504C34.2775 31.0727 33.739 28.4594 31.6264 26.734C28.8719 24.5898 24.5225 24.573 21.7058 26.6837C21.6644 26.7005 21.6437 26.7172 21.6023 26.734L19.6761 28.2919C19.3655 27.3203 18.7442 26.4325 17.8743 25.7121C15.1404 23.5009 10.6875 23.4842 7.93297 25.6786C7.91226 25.6954 7.89155 25.6954 7.89155 25.7121L4.06 28.8112C2.46524 19.8826 4.95057 12.2941 11.1018 7.73764C16.7145 3.80101 24.2119 2.12585 31.5436 3.1477C39.8487 4.27006 46.9526 8.60873 51.5091 15.3596C51.8405 15.7952 52.4411 16.0465 53.0624 16.0465C53.6837 16.0465 54.2844 15.7784 54.6157 15.3596C59.1929 8.59198 66.2761 4.2533 74.5812 3.1477C81.8922 2.12585 89.4103 3.81776 95.023 7.73764C101.133 12.3108 103.618 19.8993 102.023 28.8447Z" fill="#00A092"/>
</svg>
