<svg width="33" height="56" viewBox="0 0 33 56" fill="none" xmlns="http://www.w3.org/2000/svg">
<path fill-rule="evenodd" clip-rule="evenodd" d="M15.9437 0.0080382C16.8064 -0.04113 17.6291 0.139154 18.4758 0.442357C18.4478 0.52365 18.4219 0.603548 18.3964 0.68205L18.3964 0.682067C18.3346 0.872615 18.2754 1.05494 18.1962 1.22905C17.9527 1.76567 17.7051 2.3023 17.4576 2.83893L17.4574 2.83931C17.2098 3.37606 16.9621 3.91281 16.7185 4.44956L16.7178 4.45107L16.7178 4.4511C16.586 4.74212 16.5221 4.88305 16.4137 4.94194C16.3119 4.99725 16.1708 4.98022 15.8972 4.94719L15.8479 4.94125C15.5683 4.90847 15.4006 4.78555 15.3606 4.50693C15.3437 4.38957 15.3222 4.27164 15.3008 4.15359L15.3008 4.15355L15.3008 4.15352L15.3007 4.15349L15.3007 4.15345L15.3007 4.15342L15.3007 4.15339L15.3007 4.15337L15.3007 4.15333C15.2413 3.82633 15.1816 3.49844 15.2168 3.17939C15.305 2.39103 15.4478 1.60776 15.5905 0.825574L15.5905 0.825125L15.5906 0.824695C15.6288 0.615251 15.667 0.405884 15.7041 0.196516C15.7201 0.122764 15.8559 0.0162329 15.9437 0.0080382ZM10.5605 2.66235L10.5607 2.66261C11.0903 3.47072 11.6086 4.26143 12.1494 5.03822C12.3491 5.33323 12.6207 5.59546 13.06 5.41518C13.731 5.15295 13.8987 4.97267 13.699 4.25153C13.4601 3.37499 13.6084 2.53212 13.7572 1.6863L13.7572 1.68618L13.7572 1.68607L13.7572 1.68597L13.7573 1.68588L13.7573 1.68578L13.7573 1.68568L13.7573 1.68558L13.7573 1.68548L13.7573 1.6854L13.7574 1.68531L13.7574 1.68522L13.7574 1.68511L13.7574 1.685C13.7727 1.59817 13.788 1.5113 13.8028 1.42436C13.8588 1.11297 13.8508 0.768789 13.7789 0.457391C13.7469 0.309886 13.4594 0.0886299 13.3475 0.113214C12.1254 0.424612 11.0551 1.03921 10.0327 1.85868C10.2107 2.12854 10.3862 2.39639 10.5605 2.66235ZM7.42181 8.91345C7.98141 9.33261 8.54265 9.75301 9.11383 10.1785C8.92213 11.1209 8.4269 11.6535 7.46039 11.7601C6.12645 11.8994 5.00019 11.3421 3.98576 10.5063C3.92985 10.4571 3.90589 10.2768 3.94583 10.1949C4.00518 10.0594 4.06427 9.92361 4.12338 9.78776C4.38246 9.19237 4.64214 8.59558 4.9283 8.0151C5.00513 7.85185 5.13095 7.71567 5.25139 7.5853L5.25141 7.58529L5.25142 7.58527L5.25143 7.58526C5.3063 7.52586 5.36007 7.46768 5.40756 7.40869C6.08609 7.91293 6.75278 8.41231 7.42181 8.91345ZM7.78029 13.9233C6.27062 13.5382 4.80888 13.1612 3.23531 12.7515C3.2016 12.9417 3.16394 13.138 3.12546 13.3385L3.12545 13.3386C3.0545 13.7084 2.98076 14.0927 2.92379 14.4805C2.8691 14.8478 2.83298 15.2183 2.79616 15.5958C2.77383 15.8248 2.75124 16.0564 2.7241 16.2916C3.98615 16.939 5.28015 17.1192 6.55817 16.3653C7.46877 15.8409 7.82821 14.9722 7.78029 13.9233ZM2.78004 18.2657C2.54041 19.5605 2.73212 20.7815 3.17943 21.9697C3.21937 22.0681 3.32321 22.1746 3.41906 22.2074C5.30415 22.8547 7.42886 21.56 7.72441 19.8145C7.76435 19.5769 7.78032 19.3228 7.76435 19.0852C7.66849 18.0445 7.47679 17.897 6.48632 18.0445L6.20096 18.087C5.52117 18.1885 4.84062 18.2902 4.15392 18.3477C3.85227 18.3702 3.54309 18.3386 3.22379 18.306H3.22376H3.22374H3.22372C3.07802 18.2911 2.93021 18.276 2.78004 18.2657ZM8.14763 25.9525C8.78664 24.5594 8.58695 23.5596 7.50862 22.691C6.39035 23.5596 5.09635 23.8792 3.7065 23.9284C3.61065 23.9284 3.4509 24.0677 3.42693 24.1742C3.21127 25.2149 3.51479 26.1409 4.08191 26.9932C4.12732 27.0605 4.21416 27.0951 4.31223 27.1341L4.31228 27.1342L4.3124 27.1342C4.36954 27.157 4.4305 27.1813 4.48929 27.2144C4.46162 27.2334 4.43462 27.2523 4.40789 27.271C4.34204 27.3172 4.2779 27.3621 4.20972 27.4029C2.75597 28.2961 1.58178 29.468 0.886856 31.066C-0.023735 33.172 -0.351227 35.3436 0.4715 37.5807C0.619579 37.9829 0.755787 38.3923 0.891773 38.8011L0.891785 38.8012L0.891796 38.8012L0.891808 38.8012L0.891819 38.8013L0.89183 38.8013L0.891842 38.8013L0.891853 38.8014L0.891865 38.8014L0.891876 38.8014L0.891888 38.8015L0.891899 38.8015L0.891911 38.8015L0.891922 38.8016L0.891933 38.8016L0.891945 38.8016L0.891956 38.8017L0.891968 38.8017C1.00532 39.1424 1.11851 39.4827 1.23831 39.8179C1.6377 40.9488 1.66965 42.1124 1.35014 43.2433C0.4076 46.5457 1.29423 49.5778 2.54829 52.5689C2.65834 52.8189 2.83801 53.045 3.01118 53.263L3.01956 53.2736C3.25919 53.5768 3.57071 53.6751 3.94613 53.544C4.32155 53.4047 4.59313 53.1507 4.57715 52.7491C4.56117 52.2329 4.49727 51.7166 4.37746 51.2167C4.28561 50.8193 4.17379 50.426 4.06198 50.0327L4.06195 50.0326C3.95012 49.6392 3.83829 49.2459 3.74644 48.8485C3.49083 47.7258 3.81833 46.7998 4.71294 46.1032C4.75123 46.0744 4.78871 46.0448 4.82589 46.0154C4.90505 45.9527 4.98288 45.8912 5.0644 45.841C6.41431 45.0461 7.24502 43.8005 7.93196 42.4156C8.12379 42.022 8.37203 41.6554 8.6199 41.2894L8.61994 41.2893C8.7333 41.1219 8.8466 40.9546 8.95438 40.7849L9.05023 40.834C9.09816 41.0635 9.14708 41.2929 9.196 41.5224C9.34278 42.2107 9.48955 42.8991 9.60937 43.5875C10.1445 46.5785 11.8699 48.8321 13.8668 50.9299C14.0637 51.1401 14.3229 51.2944 14.5675 51.4401L14.5777 51.4462C14.9132 51.651 15.2566 51.651 15.5761 51.3806C15.9036 51.102 16.0234 50.7496 15.8797 50.3563C15.7359 49.9793 15.5522 49.6106 15.3285 49.2746C15.0966 48.9309 14.8462 48.6014 14.5959 48.2721L14.5959 48.2721C14.3807 47.989 14.1657 47.7061 13.9626 47.4144C13.0121 46.0541 12.9722 45.0953 13.9067 43.735C14.6496 42.6451 15.1608 41.4568 15.6161 40.1703C15.7432 40.2309 15.8681 40.2871 15.9905 40.3421L15.9906 40.3421L15.9907 40.3422L15.9908 40.3423C16.1989 40.4358 16.3995 40.526 16.5906 40.6292C18.5555 41.7273 19.7617 43.4563 20.4806 45.5788C20.7725 46.4253 21.0242 47.2874 21.2755 48.1485L21.2755 48.1485C21.3405 48.3711 21.4054 48.5935 21.471 48.8157C21.7027 49.6024 22.0781 50.2989 22.5893 50.9217C22.7753 51.1469 22.9612 51.3721 23.1469 51.5972L23.1543 51.6062L23.1617 51.6151L23.1689 51.6239L23.1738 51.6299C24.0876 52.7373 24.9997 53.8428 25.9281 54.9371C26.1917 55.2485 26.5112 55.5435 26.8547 55.7648C27.4777 56.1663 28.0848 56.0434 28.6599 55.478C29.0753 55.0682 29.1472 54.5602 28.7717 53.9128C28.5564 53.5399 28.2786 53.202 28.0054 52.8695L28.0047 52.8687L28.004 52.8678L28.0037 52.8674C27.9532 52.806 27.9029 52.7448 27.8532 52.6836C27.6934 52.4869 27.5097 52.2984 27.318 52.1345C25.6965 50.7168 25.2971 48.8403 25.369 46.7834C25.3806 46.438 25.4217 46.0927 25.4617 45.7567L25.4618 45.7566L25.4618 45.7565C25.4768 45.6302 25.4917 45.5052 25.5048 45.3821C25.7544 45.3332 26.001 45.2843 26.2422 45.2364L26.2445 45.236L26.2451 45.2359C26.69 45.1476 27.1166 45.063 27.5097 44.9888C27.6586 45.3254 27.7979 45.6694 27.9375 46.014L27.9376 46.014L27.9376 46.0142C28.2398 46.7601 28.5432 47.5091 28.9475 48.1929C29.5421 49.2009 30.2467 50.1391 30.951 51.077C31.117 51.2981 31.283 51.5192 31.4476 51.7412C31.7272 52.1181 32.1026 52.4213 32.6138 52.2984C32.8854 52.2329 33.0931 51.479 32.9573 50.9463C32.8295 50.4464 32.6777 49.9384 32.4301 49.4958C31.3278 47.5045 30.9044 45.3165 30.6089 43.0958C30.4571 41.9649 29.8021 41.4568 28.6998 41.6781C26.639 42.096 24.5702 42.3009 22.4695 42.1124C22.3257 42.096 22.1819 42.0632 22.0381 42.0305C20.5524 41.6699 19.9614 40.2604 20.7282 38.8919C20.7521 38.8427 20.7761 38.7936 20.816 38.7526C21.5302 38.0139 21.9172 37.0963 22.3059 36.1749C22.4432 35.8493 22.5808 35.5231 22.7331 35.2043C23.0366 34.5815 23.6117 34.057 24.1629 33.5981C24.8418 33.0409 25.6725 32.7623 26.5272 32.5738C26.647 32.5492 26.8228 32.4345 26.8467 32.3361C26.8707 32.2214 26.7748 32.0083 26.679 31.9592C26.618 31.9297 26.5566 31.8993 26.495 31.8688C26.1287 31.6874 25.7507 31.5002 25.361 31.4511C24.722 31.3692 24.059 31.3856 23.412 31.4511C22.6931 31.5249 22.0541 31.2954 21.4551 31.0004C20.816 30.689 20.209 30.2629 19.6339 29.8368C18.0603 28.6649 16.4708 27.5258 14.6655 26.7473C12.7325 25.9033 10.7276 25.6247 8.65085 25.9361C8.49908 25.9197 8.33135 25.9279 8.14763 25.9525ZM16.9102 24.3705C16.2712 24.7803 15.5763 24.9606 14.8255 24.9606C14.1066 24.936 13.4196 24.7885 12.8365 24.3296C12.1895 23.8297 11.9419 23.0922 12.3173 22.3792C12.557 21.9306 12.8909 21.5373 13.2249 21.1439L13.2249 21.1439C13.3363 21.0128 13.4476 20.8817 13.5554 20.7485C13.6113 20.6829 13.7471 20.6584 13.843 20.6666C15.5763 20.8386 16.9182 22.0597 17.2297 23.6003C17.3096 23.9772 17.2058 24.1821 16.9102 24.3705ZM8.23565 3.29443C9.14624 3.99918 10.4243 5.60534 11.2949 7.12135L11.2051 7.23794C10.9991 7.50527 10.8045 7.75776 10.616 8.02277C10.4482 8.26042 10.2485 8.31778 9.96099 8.22764C8.48327 7.74415 7.46883 6.66245 6.39849 5.4988C7.02101 4.7537 7.62759 4.02495 8.23416 3.29622L8.23565 3.29443ZM20.696 8.32615C21.3542 7.7445 22.1559 7.64284 22.9624 7.54058L22.9624 7.54057L22.9625 7.54057L22.9625 7.54057L22.9625 7.54056L22.9625 7.54056L22.9625 7.54056L22.9626 7.54056L22.9626 7.54055L22.9626 7.54055L22.9626 7.54055L22.9626 7.54054C23.1446 7.51747 23.3268 7.49437 23.5077 7.4657C23.923 7.40014 24.3384 7.27722 24.7378 7.14611C24.8257 7.11333 24.9535 6.94944 24.9375 6.86749C24.8177 6.05621 24.57 5.29411 23.9071 4.76965C23.7952 4.67951 23.6115 4.62214 23.4837 4.63853C22.5092 4.79423 21.6066 5.13841 20.7999 5.72023C20.704 5.79398 20.6082 5.86774 20.5203 5.94968C19.6896 6.73637 19.7455 7.6296 20.696 8.32615ZM21.0079 21.7728C20.2011 20.2977 16.6865 18.8882 15.7759 19.6831C15.7759 19.7077 15.7759 19.7487 15.7919 19.7569C16.8782 20.7239 17.661 21.9449 18.4199 23.1823C18.6036 23.4855 18.7873 23.5019 19.0748 23.4035C19.7458 23.1741 20.5126 22.5349 21.0079 21.7728ZM26.3754 37.6793C26.2556 38.3103 26.008 38.4987 25.3689 38.5151C25.2568 38.4937 25.1446 38.4767 25.0329 38.4597H25.0329L25.0329 38.4597L25.0328 38.4597L25.0328 38.4597L25.0327 38.4597L25.0327 38.4597C24.8026 38.4247 24.575 38.3902 24.3545 38.3185C23.6356 38.0972 23.3241 37.5809 23.4599 36.8188C23.5078 36.5402 23.6117 36.2698 23.7315 36.0158C24.1628 35.1225 24.8737 34.4915 25.6884 33.9835C25.968 33.8114 26.3035 33.7048 26.623 33.6475C26.7707 33.6183 26.9345 33.6596 27.0973 33.7007C27.1634 33.7174 27.2293 33.734 27.294 33.7458C27.2804 33.806 27.2701 33.8694 27.2597 33.9331C27.2333 34.0951 27.2065 34.2592 27.1262 34.3768C26.6629 35.057 26.5272 35.8191 26.4872 36.6222C26.4712 36.9745 26.4393 37.3351 26.3754 37.6793ZM24.6782 36.5248C24.4265 36.6229 24.2364 36.8804 24.2427 37.163C24.2507 37.5318 24.5542 37.8268 24.9136 37.8186C24.9899 37.8168 25.0624 37.8019 25.1293 37.776C25.0622 37.8016 24.9897 37.8164 24.9138 37.8182C24.5544 37.8264 24.2509 37.5314 24.2429 37.1626C24.2429 36.8803 24.4289 36.6232 24.6782 36.5248ZM21.8631 10.6817L21.8636 10.6818L21.8637 10.6818L21.8639 10.6818C23.0804 10.7846 24.2725 10.8854 25.4647 10.9965C25.8161 11.0293 25.928 10.89 25.9599 10.554C26.0238 9.83289 25.7842 9.26746 25.1931 8.87411C24.1946 8.21853 22.4134 8.33326 21.5028 9.11995C21.0395 9.5133 20.8398 10.0132 20.9357 10.6032C21.2466 10.6296 21.5557 10.6558 21.8631 10.6817ZM20.2168 1.17236C21.1753 1.70502 22.0859 2.24587 22.7249 3.17187C21.2552 4.0569 19.8334 4.91734 18.4116 5.78598C18.148 5.35985 18.116 5.07304 18.3077 4.47483C18.6722 3.32264 19.3621 2.36229 20.0615 1.38869L20.0618 1.38826L20.0624 1.38743C20.1139 1.31584 20.1654 1.24418 20.2168 1.17236ZM18.0446 18.1926C19.0409 18.5401 19.8415 19.1682 20.6575 19.8083C21.15 20.1946 21.648 20.5853 22.1981 20.9215C22.2722 20.8018 22.346 20.683 22.4194 20.565L22.4222 20.5605L22.4223 20.5603L22.423 20.5593L22.423 20.5592L22.4232 20.5589C22.7201 20.0811 23.01 19.6148 23.2845 19.1432C23.3244 19.0777 23.3004 18.8892 23.2365 18.84C22.1981 18.0041 21.0799 17.3322 19.714 17.2666C19.035 17.2502 18.428 17.4305 18.0446 18.1926ZM25.6407 12.753C25.6247 13.4243 25.6084 14.1119 25.1854 14.6768C25.0194 14.6208 24.8552 14.5642 24.6921 14.5079L24.6921 14.5079L24.6921 14.5079L24.6921 14.5079L24.6919 14.5078C24.2587 14.3584 23.8336 14.2118 23.4042 14.0868C22.6454 13.8819 21.8865 13.6935 21.1197 13.5214C20.8322 13.4558 20.7683 13.3083 20.8082 13.0297C20.9121 12.2594 21.4313 11.7841 22.3099 11.7513C23.4361 11.7021 24.4745 12.0873 25.489 12.5462C25.5609 12.579 25.6407 12.6855 25.6407 12.7511L25.6407 12.753ZM22.821 37.6948C22.6505 37.9087 22.498 38.0967 22.3557 38.272C22.1981 38.4662 22.0532 38.6448 21.9104 38.8257C21.8615 38.8879 21.8104 38.9488 21.7595 39.0094C21.6362 39.1564 21.5137 39.3024 21.4232 39.4649C21.1277 39.9893 21.2714 40.563 21.8146 40.8006C22.2459 40.9891 22.7252 41.112 23.1885 41.1612C24.4266 41.3005 25.6487 41.1776 26.8468 40.8088C26.7669 40.2352 26.5113 39.9729 25.9522 39.9156C25.6731 39.89 25.3909 39.8804 25.1094 39.8708L25.1092 39.8708L25.1089 39.8708L25.1086 39.8708C24.9393 39.865 24.7702 39.8593 24.6023 39.85C23.516 39.7845 23.3402 39.6124 23.1246 38.5307C23.0871 38.3493 23.0137 38.1717 22.9356 37.9829C22.8973 37.8901 22.8579 37.7947 22.821 37.6948ZM23.8276 17.6593C22.5496 16.9791 21.2476 16.3891 19.8018 16.0941C20.0095 15.0452 20.6884 14.5781 21.7588 14.7174C22.8371 14.8485 23.7956 15.3074 24.6743 15.9384C24.7621 16.004 24.874 16.1515 24.85 16.217C24.6743 16.6759 24.4906 17.143 24.2589 17.5773C24.211 17.6593 23.9314 17.7167 23.8276 17.6593ZM27.3338 35.9576C27.3338 36.8098 27.4696 36.9492 28.1086 36.8262C28.3722 36.7771 28.6518 36.6623 28.8674 36.4985C29.6982 35.8675 29.9298 34.3433 29.3547 33.4992C29.2189 33.3025 29.0991 33.2206 28.8754 33.3845C27.9489 34.081 27.3737 34.9579 27.3338 35.9576Z" fill="#20113D"/>
</svg>
