<svg width="30" height="51" viewBox="0 0 30 51" fill="none" xmlns="http://www.w3.org/2000/svg">
<path fill-rule="evenodd" clip-rule="evenodd" d="M14.4937 0.507177C15.2779 0.463276 16.0259 0.624247 16.7956 0.894972C16.7702 0.967555 16.7466 1.03889 16.7234 1.10898C16.6672 1.27913 16.6134 1.44193 16.5414 1.59739C16.32 2.0765 16.095 2.5556 15.8699 3.03471L15.8699 3.03476L15.8699 3.0348L15.8699 3.03484L15.8699 3.03489L15.8698 3.03493L15.8698 3.03498L15.8698 3.03502L15.8698 3.03507L15.8698 3.03511L15.8697 3.03515C15.6446 3.51441 15.4195 3.99367 15.198 4.47293L15.1974 4.47428C15.0782 4.73279 15.0201 4.85867 14.9225 4.91174C14.8298 4.96211 14.7015 4.9469 14.4514 4.91725L14.4065 4.91194C14.1524 4.88267 13.9999 4.77292 13.9636 4.52415C13.9481 4.41929 13.9286 4.31391 13.9091 4.20843C13.855 3.91646 13.8008 3.62369 13.8329 3.33881C13.913 2.63491 14.0429 1.93555 14.1725 1.23716L14.1726 1.23691L14.1726 1.23667L14.1726 1.23646L14.1727 1.23624L14.1727 1.23603L14.1728 1.23581L14.1728 1.23559L14.1728 1.23537L14.1729 1.23514L14.1731 1.23385C14.2077 1.04768 14.2422 0.861571 14.2758 0.675466C14.2903 0.609614 14.4138 0.514494 14.4937 0.507177ZM9.12045 2.16109C9.28234 2.40215 9.44201 2.64141 9.60054 2.87899C10.082 3.60051 10.5531 4.30648 11.0448 5.00004C11.2263 5.26345 11.4732 5.49759 11.8726 5.33662C12.4826 5.10248 12.6351 4.94151 12.4535 4.29762C12.2363 3.51498 12.3711 2.76239 12.5064 2.00717L12.5065 2.00676C12.5204 1.92898 12.5344 1.85117 12.5479 1.7733C12.5988 1.49526 12.5915 1.18795 12.5262 0.909905C12.4971 0.778201 12.2357 0.580645 12.134 0.602596C11.023 0.880637 10.0499 1.4294 9.12045 2.16109ZM6.74778 8.45816C7.25653 8.83243 7.76676 9.2078 8.28603 9.58772C8.11176 10.4292 7.66154 10.9048 6.78288 10.9999C5.57019 11.1243 4.5463 10.6267 3.62407 9.8804C3.57324 9.83649 3.55146 9.67552 3.58776 9.60235C3.64173 9.48138 3.69543 9.36015 3.74917 9.23886C3.9847 8.70724 4.22079 8.17438 4.48094 7.65606C4.55078 7.5103 4.66517 7.3887 4.77467 7.2723C4.82457 7.21926 4.87345 7.16729 4.91664 7.11461C5.53349 7.56483 6.13957 8.01071 6.74778 8.45816ZM7.07249 12.9298C5.70005 12.5859 4.37117 12.2494 2.94063 11.8835C2.90998 12.0533 2.87575 12.2286 2.84076 12.4077L2.84075 12.4077C2.77625 12.7379 2.70921 13.0811 2.65742 13.4274C2.6077 13.7553 2.57486 14.086 2.54139 14.4232C2.52109 14.6276 2.50056 14.8345 2.47588 15.0444C3.62322 15.6224 4.7996 15.7834 5.96146 15.1103C6.78929 14.642 7.11606 13.8664 7.07249 12.9298ZM2.52687 16.8089C2.30903 17.965 2.4833 19.0552 2.88996 20.1162C2.92626 20.204 3.02067 20.2991 3.10781 20.3284C4.82155 20.9064 6.75314 19.7503 7.02182 18.1918C7.05813 17.9796 7.07266 17.7528 7.05813 17.5406C6.97099 16.6114 6.79671 16.4797 5.89627 16.6114L5.63686 16.6493H5.63684H5.63682H5.6368H5.63679H5.63677H5.63675H5.63674H5.63672H5.6367H5.63668H5.63667H5.63665H5.63663H5.63662H5.6366H5.63658H5.63656C5.01865 16.74 4.40006 16.8308 3.77588 16.8821C3.5017 16.9022 3.22067 16.874 2.93046 16.8449L2.93033 16.8449L2.9303 16.8449L2.93025 16.8449L2.93022 16.8449C2.79776 16.8316 2.66339 16.8181 2.52687 16.8089ZM7.40654 23.671C7.98746 22.4271 7.80593 21.5345 6.82561 20.7589C5.80898 21.5345 4.6326 21.8198 3.36907 21.8637C3.28193 21.8637 3.1367 21.9881 3.11492 22.0832C2.91885 23.0125 3.19479 23.8393 3.71037 24.6002C3.75164 24.6603 3.83059 24.6912 3.91974 24.7261L3.91976 24.7261C3.97175 24.7465 4.02722 24.7682 4.08071 24.7978L4.04758 24.8203L4.00671 24.8483L4.00668 24.8483C3.94683 24.8895 3.88853 24.9297 3.82655 24.9661C2.50494 25.7636 1.43748 26.8099 0.805716 28.2367C-0.02211 30.1172 -0.319834 32.0562 0.428114 34.0537C0.562735 34.4127 0.686562 34.7783 0.810188 35.1433C0.913292 35.4477 1.01626 35.7517 1.12523 36.0512C1.48831 37.0609 1.51736 38.0999 1.22689 39.1096C0.37002 42.0583 1.17606 44.7656 2.31614 47.4362C2.41618 47.6595 2.57952 47.8614 2.73695 48.0561L2.74457 48.0655C2.96242 48.3362 3.24562 48.424 3.58692 48.3069C3.92822 48.1826 4.17511 47.9557 4.16059 47.5972C4.14606 47.1362 4.08797 46.6753 3.97905 46.229C3.8956 45.8743 3.794 45.5234 3.6924 45.1724L3.69239 45.1724L3.69238 45.1723L3.69237 45.1723L3.69236 45.1722L3.69234 45.1722L3.69233 45.1721L3.69232 45.1721L3.69231 45.1721L3.6923 45.172L3.69229 45.172L3.69228 45.1719L3.69226 45.1719L3.69225 45.1718L3.69224 45.1718L3.69223 45.1717L3.69222 45.1717L3.69221 45.1716C3.59055 44.8204 3.48889 44.4692 3.40538 44.1144C3.17301 43.112 3.47073 42.2852 4.28404 41.6632C4.31884 41.6375 4.3529 41.611 4.3867 41.5848C4.45867 41.5289 4.52943 41.4739 4.60355 41.4291C5.83076 40.7193 6.58597 39.6072 7.21047 38.3706C7.38487 38.0192 7.61055 37.6918 7.83591 37.365C7.93897 37.2155 8.04197 37.0661 8.13996 36.9146L8.2271 36.9585C8.27067 37.1633 8.31515 37.3682 8.35963 37.5731C8.49306 38.1877 8.62649 38.8023 8.73541 39.4169C9.22194 42.0876 10.7905 44.0997 12.6059 45.9729C12.7849 46.1605 13.0205 46.2983 13.2429 46.4284L13.2521 46.4338C13.5571 46.6168 13.8694 46.6168 14.1598 46.3753C14.4576 46.1265 14.5665 45.8119 14.4358 45.4607C14.3051 45.1241 14.1381 44.7948 13.9347 44.4949C13.7239 44.188 13.4962 43.8937 13.2687 43.5997L13.2686 43.5996L13.2683 43.5993C13.0729 43.3467 12.8775 43.0942 12.693 42.8339C11.8289 41.6193 11.7926 40.7632 12.6422 39.5486C13.3175 38.5755 13.7822 37.5145 14.1962 36.3658C14.3116 36.4199 14.425 36.47 14.5361 36.519L14.5365 36.5192C14.7258 36.6028 14.9083 36.6834 15.0821 36.7755C16.8684 37.756 17.9649 39.2999 18.6185 41.1949C18.8839 41.9508 19.1127 42.7205 19.3412 43.4894L19.3415 43.4905C19.4005 43.6888 19.4594 43.8871 19.5189 44.0851C19.7295 44.7875 20.0708 45.4095 20.5356 45.9655C20.7124 46.1758 20.889 46.386 21.0655 46.5961L21.0668 46.5977C21.8976 47.5865 22.7268 48.5736 23.5709 49.5508C23.8106 49.8289 24.101 50.0923 24.4133 50.2898C24.9797 50.6484 25.5316 50.5386 26.0544 50.0337C26.432 49.6679 26.4974 49.2142 26.1561 48.6362C25.9603 48.3033 25.7078 48.0015 25.4594 47.7047L25.4592 47.7045L25.4588 47.704C25.4126 47.6488 25.3665 47.5937 25.321 47.5387C25.1757 47.3631 25.0087 47.1948 24.8344 47.0484C23.3603 45.7826 22.9972 44.1071 23.0626 42.2705C23.0732 41.9622 23.1105 41.6538 23.1469 41.3538C23.1606 41.241 23.1741 41.1293 23.186 41.0193C23.4135 40.9756 23.6383 40.9318 23.8581 40.889C24.2629 40.8101 24.6511 40.7345 25.0087 40.6681C25.1441 40.9687 25.2708 41.2758 25.3977 41.5836L25.3978 41.5837C25.6725 42.2497 25.9483 42.9185 26.3158 43.529C26.8564 44.429 27.4969 45.2667 28.1372 46.1042C28.2882 46.3016 28.4391 46.499 28.5887 46.6972C28.8429 47.0338 29.1842 47.3045 29.6489 47.1948C29.8958 47.1362 30.0846 46.4631 29.9611 45.9875C29.845 45.5412 29.707 45.0875 29.4819 44.6924C28.4798 42.9144 28.0949 40.9608 27.8262 38.9779C27.6883 37.9682 27.0928 37.5145 26.0907 37.7121C24.2172 38.0853 22.3364 38.2682 20.4266 38.0999C20.2959 38.0853 20.1652 38.056 20.0345 38.0267C18.6838 37.7048 18.1465 36.4463 18.8436 35.2244C18.8654 35.1805 18.8872 35.1366 18.9235 35.1C19.5727 34.4404 19.9246 33.6211 20.2779 32.7984C20.4028 32.5076 20.5278 32.2165 20.6663 31.9318C20.9422 31.3757 21.465 30.9074 21.9661 30.4977C22.5833 30.0001 23.3385 29.7513 24.1155 29.583C24.2245 29.5611 24.3842 29.4587 24.406 29.3709C24.4278 29.2684 24.3406 29.0782 24.2535 29.0343C24.1981 29.0079 24.1423 28.9808 24.0862 28.9535C23.7532 28.7916 23.4096 28.6245 23.0553 28.5806C22.4744 28.5075 21.8717 28.5221 21.2835 28.5806C20.63 28.6465 20.049 28.4416 19.5044 28.1782C18.9235 27.9002 18.3716 27.5197 17.8488 27.1392C16.4182 26.0929 14.9731 25.0758 13.332 24.3807C11.5747 23.6271 9.75204 23.3783 7.86402 23.6564C7.72605 23.6417 7.57355 23.6491 7.40654 23.671ZM15.3719 22.2624C14.791 22.6283 14.1592 22.7893 13.4766 22.7893C12.8231 22.7673 12.1986 22.6356 11.6685 22.2259C11.0803 21.7795 10.8552 21.121 11.1965 20.4844C11.4143 20.0838 11.7179 19.7326 12.0216 19.3814C12.1228 19.2644 12.224 19.1473 12.322 19.0284C12.3728 18.9699 12.4963 18.9479 12.5834 18.9552C14.1592 19.1089 15.3792 20.1991 15.6624 21.5747C15.735 21.9112 15.6406 22.0942 15.3719 22.2624ZM7.48604 3.44272C8.31386 4.07197 9.47573 5.50608 10.2672 6.85971L10.1856 6.96378L10.1856 6.96383C9.99827 7.20251 9.82137 7.42795 9.65001 7.66456C9.49751 7.87675 9.31597 7.92797 9.05455 7.84749C7.71115 7.41579 6.78892 6.44996 5.81586 5.41096C6.38227 4.74513 6.93415 4.09392 7.48604 3.44272ZM18.8145 7.93573C19.4129 7.4164 20.1417 7.32562 20.8749 7.23431C21.0404 7.2137 21.2061 7.19306 21.3706 7.16746C21.7482 7.10892 22.1258 6.99917 22.4889 6.8821C22.5688 6.85283 22.685 6.7065 22.6704 6.63333C22.5615 5.90896 22.3364 5.22849 21.7337 4.76021C21.632 4.67972 21.465 4.6285 21.3488 4.64314C20.4629 4.78216 19.6423 5.08947 18.9089 5.60896C18.8218 5.67482 18.7346 5.74067 18.6548 5.81384C17.8995 6.51626 17.9504 7.3138 18.8145 7.93573ZM19.0979 19.9406C18.3644 18.6236 15.1693 17.3651 14.3415 18.0748C14.3415 18.0968 14.3415 18.1333 14.356 18.1407C15.3436 19.004 16.0552 20.0943 16.7451 21.1991C16.9121 21.4698 17.0791 21.4845 17.3405 21.3967C17.9505 21.1918 18.6476 20.6211 19.0979 19.9406ZM23.9769 34.1417C23.868 34.7051 23.6429 34.8734 23.0619 34.8881C22.9599 34.8689 22.8578 34.8537 22.7563 34.8386C22.5471 34.8074 22.3401 34.7765 22.1397 34.7125C21.4862 34.5149 21.203 34.0539 21.3264 33.3735C21.37 33.1247 21.4644 32.8832 21.5733 32.6564C21.9654 31.8589 22.6117 31.2955 23.3524 30.8418C23.6066 30.6882 23.9115 30.5931 24.202 30.5418C24.3363 30.5158 24.4852 30.5527 24.6331 30.5893C24.6933 30.6042 24.7532 30.6191 24.812 30.6296C24.7997 30.6833 24.7903 30.74 24.7808 30.7969C24.7568 30.9415 24.7325 31.088 24.6595 31.193C24.2383 31.8003 24.1149 32.4808 24.0786 33.1979C24.064 33.5125 24.035 33.8344 23.9769 34.1417ZM22.6335 33.0735C22.314 33.0735 22.0308 33.3588 22.038 33.6808C22.0401 33.7738 22.0636 33.8616 22.1037 33.9396C22.0641 33.862 22.0409 33.7748 22.0388 33.6823C22.0388 33.3604 22.3148 33.075 22.6343 33.075C22.8599 33.075 23.0579 33.2041 23.1564 33.3948C23.0581 33.2032 22.8597 33.0735 22.6335 33.0735ZM19.0325 9.9669L19.8761 10.0371L19.8763 10.0371L19.8766 10.0371L19.877 10.0371C20.9827 10.1289 22.0663 10.2189 23.1498 10.3181C23.4694 10.3474 23.571 10.223 23.6001 9.923C23.6582 9.27911 23.4403 8.77425 22.9029 8.42304C21.9952 7.83769 20.3759 7.94012 19.5481 8.64254C19.1269 8.99375 18.9454 9.44008 19.0325 9.9669ZM18.379 1.54493C19.2504 2.02052 20.0782 2.50344 20.6591 3.33025C19.323 4.12047 18.0304 4.88874 16.7379 5.66433C16.4982 5.28385 16.4692 5.02776 16.6435 4.49363C16.9748 3.46487 17.602 2.60739 18.2379 1.73808L18.379 1.54493ZM16.4039 16.7444C17.3096 17.0547 18.0374 17.6155 18.7793 18.187L18.7793 18.187C19.227 18.532 19.6798 18.8808 20.1799 19.181C20.2484 19.0723 20.3166 18.9646 20.3843 18.8575L20.3844 18.8575C20.6544 18.4307 20.9179 18.0143 21.1675 17.5932C21.2038 17.5347 21.182 17.3664 21.1239 17.3225C20.1799 16.5761 19.1633 15.9762 17.9216 15.9176C17.3043 15.903 16.7524 16.064 16.4039 16.7444ZM23.3097 11.8865C23.2952 12.4859 23.2803 13.0999 22.8958 13.6042C22.7449 13.5542 22.5957 13.5037 22.4475 13.4535L22.4474 13.4535L22.4473 13.4534C22.0534 13.32 21.6668 13.1891 21.2764 13.0774C20.5866 12.8945 19.8967 12.7262 19.1996 12.5726C18.9382 12.514 18.8801 12.3823 18.9164 12.1335C19.0108 11.4458 19.4828 11.0214 20.2816 10.9921C21.3055 10.9482 22.2495 11.2921 23.1717 11.7019C23.2371 11.7311 23.3097 11.8262 23.3097 11.8848L23.3097 11.8865ZM20.7452 34.1562C20.5902 34.3471 20.4515 34.515 20.3221 34.6715C20.1789 34.8449 20.0471 35.0044 19.9174 35.1659C19.8729 35.2215 19.8265 35.2758 19.7802 35.3299L19.7802 35.33C19.668 35.4612 19.5567 35.5916 19.4744 35.7366C19.2058 36.2049 19.3365 36.7171 19.8303 36.9293C20.2224 37.0975 20.6581 37.2073 21.0793 37.2512C22.2048 37.3756 23.3158 37.2658 24.4051 36.9366C24.3325 36.4244 24.1001 36.1903 23.5918 36.139C23.3381 36.1162 23.0815 36.1076 22.8257 36.0991H22.8257H22.8256H22.8256C22.6714 36.0939 22.5175 36.0888 22.3646 36.0805C21.377 36.022 21.2172 35.8683 21.0212 34.9025C20.9871 34.7406 20.9203 34.5819 20.8494 34.4133C20.8146 34.3305 20.7787 34.2453 20.7452 34.1562ZM21.6611 16.2672C20.4992 15.6599 19.3156 15.1331 18.0012 14.8697C18.19 13.9331 18.8073 13.516 19.7803 13.6404C20.7606 13.7575 21.632 14.1672 22.4308 14.7306C22.5107 14.7892 22.6123 14.9209 22.5906 14.9794C22.4308 15.3892 22.2638 15.8062 22.0532 16.194C22.0096 16.2672 21.7555 16.3184 21.6611 16.2672ZM24.8492 32.6061C24.8492 33.367 24.9726 33.4914 25.5535 33.3817C25.7932 33.3378 26.0473 33.2353 26.2434 33.089C26.9986 32.5256 27.2092 31.1646 26.6863 30.411C26.5629 30.2354 26.454 30.1622 26.2507 30.3086C25.4083 30.9305 24.8855 31.7134 24.8492 32.6061Z" fill="#F58021"/>
</svg>
