<svg width="53" height="47" viewBox="0 0 53 47" fill="none" xmlns="http://www.w3.org/2000/svg">
<path d="M12.6769 43.4852C12.408 42.1008 12.3213 40.7251 12.5641 39.3494C12.9457 37.164 14.0297 35.379 15.7728 34.0469C16.64 33.3851 17.6373 32.8975 18.5739 32.3229C19.1896 31.9485 19.8487 31.6176 20.3777 31.1474C21.7739 29.8849 23.1094 28.5615 24.4709 27.2641C25.2774 26.4979 26.0753 25.723 26.9338 24.8958C26.3528 24.8523 25.8324 24.8436 25.3208 24.7652C24.8091 24.6869 24.2975 24.5563 23.9246 24.0338C24.1067 24.0251 24.2368 24.0164 24.3669 24.0164C25.737 23.9729 26.4308 23.2763 26.4568 21.9442C26.4742 21.2999 26.3181 20.6468 26.2314 20.0025C25.8411 17.2772 26.5175 14.8219 28.1132 12.6103C28.2173 12.4623 28.33 12.3055 28.4601 12.1227C28.0178 12.0705 27.6189 12.053 27.2373 11.966C26.8644 11.8789 26.5175 11.7222 26.1533 11.6003C26.162 11.5567 26.1707 11.5132 26.1793 11.4784C26.4655 11.4174 26.7517 11.3652 27.0292 11.2955C29.0758 10.7557 30.5761 9.56284 31.4866 7.61248C31.8682 6.80273 32.3018 6.0104 32.7875 5.2616C33.646 3.94684 34.8688 3.11097 36.3864 2.71045C36.5251 2.67563 36.6552 2.63209 36.8373 2.57985C36.5598 2.41442 36.291 2.30123 36.0915 2.10967C35.9181 1.94424 35.8314 1.69174 35.7533 1.40441C36.4731 1.6482 36.9847 1.30863 37.5051 1.00388C38.3896 0.481466 39.3089 0.0896522 40.3669 0.133187C41.6677 0.194136 42.6563 0.84716 43.4801 1.81363C43.5929 1.94424 43.6969 2.08355 43.8097 2.23157C44.5121 1.71786 45.2146 1.85717 45.865 2.29252C46.2292 2.53631 46.5154 2.90201 46.8623 3.18934C47.4173 3.65951 47.955 4.17322 48.5707 4.56504C48.8742 4.75659 49.3165 4.72177 49.7674 4.80884C50.0623 5.65341 49.6113 6.2629 48.111 6.84627C48.484 7.49929 48.8568 8.15232 49.2297 8.80534C49.5073 9.28422 49.7241 9.7544 49.5593 10.3639C49.4899 10.6425 49.672 11.0517 49.8541 11.3217C50.3224 12.0008 50.8514 12.6364 51.3544 13.2894C51.6146 13.6377 51.8661 13.9947 52.1176 14.343C52.3604 14.6825 52.3604 15.0134 52.1089 15.3443C51.788 15.7535 51.5105 16.215 51.1203 16.5458C50.5392 17.0334 50.0623 17.5907 49.5766 18.174C48.9002 18.9925 47.9289 19.0273 47.1311 18.3134C46.9316 18.1305 46.7148 17.9303 46.5934 17.6952C46.3159 17.1379 45.839 16.9289 45.2926 16.7809C44.7723 16.6416 44.252 16.5197 43.749 16.3456C43.3327 16.1976 42.9425 15.9973 42.5436 15.8145C42.4742 16.0844 42.5002 16.3108 42.8471 16.5458C43.3501 16.8767 43.8877 17.1466 44.4427 17.3991C44.6856 17.5123 44.8243 17.6168 44.911 17.8867C45.2926 19.1492 45.7002 20.403 46.1165 21.6481C46.5241 22.8758 46.5587 24.1383 46.5154 25.4183C46.4634 26.8549 46.2292 28.2393 45.7956 29.5976C45.4834 30.5641 45.1365 31.191 44.6942 31.6263C44.3994 30.8514 44.1132 30.0852 43.8184 29.3277C43.775 29.3364 43.7316 29.3451 43.6883 29.3538C43.7577 30.12 43.801 30.8862 43.9051 31.6525C44.382 35.0133 45.1105 38.3307 46.0818 41.5871C46.2119 42.0051 46.446 42.4143 46.6975 42.7713C47.1658 43.433 47.8422 43.6594 48.6314 43.5897C49.5419 43.5114 50.0189 43.79 50.227 44.6781C50.3831 45.3572 50.3918 46.0712 50.4699 46.8026C47.8075 46.8026 45.2753 46.8026 42.6476 46.8026C42.5696 45.7926 42.5175 44.7826 42.3961 43.7813C42.3354 43.2414 42.2574 42.6755 42.0146 42.2053C41.4769 41.1779 40.8438 40.2114 40.2281 39.2275C39.3522 37.8344 38.459 36.45 37.5831 35.0743C35.8053 35.8144 33.9582 36.5893 32.059 37.3729C31.9983 37.8692 31.9289 38.4787 31.8595 39.0795C31.7642 39.9328 31.3479 40.5945 30.6628 41.0647C29.9083 41.5784 29.1105 42.0138 28.33 42.4839C28.1219 42.6145 27.9137 42.7539 27.7056 42.8845C27.723 42.9367 27.7316 42.9889 27.749 43.0412C28.0091 43.076 28.278 43.1457 28.5295 43.1283C29.5354 43.0586 30.5414 42.9628 31.556 42.8757C31.7988 42.8583 32.0417 42.8322 32.2932 42.8322C34.5739 42.8235 36.0222 44.4691 35.7533 46.8113C35.6146 46.82 35.4758 46.8287 35.3371 46.8287C27.9831 46.8287 20.6205 46.8374 13.2666 46.8287C12.5208 46.8287 11.749 46.7939 11.0292 46.611C10.4395 46.463 9.78907 46.1757 9.36414 45.749C7.67308 44.0599 6.78853 42.0399 7.56034 39.628C8.03731 38.1479 8.69639 36.7199 9.32945 35.292C9.74571 34.3516 10.214 33.4374 10.3788 32.4013C10.6736 30.5815 9.88446 28.9359 8.34083 28.1697C7.34354 27.6734 5.68717 28.4396 5.4617 29.5105C5.43568 29.6411 5.50506 29.8675 5.60045 29.9285C6.35492 30.4074 6.71048 31.1213 6.87525 31.9659C7.10072 33.1413 6.87525 34.9959 6.39828 35.9189C6.15546 35.5445 5.91265 35.1701 5.66983 34.7957C5.79991 36.3629 5.17552 37.5819 4.22159 38.6703C4.16956 38.6529 4.1262 38.6529 4.11752 38.6442C3.7533 37.6603 3.07687 36.9289 2.29638 36.2584C1.91481 35.9276 1.61996 35.5009 1.28175 35.1091C1.17768 35.3094 1.03026 35.5967 0.882833 35.884C0.440557 35.5009 0.163049 34.6999 0.284458 33.9163C0.466572 32.7669 0.952209 31.7918 2.1056 31.2955C2.21833 31.2432 2.30506 31.0691 2.35709 30.9298C2.9121 29.467 3.74462 28.2132 5.11481 27.4034C6.22484 26.7417 7.45628 26.4892 8.73975 26.6895C9.9365 26.8723 10.6823 27.656 11.1072 28.7617C11.7143 30.3377 11.6796 31.9659 11.3067 33.5593C11.0379 34.726 10.6129 35.8579 10.162 36.9724C9.77173 37.9563 9.3468 38.9228 9.22539 39.9937C9.01726 42.0486 10.5435 43.642 12.6769 43.4852Z" fill="#20113D"/>
</svg>
