<svg width="96" height="50" viewBox="0 0 96 50" fill="none" xmlns="http://www.w3.org/2000/svg">
<path fill-rule="evenodd" clip-rule="evenodd" d="M75.3079 31.6763C76.7887 31.6763 77.7778 33.1169 77.2745 34.5457C77.0264 35.2613 76.5398 35.8058 76.0527 36.3508C76.0112 36.3973 75.9697 36.4437 75.9283 36.4903C75.583 36.8756 75.2494 37.2729 74.9626 37.6997C74.5529 38.3104 74.348 39.0159 74.2134 39.7392C74.1724 39.9644 74.1197 40.1838 74.0495 40.3972C73.6866 41.5711 72.7267 42.1224 71.562 41.7608C70.128 41.3162 69.3262 40.249 68.9399 38.8321C68.6648 37.8124 68.8228 36.846 69.4374 35.9923C69.6247 35.7255 69.9407 35.5299 70.2334 35.3757C70.4638 35.2542 70.7257 35.1924 70.9836 35.1316C71.0401 35.1183 71.0965 35.105 71.1523 35.0911C71.8312 34.9251 72.2995 34.5161 72.6448 33.9113C72.9257 33.4193 73.2242 32.9272 73.5871 32.4944C74.0261 31.9727 74.6114 31.6763 75.3079 31.6763ZM90.3669 37.8835C90.2909 39.425 89.6587 40.6522 88.336 41.4703C87.8151 41.7905 87.2473 41.9446 86.6269 41.832C85.9831 41.7134 85.509 41.3636 85.269 40.747C85.1227 40.3617 85.0173 39.9585 84.9354 39.5554C84.6954 38.3934 84.1687 37.4033 83.3375 36.5555C82.9161 36.1227 82.5357 35.6425 82.1962 35.1445C81.886 34.6939 81.7221 34.1663 81.7865 33.6031C81.9796 31.9372 83.7648 31.1368 85.1402 32.0972C85.7607 32.53 86.1821 33.1347 86.4923 33.8165C86.8318 34.5457 87.3878 34.9489 88.1428 35.1327C88.4764 35.2157 88.8101 35.3402 89.1203 35.4943C90.0158 35.939 90.2792 36.763 90.3611 37.6938C90.3699 37.7338 90.3688 37.7838 90.3677 37.8338V37.8339C90.3674 37.8456 90.3672 37.8573 90.367 37.8689C90.367 37.8738 90.3669 37.8787 90.3669 37.8835ZM80.1443 41.9778C79.968 41.9495 79.7917 41.9212 79.6158 41.8912C79.6158 41.897 79.6152 41.9033 79.6145 41.9099C79.6132 41.9237 79.6118 41.9385 79.6158 41.9505C79.4987 41.9594 79.3816 41.9653 79.2646 41.9713C79.1475 41.9772 79.0305 41.9831 78.9134 41.992C78.2462 42.0454 77.5906 42.158 77.0054 42.5019C75.8991 43.154 75.8231 44.5057 76.859 45.2646C77.0483 45.404 77.2597 45.5146 77.47 45.6247C77.5458 45.6644 77.6215 45.704 77.696 45.7448C77.8079 45.8071 77.9223 45.8668 78.0368 45.9266C78.2274 46.0262 78.4181 46.1257 78.5974 46.2369C78.89 46.4207 79.1007 46.6875 79.1183 47.0491C79.1592 47.891 78.7612 48.5905 77.7955 48.5965C77.6024 48.5965 77.3916 48.5965 77.2161 48.5313C76.9674 48.4411 76.7252 48.3362 76.4827 48.2312C76.2628 48.1361 76.0426 48.0408 75.8172 47.9562C75.6826 47.9028 75.4777 47.9028 75.3665 47.9799C75.2729 48.0451 75.2202 48.2585 75.2378 48.389C75.2553 48.4957 75.3899 48.6083 75.4953 48.6854C77.0522 49.7703 78.7671 50.1853 80.6342 49.9245C81.7814 49.7644 82.829 49.3316 83.7772 48.6498C84.0113 48.4838 84.0699 48.2645 83.9469 48.0688C83.8182 47.8673 83.6075 47.8317 83.3558 47.974C83.3119 47.9977 83.2695 48.0214 83.2271 48.0451C83.1846 48.0688 83.1422 48.0925 83.0983 48.1163C82.513 48.4364 81.9043 48.6558 81.2253 48.5905C80.6693 48.5313 80.283 48.1933 80.1425 47.6538C79.9786 47.0195 80.1074 46.5808 80.5991 46.2488C80.7722 46.1318 80.9591 46.0369 81.1461 45.9419C81.2815 45.8731 81.4169 45.8042 81.5472 45.727C81.6228 45.6829 81.6994 45.64 81.7761 45.597C82.0502 45.4434 82.3253 45.2893 82.5539 45.0808C83.2973 44.405 83.2329 43.2548 82.4252 42.662C82.1794 42.4782 81.8867 42.3181 81.5941 42.247C81.1172 42.1338 80.6309 42.0558 80.1443 41.9778Z" fill="black"/>
<path fill-rule="evenodd" clip-rule="evenodd" d="M26.1485 49.9999V45.1894H7.53358L25.5791 23.1924V19.3877H0.306599V24.1982H18.0456L0 46.1952V49.9999H26.1485ZM54.7789 34.6938C54.7789 40.1344 50.3593 44.5593 44.8896 44.5593C39.4199 44.5593 35.0002 40.1344 35.0002 34.6938C35.0002 29.2532 39.4199 24.8283 44.8896 24.8283C50.3593 24.8283 54.7789 29.2532 54.7789 34.6938ZM60.2195 34.6938C60.2195 43.1471 53.3561 49.9999 44.8896 49.9999C36.4231 49.9999 29.5596 43.1471 29.5596 34.6938C29.5596 26.2405 36.4231 19.3877 44.8896 19.3877C53.3561 19.3877 60.2195 26.2405 60.2195 34.6938Z" fill="black"/>
<path fill-rule="evenodd" clip-rule="evenodd" d="M52.3476 4.98807H49.8291V16.1798H52.3476V4.98807ZM49.95 2.70362C50.2589 2.99703 50.6417 3.14374 51.0984 3.14374C51.5685 3.14374 51.9514 2.99005 52.2469 2.68266C52.5558 2.3613 52.7103 1.97008 52.7103 1.509C52.7103 1.07586 52.5558 0.719568 52.2469 0.440123C51.9379 0.146708 51.5551 0 51.0984 0C50.6417 0 50.2589 0.153694 49.95 0.461081C49.6411 0.754498 49.4866 1.12476 49.4866 1.57187C49.4866 2.01898 49.6411 2.39623 49.95 2.70362ZM44.0051 0.628748H46.5236V16.1798H44.0051V0.628748ZM19.1203 15.593C19.9933 16.082 20.9739 16.3265 22.0619 16.3265C23.1633 16.3265 24.1505 16.082 25.0236 15.593C25.8967 15.1039 26.575 14.4263 27.0586 13.56C27.5556 12.6798 27.804 11.6877 27.804 10.5839C27.804 9.48013 27.5556 8.49509 27.0586 7.62882C26.575 6.76254 25.8967 6.08489 25.0236 5.59586C24.1505 5.10684 23.1633 4.86232 22.0619 4.86232C20.9739 4.86232 19.9933 5.10684 19.1203 5.59586C18.2472 6.08489 17.5622 6.76254 17.0652 7.62882C16.5816 8.49509 16.3398 9.48013 16.3398 10.5839C16.3398 11.6877 16.5816 12.6798 17.0652 13.56C17.5622 14.4263 18.2472 15.1039 19.1203 15.593ZM24.3587 13.1199C23.7543 13.7626 22.9887 14.084 22.0619 14.084C21.1351 14.084 20.3694 13.7626 19.765 13.1199C19.174 12.4772 18.8785 11.6319 18.8785 10.5839C18.8785 9.53602 19.174 8.6907 19.765 8.04798C20.3694 7.40526 21.1351 7.0839 22.0619 7.0839C22.9887 7.0839 23.7543 7.40526 24.3587 8.04798C24.9632 8.6907 25.2654 9.53602 25.2654 10.5839C25.2654 11.6319 24.9632 12.4772 24.3587 13.1199ZM39.5812 6.09886C38.7618 5.2745 37.6738 4.86232 36.3172 4.86232C35.5247 4.86232 34.8128 4.99506 34.1815 5.26053C33.5502 5.526 33.0264 5.91722 32.61 6.43419V4.98807H30.2124V16.1798H32.7309V10.5211C32.7309 9.43123 32.9995 8.59988 33.5368 8.02702C34.0741 7.44019 34.8061 7.14678 35.7329 7.14678C36.5523 7.14678 37.1836 7.39828 37.6268 7.90127C38.0701 8.3903 38.2917 9.12384 38.2917 10.1019V16.1798H40.8102V9.76656C40.8102 8.14579 40.4005 6.92322 39.5812 6.09886ZM61.758 4.86232C63.1146 4.86232 64.2026 5.2745 65.0219 6.09886C65.8413 6.92322 66.251 8.14579 66.251 9.76656V16.1798H63.7325V10.1019C63.7325 9.12384 63.5108 8.3903 63.0676 7.90127C62.6243 7.39828 61.993 7.14678 61.1737 7.14678C60.2469 7.14678 59.5148 7.44019 58.9775 8.02702C58.4403 8.59988 58.1716 9.43123 58.1716 10.5211V16.1798H55.6531V4.98807H58.0507V6.43419C58.4671 5.91722 58.991 5.526 59.6223 5.26053C60.2536 4.99506 60.9655 4.86232 61.758 4.86232ZM79.6182 11.4223C79.6451 11.0869 79.6585 10.8284 79.6585 10.6468C79.6585 9.50109 79.4234 8.49509 78.9533 7.62882C78.4966 6.74857 77.8519 6.07092 77.0191 5.59586C76.1998 5.10684 75.2662 4.86232 74.2185 4.86232C73.1574 4.86232 72.2038 5.10684 71.3575 5.59586C70.5113 6.08489 69.8464 6.76953 69.3629 7.64978C68.8928 8.51605 68.6577 9.4941 68.6577 10.5839C68.6577 11.6877 68.8995 12.6798 69.383 13.56C69.88 14.4263 70.5785 15.1039 71.4784 15.593C72.3784 16.082 73.4193 16.3265 74.6014 16.3265C75.5282 16.3265 76.361 16.1728 77.0997 15.8654C77.8385 15.558 78.4496 15.1039 78.9332 14.5031L77.5833 12.8893C76.8176 13.6997 75.8438 14.1049 74.6618 14.1049C73.735 14.1049 72.9559 13.8674 72.3246 13.3923C71.7068 12.9033 71.324 12.2466 71.1762 11.4223H79.6182ZM72.1635 7.71265C72.7276 7.20965 73.4126 6.95815 74.2185 6.95815C75.0379 6.95815 75.7229 7.20965 76.2736 7.71265C76.8244 8.21565 77.1534 8.87234 77.2609 9.68273H71.1561C71.2769 8.85837 71.6127 8.20168 72.1635 7.71265ZM93.0237 31.6501C94.8185 30.4484 96 28.4041 96 26.0843C96 22.3859 92.9971 19.3877 89.2929 19.3877C86.9235 19.3877 84.8411 20.6144 83.6479 22.4665C87.9921 23.9574 91.45 27.3508 93.0237 31.6501ZM66.2604 31.6504C64.4654 30.4487 63.2839 28.4044 63.2839 26.0845C63.2839 22.3861 66.2868 19.3879 69.991 19.3879C72.3604 19.3879 74.4429 20.6147 75.636 22.4668C71.2919 23.9577 67.834 27.3511 66.2604 31.6504Z" fill="black"/>
</svg>
