<svg width="60" height="45" viewBox="0 0 60 45" fill="none" xmlns="http://www.w3.org/2000/svg">
<path fill-rule="evenodd" clip-rule="evenodd" d="M21.2527 27.8338C18.8342 28.5556 16.3968 28.4446 13.9408 26.8344C13.7523 27.0683 13.5592 27.3037 13.3641 27.5415L13.3636 27.5421L13.3636 27.5421L13.3636 27.5421L13.3636 27.5422L13.3635 27.5422C12.8796 28.1322 12.3835 28.737 11.9159 29.3699C11.5691 29.8604 11.2457 30.3693 10.9223 30.8783L10.9222 30.8783L10.9222 30.8784C10.5988 31.3873 10.2754 31.8963 9.92857 32.3867C9.15987 33.4786 8.87864 34.6631 8.95363 35.9772C9.04738 37.6614 8.37243 38.5127 6.7038 38.8088C3.2728 39.4196 0.198026 36.9026 0.179278 33.4786C0.179278 33.1443 0.173234 32.81 0.167211 32.4768C0.158232 31.9801 0.1493 31.486 0.160522 30.9986C0.192046 29.6916 0.766871 28.5547 1.33912 27.4228C1.44755 27.2084 1.55588 26.9941 1.66041 26.7789C1.93087 26.2253 2.20385 25.6725 2.47686 25.1197L2.47691 25.1196L2.47702 25.1194C3.49091 23.0664 4.50516 21.0128 5.39139 18.9131C6.69412 15.836 8.65109 13.1894 10.615 10.5334L10.615 10.5334L10.615 10.5334L10.615 10.5334C11.0253 9.97849 11.4359 9.4232 11.8409 8.86349C11.8604 8.8395 11.8811 8.81552 11.902 8.79121L11.9021 8.79118L11.9021 8.79111C11.9621 8.72167 12.0243 8.64959 12.0659 8.56737C14.2595 4.62525 18.1592 3.69986 22.1714 2.92254C23.1609 2.73405 24.1423 2.49797 25.1231 2.26202C26.261 1.98829 27.398 1.71476 28.546 1.51596C30.6458 1.1458 32.8019 0.849683 34.9392 0.775652C37.4703 0.683114 39.6076 1.84909 41.5013 3.45926C38.6327 2.01566 35.5579 1.51596 32.3707 1.58999C31.5645 1.6085 30.7583 1.68253 29.9521 1.77507C28.7897 1.90462 28.3022 2.75597 27.9835 3.73687C27.1586 6.2354 27.3273 8.69692 28.2085 11.1769C28.4209 11.7728 28.5533 12.4015 28.6852 13.0278L28.6852 13.0279C28.7745 13.4521 28.8636 13.8752 28.9772 14.2862C29.122 14.7985 29.2634 15.3125 29.4048 15.8267L29.4048 15.8267L29.4048 15.8268L29.4048 15.8268L29.4048 15.8268C29.9226 17.7091 30.4412 19.5946 31.1333 21.4117C31.4145 22.1705 32.3519 22.9108 33.1581 23.2069C36.3266 24.3359 39.5701 24.9466 42.9262 23.8177C47.1446 22.3926 49.3194 17.9507 47.7258 13.8235C47.2151 12.516 46.6094 11.2488 46.0011 9.97609C45.8947 9.75354 45.7882 9.53081 45.6822 9.30768C45.5851 9.10226 45.3853 8.93738 45.1893 8.77554C45.1203 8.71866 45.0519 8.66215 44.9885 8.60439C44.746 8.3773 44.4932 8.15631 44.2397 7.93468C43.7287 7.488 43.2148 7.0387 42.7762 6.53153C42.1575 5.80973 42.1762 4.90286 42.7199 4.12554C43.2449 3.36673 44.0886 3.18165 44.9697 3.32971C46.3384 3.55181 47.2196 4.38464 47.6696 5.62465C48.1008 6.82765 47.6883 7.86408 46.6196 8.77095C48.0258 9.91843 48.4945 11.5656 48.907 13.1943C49.0631 13.811 49.147 14.4474 49.2311 15.0854L49.2311 15.0855L49.2312 15.0855L49.2312 15.0856C49.3288 15.8261 49.4267 16.5686 49.6382 17.2845C49.9914 18.4699 50.4152 19.6393 50.8394 20.8098C51.2034 21.8141 51.5677 22.8192 51.888 23.8362C52.3039 25.138 52.6869 26.4508 53.0697 27.7626L53.0697 27.7627L53.0697 27.7628L53.0698 27.7629C53.3943 28.8754 53.7187 29.9872 54.0628 31.0912C54.2546 31.7064 54.5 32.3066 54.7452 32.9061L54.7453 32.9062L54.7454 32.9067L54.7455 32.9068L54.7455 32.9069C54.8837 33.2449 55.0219 33.5826 55.1503 33.9228C55.5611 34.9993 56.4916 35.4839 57.4137 35.9643C57.5856 36.0539 57.7572 36.1432 57.9251 36.2363C58.7875 36.7175 59.2375 37.3467 59.0125 38.3461C58.8062 39.29 58.1875 39.8823 57.0439 39.8453C54.7003 39.7527 52.3755 39.5306 50.0506 39.29C49.6569 39.253 49.2444 38.8459 48.9632 38.5127C47.3883 36.6434 45.8322 34.7557 44.2948 32.8679C43.2261 31.5539 42.4387 30.1103 42.0262 28.4631C41.8509 27.7853 41.4935 27.1412 41.1402 26.5046C41.0401 26.3242 40.9403 26.1444 40.845 25.9645C40.7513 25.7795 40.4888 25.6129 40.2826 25.5759L40.1345 25.5469C38.9467 25.3138 37.7652 25.082 36.7391 26.1126C36.4779 26.3889 36.0496 26.5368 35.6759 26.6659L35.6704 26.6678C35.0142 26.8899 34.7143 27.2971 34.958 27.9264C35.8229 30.2155 35.7576 32.5542 35.6921 34.8983V34.8984C35.6596 36.0604 35.6272 37.2238 35.7079 38.3832C35.7413 38.8273 35.8042 39.2715 35.8672 39.7157C35.9459 40.2709 36.0246 40.8262 36.0454 41.3814C36.0642 41.8071 35.8767 42.4178 35.5767 42.6399C33.0831 44.4907 30.2896 44.8053 27.421 43.7874C25.9961 43.2692 25.04 42.2513 24.815 40.5115C24.3838 36.9026 23.8026 33.3121 23.0526 29.7586C22.7825 28.4256 22.1326 27.1527 21.4994 25.9127C21.4293 25.7754 21.3594 25.6384 21.2902 25.5019C19.4904 21.9669 18.9842 18.3024 19.6216 14.3788C20.1466 11.1214 20.859 8.01214 23.0526 5.43958C23.505 4.91414 24.0425 4.46329 24.5778 4.01424L24.5779 4.01417C24.7967 3.83056 25.0152 3.64725 25.2274 3.45926C25.2594 3.43221 25.2936 3.40627 25.3281 3.38008L25.3283 3.37994L25.3284 3.37983L25.3285 3.3798C25.4356 3.29855 25.5457 3.21496 25.6024 3.08911C22.7151 3.12612 20.1091 3.92195 17.5405 5.10644C15.1343 6.19573 13.7554 8.13836 12.3593 10.1053C12.0475 10.5446 11.7348 10.9851 11.4097 11.4175C11.2785 11.6026 11.2785 11.9173 11.2972 12.1764C11.5725 14.7672 12.5845 17.1275 13.5944 19.483L13.6595 19.6349C13.8604 20.0844 13.9656 20.5811 14.0709 21.0778L14.0709 21.0779L14.0709 21.0779L14.0709 21.078C14.113 21.2766 14.1551 21.4752 14.2033 21.6708C14.3157 22.1705 14.4282 22.6887 14.4657 23.2069C14.4734 23.3123 14.4817 23.4183 14.49 23.5248L14.49 23.5248C14.5433 24.204 14.5979 24.9014 14.4845 25.5574C14.2595 26.7234 14.3532 27.075 15.5719 27.2601C15.965 27.2989 16.3613 27.3377 16.7594 27.3767C18.2602 27.5236 19.7857 27.6729 21.2527 27.8338ZM30.2896 10.4555C29.2022 10.0113 28.7522 8.95639 28.6023 7.71638C28.4335 6.36532 29.6709 4.68113 31.1146 4.18143C32.2582 3.79276 33.8706 4.42202 34.5081 5.53248C34.883 6.19876 35.033 6.73548 34.2081 7.30922C33.2747 7.95418 32.4077 8.6834 31.4722 9.47023L31.4722 9.47028L31.4721 9.4703C31.0923 9.7898 30.7011 10.1188 30.2896 10.4555ZM33.8518 16.1368C33.5144 17.5989 34.4705 18.7648 35.633 18.6723C35.7382 18.3411 35.8389 18.0168 35.9381 17.6969L35.9381 17.6968L35.9382 17.6965L35.9383 17.6963C36.1219 17.1047 36.3007 16.5282 36.4954 15.9517C36.547 15.8075 36.6182 15.6672 36.6893 15.5272C36.7733 15.3617 36.8571 15.1967 36.9079 15.0263C37.0579 14.4896 37.2266 13.7863 36.5329 13.6197C36.0267 13.5087 35.2205 13.6752 34.9018 14.0269C34.3956 14.5821 34.0206 15.3779 33.8518 16.1368ZM40.545 14.0639C40.6287 13.9537 40.7058 13.8336 40.7817 13.7155C40.9607 13.4367 41.133 13.1684 41.37 13.0645C41.6137 12.9534 42.1387 13.1755 42.4011 13.3976C42.459 13.4468 42.5171 13.4959 42.5753 13.5452L42.5754 13.5452C43.1966 14.0708 43.8303 14.6069 44.276 15.2669C44.5197 15.6555 44.426 16.3773 44.2573 16.8585C44.126 17.2102 43.6385 17.5803 43.2636 17.6543C43.0198 17.6913 42.6261 17.2472 42.3824 16.951C41.9699 16.4513 41.6137 15.9331 41.2575 15.3779C41.076 15.1347 40.9393 14.8561 40.7792 14.5299L40.7792 14.5299C40.7078 14.3844 40.6318 14.2294 40.545 14.0639ZM41.5269 20.7154L41.5387 20.7082C41.5334 20.6766 41.5266 20.6435 41.5195 20.6093C41.5017 20.5234 41.4825 20.4307 41.4825 20.338C41.3825 20.3134 41.2825 20.2805 41.1825 20.2476C40.9825 20.1818 40.7826 20.1159 40.5826 20.1159C39.8139 20.1159 39.0452 20.1345 38.2952 20.227C37.9953 20.264 37.639 20.4676 37.5078 20.6897C37.4328 20.8192 37.6765 21.2264 37.8828 21.4115C37.9923 21.5196 38.153 21.5582 38.3163 21.5975C38.4325 21.6255 38.5501 21.6537 38.6515 21.7076C38.8577 21.8187 39.2327 22.0407 39.2139 22.1333C39.1389 22.3924 38.9514 22.6515 38.7265 22.8366C38.6175 22.9321 38.4617 22.966 38.2691 23.0079C38.1634 23.0309 38.0465 23.0563 37.9203 23.0957C38.648 23.0486 39.3225 23.0015 39.9971 22.9544C40.3827 22.9274 40.7683 22.9005 41.1638 22.8736C40.9424 22.7765 40.6888 22.747 40.4446 22.7187C39.9441 22.6606 39.4832 22.6071 39.4202 21.9852C40.1843 21.5252 40.8559 21.1201 41.5269 20.7154Z" fill="#20113D"/>
</svg>
