<svg width="68" height="50" viewBox="0 0 68 50" fill="none" xmlns="http://www.w3.org/2000/svg">
<path fill-rule="evenodd" clip-rule="evenodd" d="M24.5399 31.0436C21.8031 31.8715 19.0451 31.7442 16.2659 29.8972C16.0524 30.1657 15.8337 30.436 15.6127 30.7091C15.0651 31.3858 14.5037 32.0796 13.9746 32.8056C13.5821 33.3682 13.2161 33.952 12.8502 34.5359C12.4842 35.1197 12.1182 35.7035 11.7258 36.2661C10.8559 37.5186 10.5377 38.8773 10.6225 40.3846C10.7286 42.3165 9.96486 43.2931 8.07668 43.6328C4.19423 44.3333 0.714882 41.4461 0.693667 37.5186C0.693667 37.1351 0.686827 36.7516 0.680012 36.3695C0.669851 35.7997 0.659745 35.233 0.672443 34.6739C0.708115 33.1746 1.35857 31.8705 2.00612 30.5722C2.12881 30.3262 2.2514 30.0804 2.36969 29.8335C2.67572 29.1985 2.98462 28.5645 3.29355 27.9304L3.29361 27.9303L3.29373 27.93C4.44104 25.5751 5.58874 23.2194 6.59159 20.8109C8.06572 17.2812 10.2802 14.2454 12.5025 11.1987C12.9668 10.5623 13.4314 9.92528 13.8897 9.28324C13.9118 9.2557 13.9352 9.22815 13.959 9.20024L13.959 9.20023L13.959 9.20022L13.959 9.20021L13.959 9.20021C14.0268 9.12056 14.0972 9.03789 14.1443 8.94357C16.6265 4.42167 21.0394 3.36019 25.5795 2.46854C26.6991 2.25233 27.8097 1.98152 28.9195 1.71088C30.2071 1.39689 31.4939 1.08312 32.7928 0.855085C35.1689 0.430493 37.6087 0.0908195 40.0273 0.00590102C42.8914 -0.100247 45.31 1.23722 47.4527 3.08419C44.2068 1.42828 40.7274 0.855091 37.1208 0.940009C36.2085 0.961239 35.2962 1.04616 34.384 1.15231C33.0686 1.30091 32.517 2.27747 32.1563 3.40264C31.2228 6.26864 31.4138 9.09218 32.4109 11.9369C32.6512 12.6204 32.8011 13.3416 32.9503 14.06L32.9503 14.0601C33.0514 14.5467 33.1522 15.032 33.2808 15.5035C33.4445 16.0907 33.6043 16.6798 33.7643 17.2691L33.7644 17.2696L33.7645 17.2701L33.7647 17.2706L33.7647 17.2707C34.3505 19.4298 34.9374 21.5927 35.7205 23.6769C36.0388 24.5473 37.0996 25.3965 38.0118 25.7362C41.5972 27.0312 45.2675 27.7318 49.0651 26.4368C53.8386 24.8021 56.2996 19.707 54.4963 14.9728C53.9185 13.4731 53.2331 12.0195 52.5448 10.5597L52.5447 10.5596L52.5447 10.5595L52.5438 10.5578C52.4237 10.303 52.3036 10.0481 52.1838 9.79276C52.0739 9.55713 51.8479 9.368 51.626 9.18236C51.548 9.11711 51.4706 9.05229 51.3988 8.98604C51.1245 8.7256 50.8385 8.47217 50.5517 8.218L50.5516 8.21795L50.5516 8.21789L50.5515 8.21784C49.9733 7.70546 49.3917 7.19008 48.8954 6.60832C48.1953 5.78036 48.2165 4.74011 48.8318 3.84847C49.4258 2.97805 50.3805 2.76576 51.3776 2.9356C52.9264 3.19035 53.9235 4.14568 54.4327 5.56806C54.9206 6.94799 54.4539 8.13684 53.2446 9.1771C54.8358 10.4933 55.3661 12.3828 55.8329 14.251C56.0096 14.9583 56.1046 15.6885 56.1997 16.4202C56.3102 17.2698 56.421 18.1216 56.6603 18.9427C57.06 20.3025 57.5395 21.6438 58.0196 22.9866C58.4315 24.1385 58.8437 25.2915 59.2062 26.458C59.6769 27.9515 60.1103 29.4574 60.5434 30.9622L60.5434 30.9623L60.5435 30.9626L60.5436 30.9628L60.5437 30.9631C60.9109 32.2389 61.2778 33.5139 61.6672 34.78C61.8842 35.4858 62.1619 36.1741 62.4393 36.8618L62.4393 36.8619L62.4394 36.8619L62.4394 36.862L62.4394 36.8621C62.5959 37.25 62.7523 37.6377 62.8977 38.0281C63.3626 39.2629 64.4155 39.8188 65.459 40.3699C65.6535 40.4726 65.8476 40.5751 66.0376 40.6818C67.0135 41.2338 67.5227 41.9556 67.2681 43.102C67.0347 44.1847 66.3346 44.8641 65.0404 44.8216C62.3885 44.7155 59.7578 44.4607 57.127 44.1847C56.6815 44.1423 56.2148 43.6752 55.8965 43.2931C54.1144 41.1489 52.3535 38.9835 50.6139 36.8181C49.4046 35.3107 48.5135 33.6548 48.0468 31.7654C47.8484 30.9879 47.444 30.2492 47.0442 29.5189C46.9309 29.3119 46.8179 29.1057 46.7102 28.8994C46.6041 28.6871 46.3071 28.496 46.0737 28.4536L45.9062 28.4204C44.5621 28.153 43.225 27.887 42.064 29.0692C41.7684 29.3861 41.2838 29.5558 40.861 29.7039L40.861 29.7039L40.8547 29.7061C40.1122 29.9609 39.7727 30.4279 40.0485 31.1497C41.0272 33.7755 40.9533 36.4582 40.8792 39.1471C40.8425 40.4801 40.8057 41.8146 40.8971 43.1445C40.9349 43.654 41.0061 44.1635 41.0773 44.673L41.0774 44.6731C41.1664 45.31 41.2555 45.9468 41.279 46.5837C41.3002 47.072 41.0881 47.7725 40.7486 48.0273C37.927 50.1502 34.7658 50.5112 31.5199 49.3435C29.9075 48.7491 28.8255 47.5815 28.5709 45.5859C28.0829 41.4461 27.4253 37.3276 26.5766 33.2515C26.271 31.7224 25.5355 30.2622 24.8191 28.8399C24.7398 28.6824 24.6606 28.5253 24.5824 28.3687C22.5457 24.3138 21.9729 20.1103 22.6942 15.6097C23.2882 11.8733 24.0944 8.30668 26.5766 5.35577C27.0886 4.75305 27.6968 4.23589 28.3025 3.72079L28.3026 3.72074L28.3026 3.72072L28.3026 3.72071C28.5503 3.5101 28.7975 3.29983 29.0376 3.08419C29.0739 3.05306 29.1128 3.0232 29.152 2.99305C29.2732 2.89985 29.3978 2.80397 29.462 2.6596C26.1948 2.70206 23.2458 3.61494 20.3393 4.97363C17.6165 6.22313 16.0562 8.45147 14.4763 10.7077C14.1235 11.2116 13.7697 11.7169 13.4018 12.2129C13.2533 12.4252 13.2533 12.7861 13.2745 13.0833C13.586 16.0553 14.7312 18.7627 15.8739 21.4646L15.9476 21.6389C16.175 22.1545 16.294 22.7242 16.4131 23.2939C16.4607 23.5218 16.5083 23.7497 16.5629 23.9741C16.6902 24.5473 16.8175 25.1418 16.8599 25.7362C16.8685 25.857 16.878 25.9787 16.8874 26.1008V26.1008C16.9476 26.8799 17.0095 27.6799 16.8811 28.4324C16.6265 29.7698 16.7326 30.1732 18.1116 30.3855C18.5565 30.43 19.0052 30.4745 19.4558 30.5192L19.456 30.5193C21.1541 30.6878 22.8801 30.859 24.5399 31.0436ZM34.7662 11.1117C33.5357 10.6022 33.0266 9.3921 32.8568 7.96971C32.6659 6.41995 34.0661 4.48806 35.6997 3.91486C36.9939 3.46904 38.8184 4.19085 39.5397 5.46462C39.9641 6.22889 40.1338 6.84455 39.2003 7.50267C38.1441 8.24248 37.1631 9.07893 36.1045 9.98147L36.1044 9.98152L36.1044 9.98157L36.104 9.98188L36.1037 9.98217L36.1036 9.98222C35.674 10.3485 35.2316 10.7257 34.7662 11.1117ZM38.7968 17.6269C38.4149 19.304 39.4969 20.6415 40.8123 20.5353C40.9313 20.1555 41.0452 19.7834 41.1575 19.4165C41.3653 18.7376 41.5678 18.0761 41.7882 17.4146C41.8465 17.2491 41.9271 17.0882 42.0076 16.9276L42.0076 16.9276C42.1026 16.7378 42.1974 16.5486 42.2549 16.3531C42.4246 15.7374 42.6156 14.9307 41.8306 14.7396C41.2578 14.6123 40.3455 14.8033 39.9849 15.2067C39.412 15.8436 38.9877 16.7564 38.7968 17.6269ZM46.6374 14.8497L46.6374 14.8497C46.84 14.5299 47.0349 14.2222 47.3031 14.1029C47.5789 13.9755 48.173 14.2303 48.47 14.485C48.5354 14.5414 48.6012 14.5978 48.6671 14.6543C49.37 15.2572 50.0872 15.8722 50.5915 16.6292C50.8673 17.075 50.7612 17.903 50.5703 18.455C50.4218 18.8583 49.8702 19.2829 49.4459 19.3678C49.1701 19.4103 48.7246 18.9008 48.4487 18.5611C47.982 17.9879 47.5789 17.3935 47.1758 16.7566C46.9704 16.4776 46.8157 16.1581 46.6346 15.7839L46.6346 15.7838C46.5538 15.6169 46.4678 15.4391 46.3696 15.2493C46.4643 15.1229 46.5516 14.9853 46.6374 14.8497ZM47.4827 22.8773L47.4945 22.8701C47.4885 22.8339 47.4807 22.7959 47.4727 22.7567C47.4526 22.6581 47.4309 22.5518 47.4309 22.4455C47.3177 22.4172 47.2046 22.3795 47.0914 22.3417C46.8651 22.2662 46.6388 22.1908 46.4125 22.1908C45.5427 22.1908 44.6729 22.212 43.8242 22.3181C43.4848 22.3606 43.0817 22.5941 42.9332 22.8489C42.8483 22.9975 43.1241 23.4645 43.3575 23.6768C43.4814 23.8008 43.6633 23.8452 43.8481 23.8902C43.9796 23.9223 44.1127 23.9547 44.2273 24.0165C44.4607 24.1439 44.885 24.3986 44.8638 24.5048C44.7789 24.802 44.5668 25.0992 44.3122 25.3115C44.1889 25.4211 44.0126 25.46 43.7947 25.5081C43.675 25.5344 43.5428 25.5636 43.3999 25.6087C44.2235 25.5547 44.9869 25.5007 45.7503 25.4466C46.1865 25.4157 46.6228 25.3849 47.0702 25.354C46.8197 25.2426 46.5327 25.2088 46.2564 25.1763C45.6901 25.1097 45.1685 25.0483 45.0972 24.335C45.9625 23.8069 46.7229 23.342 47.4827 22.8773Z" fill="white"/>
</svg>
