<svg width="60" height="46" viewBox="0 0 60 46" fill="none" xmlns="http://www.w3.org/2000/svg">
<path d="M20.8247 20.52C23.0647 21.56 24.7847 23.12 25.9847 25.2C27.2647 27.2 27.9047 29.56 27.9047 32.28C27.9047 36.28 26.6247 39.52 24.0647 42C21.5047 44.48 18.2247 45.72 14.2247 45.72C10.2247 45.72 6.94469 44.48 4.38469 42C1.82469 39.52 0.544688 36.28 0.544688 32.28C0.544688 30.44 0.784688 28.6 1.26469 26.76C1.74469 24.92 2.82469 22.2 4.50469 18.6L12.1847 0.959995H26.4647L20.8247 20.52ZM52.2647 20.52C54.5047 21.56 56.2247 23.12 57.4247 25.2C58.7047 27.2 59.3447 29.56 59.3447 32.28C59.3447 36.28 58.0647 39.52 55.5047 42C52.9447 44.48 49.6647 45.72 45.6647 45.72C41.6647 45.72 38.3847 44.48 35.8247 42C33.2647 39.52 31.9847 36.28 31.9847 32.28C31.9847 30.44 32.2247 28.6 32.7047 26.76C33.1847 24.92 34.2647 22.2 35.9447 18.6L43.6247 0.959995H57.9047L52.2647 20.52Z" fill="#00A092"/>
</svg>
