<svg width="64" height="54" viewBox="0 0 64 54" fill="none" xmlns="http://www.w3.org/2000/svg">
<path d="M17.1229 37.4213C17.0882 37.4827 17.0592 37.5529 16.9897 37.6756C16.2153 36.3737 15.9906 34.9338 15.7165 33.5141C15.6669 33.4963 15.6087 33.4843 15.565 33.4753C15.3973 33.9052 15.1742 34.3085 15.0735 34.7447C14.7249 36.173 14.8303 37.6036 15.1714 39.0294C15.5888 40.7223 16.0062 42.4151 16.3625 44.1106C16.6275 45.3837 16.7821 46.6797 16.503 47.9853C16.1981 49.4227 15.5608 50.5859 14.1129 51.1326C13.4675 51.3727 12.8329 51.2876 12.2472 50.9536C11.676 50.6226 11.6018 50.0362 12.0954 49.6049C12.3887 49.3455 12.7227 49.0717 13.0832 48.9328C13.7955 48.6608 14.1609 48.1497 14.2173 47.4379C14.271 46.7788 14.2925 46.0903 14.1774 45.4421C13.8589 43.7087 13.4763 41.9926 13.0705 40.2792C12.6147 38.3576 12.348 36.4369 12.6808 34.4722C12.9704 32.7652 13.7089 31.3183 15.0623 30.2113C15.161 30.1327 15.251 30.0598 15.3498 29.9812C15.4108 29.9405 15.4689 29.9144 15.5794 29.8534C15.6646 30.1908 15.7323 30.5017 15.8087 30.8069C16.2631 28.6464 16.3972 26.3819 18.1974 24.735C20.8375 26.216 22.3011 28.5205 22.8904 31.4597C23.4205 28.104 21.4214 25.7881 19.4686 23.3903C19.9568 23.1025 20.4188 22.8323 20.8809 22.562C21.2732 22.3383 21.6655 22.1145 22.0606 21.8762C22.9498 21.3589 22.976 21.3414 23.5776 22.2118C24.1413 23.0438 24.6352 23.9224 25.1495 24.7747C25.246 24.9393 25.3337 25.1097 25.4795 25.254C25.3826 23.7033 24.7506 22.3317 23.9789 20.939C24.8624 20.451 25.7225 19.9658 26.6061 19.5159C26.7252 19.4491 26.967 19.5675 27.1157 19.659C28.7973 20.6987 29.7819 22.2801 30.4644 24.0885C30.6695 24.6258 30.8484 25.1805 31.0854 25.7091C31.0816 22.9897 29.7142 20.7735 28.3146 18.4898C29.3169 17.8207 30.2931 17.169 31.3303 16.4766C32.3135 17.5246 32.896 18.8784 33.5337 20.2207C33.5951 19.1748 33.3134 18.2181 32.8077 17.3219C32.6294 16.9958 32.4424 16.6754 32.2292 16.3726C31.9693 15.9992 31.9743 15.6651 32.2965 15.3355C32.9467 14.6852 33.5853 14.0173 34.2355 13.367C36.8209 15.0499 38.3689 17.349 38.9495 20.332C39.0911 18.762 38.6772 17.2831 38.1091 15.8562C37.5439 14.4146 36.6242 13.1969 35.469 12.0602C36.7872 10.8622 38.059 9.70794 39.3656 8.53042C40.5708 9.91358 41.5636 11.2605 42.0391 12.9273C41.9124 11.104 41.3205 9.4513 40.1614 7.91013C40.7805 7.61131 41.3239 7.31212 41.8908 7.08631C42.0129 7.04295 42.2373 7.17298 42.3918 7.27337C43.0709 7.71038 43.7961 7.95127 44.6225 7.90841C43.6704 7.70451 43.1362 7.03084 42.7152 6.24344C42.4141 5.69399 42.6141 5.36969 43.2076 5.31691C44.1968 5.21623 45.1771 5.08328 46.1545 4.92686C46.8264 4.82171 47.4748 4.60509 48.1468 4.49994C49.162 4.34371 50.0938 4.57389 51.0348 5.02683C51.7399 5.37018 52.5666 5.47971 53.3556 5.62714C53.836 5.72618 54.2794 6.1298 54.298 6.61341C54.3076 6.95045 54.3259 7.28167 54.3674 7.61008C54.489 8.53375 54.2086 9.30601 53.5789 10.0062C53.5205 9.91804 53.4709 9.86212 53.4387 9.79457C53.1518 9.09573 53.1576 9.10455 52.4363 9.26808C51.7529 9.43178 51.0958 9.65422 50.6258 10.2351C50.0833 10.9152 50.0242 11.7179 50.5058 12.3121C50.894 12.8034 51.9653 12.9405 52.6017 12.5919C52.7208 12.5251 52.84 12.4583 52.9591 12.3915C53.2781 13.1198 53.1689 13.676 52.5968 14.1597C52.1438 14.5384 51.647 14.8701 51.13 15.2661C50.5355 14.8998 49.903 14.4953 49.2532 14.1405C48.5888 13.7827 47.8985 13.5185 47.0232 13.7721C47.3612 13.9408 47.6147 14.0768 47.9643 14.2631C46.5224 14.8568 45.5528 15.784 45.015 17.2114C44.8304 16.686 44.6516 16.1693 44.4318 15.5529C44.1925 18.7781 46.6796 23.1213 51.5692 24.6016C51.3424 24.6766 51.1651 24.7315 50.9848 24.8009C50.9907 24.8478 50.988 24.9006 50.9939 24.9475C51.2005 24.9368 51.4013 24.9553 51.5991 24.9123C52.2797 24.7633 52.9514 24.5819 53.6379 24.4417C54.301 24.3042 54.9009 24.4888 55.5248 24.9373C54.6445 25.525 53.8339 26.0661 53.0321 26.6014C52.3464 27.0464 51.6666 27.5002 50.9693 27.9276C50.8327 28.006 50.6 28.0342 50.4688 27.9691C47.7185 26.6253 44.8012 26.0543 41.7776 26.0249C40.794 26.0201 39.9175 25.7785 39.1158 25.1944C38.903 25.0439 38.6554 24.9548 38.3585 24.924C38.6882 25.289 39.0093 25.6598 39.4003 26.0983C35.7379 26.6226 32.4119 27.8636 29.3555 29.8912C28.9668 29.2094 28.6014 28.563 28.2419 27.9253C28.21 27.9339 28.1867 27.9368 28.1547 27.9454C28.2075 28.1391 28.243 28.3444 28.3191 28.5352C28.694 29.5187 28.6178 30.4854 28.3089 31.4802C27.6015 33.7332 26.1245 35.4315 24.5427 37.0853C23.6661 38.0012 22.8829 39.0201 22.1113 40.0185C21.5225 40.7805 21.2162 41.6845 21.1983 42.6631C21.1987 42.8155 21.1525 42.9735 21.121 43.1727C20.9636 43.0869 20.8325 43.0218 20.6693 42.9272C20.6841 43.0064 20.6813 43.0592 20.6988 43.0856C21.4581 44.156 22.3939 44.8668 23.7989 44.6157C24.3166 44.5245 24.8086 44.6031 25.2261 45.1384C25.0343 45.2664 24.8513 45.3886 24.677 45.505C23.326 46.4068 21.9693 47.2999 20.6387 48.2135C20.3337 48.4172 20.1503 48.387 19.8646 48.1834C18.8559 47.4576 18.2307 46.4377 17.6577 45.3829C17.4472 44.9892 17.3906 44.4673 17.3982 44.0043C17.4061 42.4981 17.4984 40.9865 17.5005 39.4715C17.5075 38.78 17.3632 38.0877 17.2946 37.3958C17.2364 37.4219 17.184 37.4187 17.1229 37.4213ZM48.3832 5.9575C48.3747 6.03951 48.3749 6.1157 48.3663 6.19771C48.8177 6.32884 49.2663 6.51271 49.7292 6.5853C49.898 6.61249 50.1069 6.35857 50.2987 6.23056C50.1295 6.08908 49.963 5.81867 49.7971 5.81493C49.3228 5.8009 48.8487 5.90116 48.3832 5.9575Z" fill="#20113D"/>
<path d="M30.5746 36.4963C30.4989 36.496 30.3271 36.4834 30.0623 36.4821C30.8264 37.1426 31.6385 37.1729 32.4504 37.0888C33.4164 36.9908 34.3765 36.8078 35.3425 36.7098C35.9129 36.6597 36.4633 36.7884 36.8227 37.3883C36.6978 37.4845 36.5874 37.5837 36.4654 37.6652C35.0182 38.6317 33.5769 39.6071 32.1094 40.5618C31.9089 40.6958 31.5917 40.7294 31.3501 40.6872C30.625 40.5606 29.9173 40.3842 29.2009 40.2136C28.3622 40.0102 27.8488 39.5386 27.7797 38.6176C27.7586 38.3008 27.5861 37.9833 27.4224 37.6981C27.098 37.1511 26.7301 36.6333 26.362 36.0774C27.7124 34.8318 28.2818 33.1661 28.9066 31.5271C29.1814 30.8217 29.6227 30.3488 30.3263 30.0443C30.9012 30.7039 31.3802 31.3894 31.17 32.3443C31.0807 32.7221 30.9855 33.0911 30.9312 33.4837C30.8083 34.4566 30.6972 35.4472 30.5746 36.4963Z" fill="#20113D"/>
<path d="M35.0467 27.6946C36.8126 27.3424 38.436 27.0218 40.1147 26.6897C40.3691 28.4034 39.8843 30.1399 40.6507 31.7534C40.389 31.8519 40.1534 31.9329 39.915 32.0285C39.918 32.0901 39.9298 32.1459 39.9329 32.2075C40.3054 32.2004 40.6926 32.2346 41.0563 32.1571C41.6498 32.028 42.211 31.7932 42.8015 31.6406C43.4705 31.4737 43.9893 31.7636 44.4651 32.3113C43.8984 32.6898 43.3492 33.0566 42.8086 33.4176C41.8235 34.0756 40.85 34.7513 39.8473 35.3828C39.6671 35.4904 39.3528 35.5094 39.146 35.4439C38.3159 35.1966 37.7555 34.5781 37.4423 33.82C36.6138 31.8279 35.8609 29.7981 35.0467 27.6946Z" fill="#20113D"/>
</svg>
