<svg width="50" height="50" viewBox="0 0 50 50" fill="none" xmlns="http://www.w3.org/2000/svg">
<path fill-rule="evenodd" clip-rule="evenodd" d="M50 25C50 38.8071 38.8071 50 25 50C11.1929 50 0 38.8071 0 25C0 11.1929 11.1929 0 25 0C38.8071 0 50 11.1929 50 25ZM6.66147 36.2813C6.2968 36.7362 5.91989 37.2064 5.52049 37.6945C5.95541 37.7226 6.27702 37.7588 6.54602 37.789C6.7433 37.8112 6.91228 37.8302 7.07691 37.8405C7.91281 37.8405 8.85051 37.7997 9.80503 37.7583C11.1832 37.6984 12.5964 37.6371 13.789 37.6945C14.4485 37.9544 14.6646 38.0992 15.0715 38.372C15.1598 38.4312 15.257 38.4964 15.3697 38.57C20.9388 42.2179 26.824 42.8502 32.6119 39.6644C33.9981 38.8862 36.4057 37.7432 36.4057 37.7432C36.4057 37.7432 39.2024 37.7918 40.5156 37.8648C41.3668 37.9134 42.218 37.8891 43.0691 37.8648C43.2915 37.8648 43.5059 37.841 43.7713 37.8115C43.9704 37.7893 44.1982 37.764 44.4796 37.7432C44.3065 37.5089 44.1674 37.3087 44.0447 37.132C43.8743 36.8868 43.7353 36.6866 43.5798 36.5029C43.4705 36.3655 43.3611 36.2276 43.2516 36.0896C42.5088 35.1529 41.7588 34.2073 40.9534 33.3171C40.2724 32.5632 40.1508 31.9552 40.5399 30.9582C44.6012 20.501 37.2812 9.071 26.1187 8.36575C14.0808 7.58754 5.20434 19.6255 9.53313 30.9095C9.92224 31.9309 9.77632 32.5875 9.09539 33.3658C8.26618 34.2796 7.49584 35.2405 6.66147 36.2813ZM30.8627 18.8283C28.9529 21.1377 27.0187 23.4765 25.0244 25.8755C23.3759 23.8876 21.7515 21.9359 20.1423 20.0024C18.523 18.0568 16.919 16.1296 15.3211 14.2023C19.4553 9.7033 28.6236 8.58462 34.752 14.1294C33.4594 15.6884 32.1667 17.2515 30.8627 18.8283ZM24.9757 37.4027C24.9757 37.4027 28.5993 32.3443 28.9397 31.8336C30.3168 33.0598 31.6061 34.2128 32.8643 35.3381C33.2282 35.6634 33.5894 35.9865 33.9495 36.3084C30.0098 40.4426 20.9874 40.9776 16.002 36.3813C17.6557 34.8979 19.3094 33.4144 21.1333 31.785C21.717 32.8064 24.9757 37.4027 24.9757 37.4027ZM11.5516 30.3745C10.1411 28.0885 9.9952 23.249 11.2841 20.0875C11.4629 20.3831 11.6401 20.6755 11.8156 20.9651C12.8098 22.6054 13.7513 24.1587 14.6401 25.7296C14.7617 25.9484 14.7131 26.4591 14.5429 26.678C13.8147 27.6488 13.0436 28.5767 12.2625 29.5165C12.0261 29.8009 11.7889 30.0864 11.5516 30.3745ZM38.8133 20.0875C39.9563 23.6624 39.8833 26.9455 38.6187 30.4718C38.5394 30.3759 38.461 30.2812 38.3834 30.1875C37.3195 28.9025 36.4175 27.813 35.5789 26.7023C35.4086 26.4591 35.3357 25.9728 35.4816 25.7296C36.2205 24.41 36.9977 23.1159 37.8314 21.7276C38.1501 21.1969 38.477 20.6525 38.8133 20.0875Z" fill="white"/>
</svg>
