<svg width="40" height="40" viewBox="0 0 40 40" fill="none" xmlns="http://www.w3.org/2000/svg">
<circle cx="20" cy="20" r="20" fill="#FF0000"/>
<path fill-rule="evenodd" clip-rule="evenodd" d="M31.3005 12.3781C31.6996 12.7772 31.9872 13.2739 32.1346 13.8187C32.9835 17.2357 32.7873 22.6324 32.1511 26.1813C32.0037 26.7261 31.7161 27.2228 31.317 27.6219C30.9179 28.021 30.4212 28.3086 29.8764 28.456C27.8819 29 19.8544 29 19.8544 29C19.8544 29 11.8269 29 9.8324 28.456C9.28759 28.3086 8.79089 28.021 8.39179 27.6219C7.99269 27.2228 7.70511 26.7261 7.55768 26.1813C6.70383 22.7791 6.9379 17.3791 7.5412 13.8352C7.68862 13.2903 7.97621 12.7936 8.37531 12.3945C8.77441 11.9954 9.2711 11.7079 9.81592 11.5604C11.8104 11.0165 19.8379 11 19.8379 11C19.8379 11 27.8654 11 29.8599 11.544C30.4047 11.6914 30.9014 11.979 31.3005 12.3781ZM23.9423 20L17.283 23.8571V16.1428L23.9423 20Z" fill="white"/>
</svg>
